M48
METRIC,TZ
T1C0.400
T2C0.500
T3C0.750
T4C0.800
T5C1.000
T6C1.100
T7C1.300
%
G90
G05
T1
X109220Y-84836
X111760Y-86360
X114300Y-86360
X116840Y-86360
X121920Y-107648
X124460Y-109220
X137160Y-128270
X137160Y-134620
X138793Y-128127
X143510Y-105410
X144145Y-138684
X144272Y-127000
X147320Y-49530
X147320Y-54610
X147320Y-120015
X148590Y-48260
X148590Y-55880
X149860Y-48260
X149860Y-55880
X151130Y-49530
X151130Y-54610
X152400Y-48260
X152400Y-50800
X152400Y-53340
X152400Y-55880
X152400Y-85344
X153670Y-49530
X153670Y-52070
X153670Y-54610
X153670Y-109220
X154940Y-48260
X154940Y-50800
X154940Y-53340
X154940Y-55880
X156210Y-49530
X156210Y-52070
X156210Y-54610
X157480Y-48260
X157480Y-50800
X157480Y-53340
X157480Y-55880
X157480Y-107950
X158750Y-49530
X158750Y-52070
X158750Y-54610
X160020Y-48260
X160020Y-50800
X160020Y-53340
X160020Y-55880
X161290Y-49530
X161290Y-52070
X161290Y-54610
X166370Y-93980
X169243Y-130810
X171450Y-133759
X173990Y-132663
X174575Y-91524
X174625Y-93980
X174983Y-100354
X175260Y-131772
X175387Y-86360
X175395Y-89676
X176530Y-110490
X176530Y-133400
X176530Y-137795
X178054Y-79375
X182624Y-103505
X182880Y-123190
X182880Y-125730
X182997Y-129188
X183007Y-99060
X183636Y-107950
X183636Y-112909
X184749Y-129996
X184785Y-138975
T2
X114300Y-139700
X140970Y-139700
T3
X182880Y-72390
X182880Y-73660
X182880Y-74930
T4
X104815Y-63500
X104855Y-46990
X106680Y-87710
X106680Y-92710
X109815Y-63500
X109855Y-46990
X110490Y-77470
X110490Y-92710
X112435Y-46990
X112475Y-63500
X113030Y-77470
X113030Y-92710
X114300Y-124500
X114300Y-129500
X115570Y-77470
X115570Y-92710
X115570Y-107950
X115570Y-112950
X117435Y-46990
X117475Y-50800
X117475Y-58420
X117475Y-63500
X118110Y-77470
X118110Y-92710
X118110Y-124460
X118110Y-132080
X119385Y-97770
X119385Y-113010
X120015Y-46990
X120015Y-63500
X120476Y-71120
X120650Y-50800
X120650Y-58420
X120650Y-77470
X120650Y-92710
X120650Y-124460
X120650Y-132080
X121925Y-97770
X121925Y-113010
X123190Y-77470
X123190Y-92710
X123190Y-124460
X123190Y-132080
X123825Y-50800
X123825Y-58420
X124465Y-97770
X124465Y-113010
X125476Y-71120
X125730Y-77470
X125730Y-92710
X125730Y-124460
X125730Y-132080
X127000Y-50800
X127000Y-58420
X127005Y-97770
X127005Y-113010
X127635Y-46990
X127635Y-63500
X128270Y-77470
X128270Y-92710
X128270Y-124460
X128270Y-132080
X129545Y-97770
X129545Y-113010
X130810Y-53380
X130810Y-58380
X130810Y-65024
X130810Y-70024
X130810Y-77470
X130810Y-92710
X130810Y-124460
X130810Y-132080
X132085Y-97770
X132085Y-113010
X133350Y-77470
X133350Y-92710
X133350Y-124460
X133350Y-132080
X134620Y-52070
X134620Y-59690
X134620Y-64770
X134620Y-72390
X134625Y-97770
X134625Y-113010
X135890Y-77470
X135890Y-92710
X135890Y-124460
X135890Y-132080
X137160Y-52070
X137160Y-59690
X137160Y-64770
X137160Y-72390
X137165Y-97770
X137165Y-113010
X138430Y-77470
X138430Y-92710
X138430Y-124460
X138430Y-132080
X139700Y-52070
X139700Y-59690
X139700Y-64770
X139700Y-72390
X139705Y-97770
X139705Y-113010
X140970Y-77470
X140970Y-92710
X140970Y-124460
X140970Y-132080
X142240Y-52070
X142240Y-59690
X142240Y-64770
X142240Y-72390
X142245Y-97770
X142245Y-113010
X143510Y-77470
X143510Y-92710
X144785Y-97770
X144785Y-113010
X146050Y-77470
X146050Y-92710
X146050Y-130890
X146050Y-135890
X147325Y-97770
X147325Y-113010
X148590Y-77470
X148590Y-92710
X149860Y-120650
X149860Y-135890
X149865Y-97770
X149865Y-113010
X151130Y-77470
X151130Y-92710
X152400Y-120650
X152400Y-135890
X152405Y-97770
X152405Y-113010
X153670Y-77470
X153670Y-92710
X154940Y-120650
X154940Y-135890
X154945Y-97770
X154945Y-113010
X156210Y-64770
X156210Y-72390
X156210Y-77470
X156210Y-92710
X157480Y-120650
X157480Y-135890
X157485Y-97770
X157485Y-113010
X158750Y-77470
X158750Y-92710
X160020Y-120650
X160020Y-135890
X160025Y-97770
X160025Y-113010
X162560Y-120650
X162560Y-135890
X162565Y-97770
X162565Y-113010
X163830Y-64770
X163830Y-72390
X165100Y-120650
X165100Y-135890
X165105Y-97770
X165105Y-113010
X167640Y-120650
X167640Y-135890
X167645Y-97770
X167645Y-113010
X170170Y-59685
X170170Y-62225
X170170Y-64765
X170170Y-67305
X170170Y-69845
X170170Y-72385
X170170Y-74925
X170180Y-120650
X170180Y-135890
X172720Y-85090
X172720Y-87630
X172720Y-90170
X172720Y-92710
X172720Y-95250
X172720Y-97790
X172720Y-100330
X172720Y-102870
X172720Y-105410
X172720Y-107950
X172720Y-110490
X172720Y-113030
X172720Y-120650
X172720Y-135890
X172760Y-55880
X173990Y-47127
X173990Y-52127
X175260Y-81280
X175260Y-120650
X175260Y-135890
X177760Y-55880
X177790Y-59685
X177790Y-62225
X177790Y-64765
X177790Y-67305
X177790Y-69845
X177790Y-72385
X177790Y-74925
X177800Y-120650
X177800Y-135890
X180260Y-81280
X180340Y-85090
X180340Y-87630
X180340Y-90170
X180340Y-92710
X180340Y-95250
X180340Y-97790
X180340Y-100330
X180340Y-102870
X180340Y-105410
X180340Y-107950
X180340Y-110490
X180340Y-113030
X180340Y-120650
X180340Y-135890
X181610Y-59690
X181610Y-67310
X182880Y-120650
X182880Y-135890
X184150Y-48300
X184150Y-53300
T5
X106680Y-78725
X106680Y-81265
X106680Y-83805
X107950Y-101600
X107950Y-104140
X107950Y-106680
X107950Y-109220
X107950Y-111760
X107950Y-114300
X107950Y-116840
X107950Y-119380
X107950Y-121920
X107950Y-124460
X107950Y-127000
X107950Y-129540
X107950Y-132080
X110490Y-68585
X110490Y-71125
X110490Y-101600
X110490Y-104140
X110490Y-106680
X110490Y-109220
X110490Y-111760
X110490Y-114300
X110490Y-116840
X110490Y-119380
X110490Y-121920
X110490Y-124460
X110490Y-127000
X110490Y-129540
X110490Y-132080
X113030Y-68585
X113030Y-71125
X187960Y-53340
X187960Y-55880
X187960Y-58420
X187960Y-60960
X187960Y-63500
X187960Y-66040
X187960Y-68580
X187960Y-71120
X187960Y-73660
X187960Y-76200
X187960Y-78740
X187960Y-81280
X187960Y-83820
X187960Y-86360
X187960Y-88900
X187960Y-91440
X187960Y-93980
X187960Y-96520
X187960Y-99060
X187960Y-101600
X187960Y-104140
X187960Y-106680
X187960Y-109220
X187960Y-111760
X187960Y-114300
X187960Y-116840
X187960Y-119380
X187960Y-121920
X187960Y-124460
X187960Y-127000
X187960Y-129540
X187960Y-132080
X190500Y-53340
X190500Y-55880
X190500Y-58420
X190500Y-60960
X190500Y-63500
X190500Y-66040
X190500Y-68580
X190500Y-71120
X190500Y-73660
X190500Y-76200
X190500Y-78740
X190500Y-81280
X190500Y-83820
X190500Y-86360
X190500Y-88900
X190500Y-91440
X190500Y-93980
X190500Y-96520
X190500Y-99060
X190500Y-101600
X190500Y-104140
X190500Y-106680
X190500Y-109220
X190500Y-111760
X190500Y-114300
X190500Y-116840
X190500Y-119380
X190500Y-121920
X190500Y-124460
X190500Y-127000
X190500Y-129540
X190500Y-132080
T6
X166075Y-49530
X166075Y-52070
X166075Y-54610
T7
X107315Y-55245
X112315Y-50245
X112315Y-52745
X112315Y-57745
X112315Y-60245
M30
