%TF.GenerationSoftware,KiCad,Pcbnew,8.0.6+1*%
%TF.CreationDate,2024-11-13T12:21:45+01:00*%
%TF.ProjectId,QL_Qsound2,514c5f51-736f-4756-9e64-322e6b696361,2*%
%TF.SameCoordinates,Original*%
%TF.FileFunction,Soldermask,Top*%
%TF.FilePolarity,Negative*%
%FSLAX46Y46*%
G04 Gerber Fmt 4.6, Leading zero omitted, Abs format (unit mm)*
G04 Created by KiCad (PCBNEW 8.0.6+1) date 2024-11-13 12:21:45*
%MOMM*%
%LPD*%
G01*
G04 APERTURE LIST*
G04 Aperture macros list*
%AMRoundRect*
0 Rectangle with rounded corners*
0 $1 Rounding radius*
0 $2 $3 $4 $5 $6 $7 $8 $9 X,Y pos of 4 corners*
0 Add a 4 corners polygon primitive as box body*
4,1,4,$2,$3,$4,$5,$6,$7,$8,$9,$2,$3,0*
0 Add four circle primitives for the rounded corners*
1,1,$1+$1,$2,$3*
1,1,$1+$1,$4,$5*
1,1,$1+$1,$6,$7*
1,1,$1+$1,$8,$9*
0 Add four rect primitives between the rounded corners*
20,1,$1+$1,$2,$3,$4,$5,0*
20,1,$1+$1,$4,$5,$6,$7,0*
20,1,$1+$1,$6,$7,$8,$9,0*
20,1,$1+$1,$8,$9,$2,$3,0*%
G04 Aperture macros list end*
%ADD10C,0.150000*%
%ADD11R,1.800000X2.000000*%
%ADD12R,1.600000X2.400000*%
%ADD13O,1.600000X2.400000*%
%ADD14C,1.600000*%
%ADD15R,1.500000X1.050000*%
%ADD16O,1.500000X1.050000*%
%ADD17O,1.600000X1.600000*%
%ADD18R,1.700000X1.700000*%
%ADD19O,1.700000X1.700000*%
%ADD20C,2.286000*%
%ADD21R,1.600000X1.600000*%
%ADD22O,2.400000X1.600000*%
%ADD23R,2.400000X1.600000*%
%ADD24O,2.000000X1.905000*%
%ADD25R,2.000000X1.905000*%
%ADD26O,3.500000X3.500000*%
%ADD27C,1.550000*%
%ADD28RoundRect,0.249999X0.525001X-0.525001X0.525001X0.525001X-0.525001X0.525001X-0.525001X-0.525001X0*%
%ADD29C,2.850000*%
G04 APERTURE END LIST*
D10*
X146685000Y-47117000D02*
X162179000Y-47117000D01*
X162179000Y-57023000D01*
X146685000Y-57023000D01*
X146685000Y-47117000D01*
G36*
X146685000Y-47117000D02*
G01*
X162179000Y-47117000D01*
X162179000Y-57023000D01*
X146685000Y-57023000D01*
X146685000Y-47117000D01*
G37*
D11*
%TO.C,X4*%
X167640000Y-88170000D03*
X162560000Y-88170000D03*
X162560000Y-92170000D03*
X167640000Y-92170000D03*
%TD*%
%TO.C,X3*%
X167640000Y-79280000D03*
X162560000Y-79280000D03*
X162560000Y-83280000D03*
X167640000Y-83280000D03*
%TD*%
D12*
%TO.C,U9*%
X134620000Y-72390000D03*
D13*
X137160000Y-72390000D03*
X139700000Y-72390000D03*
X142240000Y-72390000D03*
X142240000Y-64770000D03*
X139700000Y-64770000D03*
X137160000Y-64770000D03*
X134620000Y-64770000D03*
%TD*%
D12*
%TO.C,U7*%
X110490000Y-92710000D03*
D13*
X113030000Y-92710000D03*
X115570000Y-92710000D03*
X118110000Y-92710000D03*
X120650000Y-92710000D03*
X123190000Y-92710000D03*
X125730000Y-92710000D03*
X128270000Y-92710000D03*
X130810000Y-92710000D03*
X133350000Y-92710000D03*
X135890000Y-92710000D03*
X138430000Y-92710000D03*
X140970000Y-92710000D03*
X143510000Y-92710000D03*
X146050000Y-92710000D03*
X148590000Y-92710000D03*
X151130000Y-92710000D03*
X153670000Y-92710000D03*
X156210000Y-92710000D03*
X158750000Y-92710000D03*
X158750000Y-77470000D03*
X156210000Y-77470000D03*
X153670000Y-77470000D03*
X151130000Y-77470000D03*
X148590000Y-77470000D03*
X146050000Y-77470000D03*
X143510000Y-77470000D03*
X140970000Y-77470000D03*
X138430000Y-77470000D03*
X135890000Y-77470000D03*
X133350000Y-77470000D03*
X130810000Y-77470000D03*
X128270000Y-77470000D03*
X125730000Y-77470000D03*
X123190000Y-77470000D03*
X120650000Y-77470000D03*
X118110000Y-77470000D03*
X115570000Y-77470000D03*
X113030000Y-77470000D03*
X110490000Y-77470000D03*
%TD*%
D14*
%TO.C,C1*%
X184150000Y-53300000D03*
X184150000Y-48300000D03*
%TD*%
%TO.C,C6*%
X180260000Y-81280000D03*
X175260000Y-81280000D03*
%TD*%
%TO.C,C7*%
X106680000Y-87710000D03*
X106680000Y-92710000D03*
%TD*%
D13*
%TO.C,U10*%
X148590000Y-64770000D03*
X151130000Y-64770000D03*
X153670000Y-64770000D03*
X156210000Y-64770000D03*
X158750000Y-64770000D03*
X161290000Y-64770000D03*
X163830000Y-64770000D03*
X163830000Y-72390000D03*
X161290000Y-72390000D03*
X158750000Y-72390000D03*
X156210000Y-72390000D03*
X153670000Y-72390000D03*
X151130000Y-72390000D03*
D12*
X148590000Y-72390000D03*
%TD*%
D15*
%TO.C,Q1*%
X182880000Y-74930000D03*
D16*
X182880000Y-73660000D03*
X182880000Y-72390000D03*
%TD*%
D14*
%TO.C,R2*%
X127635000Y-46990000D03*
D17*
X120015000Y-46990000D03*
%TD*%
D14*
%TO.C,R6*%
X127000000Y-58420000D03*
D17*
X127000000Y-50800000D03*
%TD*%
D12*
%TO.C,U8*%
X118110000Y-132080000D03*
D13*
X120650000Y-132080000D03*
X123190000Y-132080000D03*
X125730000Y-132080000D03*
X128270000Y-132080000D03*
X130810000Y-132080000D03*
X133350000Y-132080000D03*
X135890000Y-132080000D03*
X138430000Y-132080000D03*
X140970000Y-132080000D03*
X140970000Y-124460000D03*
X138430000Y-124460000D03*
X135890000Y-124460000D03*
X133350000Y-124460000D03*
X130810000Y-124460000D03*
X128270000Y-124460000D03*
X125730000Y-124460000D03*
X123190000Y-124460000D03*
X120650000Y-124460000D03*
X118110000Y-124460000D03*
%TD*%
D18*
%TO.C,JP2*%
X110490000Y-71125000D03*
D19*
X110490000Y-68585000D03*
X113030000Y-71125000D03*
X113030000Y-68585000D03*
%TD*%
D12*
%TO.C,U5*%
X134620000Y-59690000D03*
D13*
X137160000Y-59690000D03*
X139700000Y-59690000D03*
X142240000Y-59690000D03*
X142240000Y-52070000D03*
X139700000Y-52070000D03*
X137160000Y-52070000D03*
X134620000Y-52070000D03*
%TD*%
D14*
%TO.C,C8*%
X114300000Y-124500000D03*
X114300000Y-129500000D03*
%TD*%
%TO.C,C14*%
X109815000Y-63500000D03*
X104815000Y-63500000D03*
%TD*%
%TO.C,C2*%
X146050000Y-135890000D03*
X146050000Y-130890000D03*
%TD*%
%TO.C,R5*%
X123825000Y-58420000D03*
D17*
X123825000Y-50800000D03*
%TD*%
D14*
%TO.C,C13*%
X117435000Y-46990000D03*
X112435000Y-46990000D03*
%TD*%
%TO.C,R1*%
X181610000Y-59690000D03*
D17*
X181610000Y-67310000D03*
%TD*%
D20*
%TO.C,J2*%
X112315000Y-57745000D03*
X112315000Y-60245000D03*
X112315000Y-52745000D03*
X112315000Y-50245000D03*
X107315000Y-55245000D03*
%TD*%
D14*
%TO.C,R4*%
X120650000Y-58420000D03*
D17*
X120650000Y-50800000D03*
%TD*%
D14*
%TO.C,C9*%
X130810000Y-53380000D03*
X130810000Y-58380000D03*
%TD*%
%TO.C,R3*%
X117475000Y-58420000D03*
D17*
X117475000Y-50800000D03*
%TD*%
D18*
%TO.C,J3*%
X110490000Y-132080000D03*
D19*
X107950000Y-132080000D03*
X110490000Y-129540000D03*
X107950000Y-129540000D03*
X110490000Y-127000000D03*
X107950000Y-127000000D03*
X110490000Y-124460000D03*
X107950000Y-124460000D03*
X110490000Y-121920000D03*
X107950000Y-121920000D03*
X110490000Y-119380000D03*
X107950000Y-119380000D03*
X110490000Y-116840000D03*
X107950000Y-116840000D03*
X110490000Y-114300000D03*
X107950000Y-114300000D03*
X110490000Y-111760000D03*
X107950000Y-111760000D03*
X110490000Y-109220000D03*
X107950000Y-109220000D03*
X110490000Y-106680000D03*
X107950000Y-106680000D03*
X110490000Y-104140000D03*
X107950000Y-104140000D03*
X110490000Y-101600000D03*
X107950000Y-101600000D03*
%TD*%
D14*
%TO.C,C4*%
X115570000Y-107950000D03*
X115570000Y-112950000D03*
%TD*%
D21*
%TO.C,C11*%
X125476000Y-71120000D03*
D14*
X120476000Y-71120000D03*
%TD*%
D22*
%TO.C,U3*%
X177790000Y-59685000D03*
X177790000Y-62225000D03*
X177790000Y-64765000D03*
X177790000Y-67305000D03*
X177790000Y-69845000D03*
X177790000Y-72385000D03*
X177790000Y-74925000D03*
X170170000Y-74925000D03*
X170170000Y-72385000D03*
X170170000Y-69845000D03*
X170170000Y-67305000D03*
X170170000Y-64765000D03*
X170170000Y-62225000D03*
D23*
X170170000Y-59685000D03*
%TD*%
D14*
%TO.C,C15*%
X117475000Y-63500000D03*
X112475000Y-63500000D03*
%TD*%
D21*
%TO.C,C10*%
X173990000Y-47127349D03*
D14*
X173990000Y-52127349D03*
%TD*%
%TO.C,R7*%
X127635000Y-63500000D03*
D17*
X120015000Y-63500000D03*
%TD*%
D18*
%TO.C,JP1*%
X106680000Y-83805000D03*
D19*
X106680000Y-81265000D03*
X106680000Y-78725000D03*
%TD*%
D24*
%TO.C,U1*%
X166075000Y-49530000D03*
X166075000Y-52070000D03*
D25*
X166075000Y-54610000D03*
D26*
X149415000Y-52070000D03*
%TD*%
D14*
%TO.C,C12*%
X109855000Y-46990000D03*
X104855000Y-46990000D03*
%TD*%
%TO.C,C3*%
X172760000Y-55880000D03*
X177760000Y-55880000D03*
%TD*%
D23*
%TO.C,U6*%
X180340000Y-113030000D03*
D22*
X180340000Y-110490000D03*
X180340000Y-107950000D03*
X180340000Y-105410000D03*
X180340000Y-102870000D03*
X180340000Y-100330000D03*
X180340000Y-97790000D03*
X180340000Y-95250000D03*
X180340000Y-92710000D03*
X180340000Y-90170000D03*
X180340000Y-87630000D03*
X180340000Y-85090000D03*
X172720000Y-85090000D03*
X172720000Y-87630000D03*
X172720000Y-90170000D03*
X172720000Y-92710000D03*
X172720000Y-95250000D03*
X172720000Y-97790000D03*
X172720000Y-100330000D03*
X172720000Y-102870000D03*
X172720000Y-105410000D03*
X172720000Y-107950000D03*
X172720000Y-110490000D03*
X172720000Y-113030000D03*
%TD*%
D27*
%TO.C,J1*%
X187960000Y-53340000D03*
X187960000Y-55880000D03*
X187960000Y-58420000D03*
X187960000Y-60960000D03*
X187960000Y-63500000D03*
X187960000Y-66040000D03*
X187960000Y-68580000D03*
X187960000Y-71120000D03*
X187960000Y-73660000D03*
X187960000Y-76200000D03*
X187960000Y-78740000D03*
X187960000Y-81280000D03*
X187960000Y-83820000D03*
X187960000Y-86360000D03*
X187960000Y-88900000D03*
X187960000Y-91440000D03*
X187960000Y-93980000D03*
X187960000Y-96520000D03*
X187960000Y-99060000D03*
X187960000Y-101600000D03*
X187960000Y-104140000D03*
X187960000Y-106680000D03*
X187960000Y-109220000D03*
X187960000Y-111760000D03*
X187960000Y-114300000D03*
X187960000Y-116840000D03*
X187960000Y-119380000D03*
X187960000Y-121920000D03*
X187960000Y-124460000D03*
X187960000Y-127000000D03*
X187960000Y-129540000D03*
X187960000Y-132080000D03*
X190500000Y-53340000D03*
X190500000Y-55880000D03*
X190500000Y-58420000D03*
X190500000Y-60960000D03*
X190500000Y-63500000D03*
X190500000Y-66040000D03*
X190500000Y-68580000D03*
X190500000Y-71120000D03*
X190500000Y-73660000D03*
X190500000Y-76200000D03*
X190500000Y-78740000D03*
X190500000Y-81280000D03*
X190500000Y-83820000D03*
X190500000Y-86360000D03*
X190500000Y-88900000D03*
X190500000Y-91440000D03*
X190500000Y-93980000D03*
X190500000Y-96520000D03*
X190500000Y-99060000D03*
X190500000Y-101600000D03*
X190500000Y-104140000D03*
X190500000Y-106680000D03*
X190500000Y-109220000D03*
X190500000Y-111760000D03*
X190500000Y-114300000D03*
X190500000Y-116840000D03*
X190500000Y-119380000D03*
X190500000Y-121920000D03*
X190500000Y-124460000D03*
X190500000Y-127000000D03*
X190500000Y-129540000D03*
D28*
X190500000Y-132080000D03*
D29*
X193040000Y-137160000D03*
X193040000Y-48260000D03*
%TD*%
D12*
%TO.C,U2*%
X149860000Y-135890000D03*
D13*
X152400000Y-135890000D03*
X154940000Y-135890000D03*
X157480000Y-135890000D03*
X160020000Y-135890000D03*
X162560000Y-135890000D03*
X165100000Y-135890000D03*
X167640000Y-135890000D03*
X170180000Y-135890000D03*
X172720000Y-135890000D03*
X175260000Y-135890000D03*
X177800000Y-135890000D03*
X180340000Y-135890000D03*
X182880000Y-135890000D03*
X182880000Y-120650000D03*
X180340000Y-120650000D03*
X177800000Y-120650000D03*
X175260000Y-120650000D03*
X172720000Y-120650000D03*
X170180000Y-120650000D03*
X167640000Y-120650000D03*
X165100000Y-120650000D03*
X162560000Y-120650000D03*
X160020000Y-120650000D03*
X157480000Y-120650000D03*
X154940000Y-120650000D03*
X152400000Y-120650000D03*
X149860000Y-120650000D03*
%TD*%
D14*
%TO.C,C5*%
X130810000Y-70024000D03*
X130810000Y-65024000D03*
%TD*%
D12*
%TO.C,U4*%
X119385000Y-113010000D03*
D13*
X121925000Y-113010000D03*
X124465000Y-113010000D03*
X127005000Y-113010000D03*
X129545000Y-113010000D03*
X132085000Y-113010000D03*
X134625000Y-113010000D03*
X137165000Y-113010000D03*
X139705000Y-113010000D03*
X142245000Y-113010000D03*
X144785000Y-113010000D03*
X147325000Y-113010000D03*
X149865000Y-113010000D03*
X152405000Y-113010000D03*
X154945000Y-113010000D03*
X157485000Y-113010000D03*
X160025000Y-113010000D03*
X162565000Y-113010000D03*
X165105000Y-113010000D03*
X167645000Y-113010000D03*
X167645000Y-97770000D03*
X165105000Y-97770000D03*
X162565000Y-97770000D03*
X160025000Y-97770000D03*
X157485000Y-97770000D03*
X154945000Y-97770000D03*
X152405000Y-97770000D03*
X149865000Y-97770000D03*
X147325000Y-97770000D03*
X144785000Y-97770000D03*
X142245000Y-97770000D03*
X139705000Y-97770000D03*
X137165000Y-97770000D03*
X134625000Y-97770000D03*
X132085000Y-97770000D03*
X129545000Y-97770000D03*
X127005000Y-97770000D03*
X124465000Y-97770000D03*
X121925000Y-97770000D03*
X119385000Y-97770000D03*
%TD*%
M02*
