%TF.GenerationSoftware,KiCad,Pcbnew,8.0.6+1*%
%TF.CreationDate,2024-11-13T12:21:46+01:00*%
%TF.ProjectId,QL_Qsound2,514c5f51-736f-4756-9e64-322e6b696361,2*%
%TF.SameCoordinates,Original*%
%TF.FileFunction,Legend,Bot*%
%TF.FilePolarity,Positive*%
%FSLAX46Y46*%
G04 Gerber Fmt 4.6, Leading zero omitted, Abs format (unit mm)*
G04 Created by KiCad (PCBNEW 8.0.6+1) date 2024-11-13 12:21:46*
%MOMM*%
%LPD*%
G01*
G04 APERTURE LIST*
%ADD10C,0.300000*%
%ADD11C,0.350000*%
G04 APERTURE END LIST*
D10*
X182206441Y-125579105D02*
X182206441Y-123329105D01*
X182206441Y-123329105D02*
X181539774Y-124936248D01*
X181539774Y-124936248D02*
X180873108Y-123329105D01*
X180873108Y-123329105D02*
X180873108Y-125579105D01*
X179635013Y-125579105D02*
X179825489Y-125471963D01*
X179825489Y-125471963D02*
X179920727Y-125364820D01*
X179920727Y-125364820D02*
X180015965Y-125150534D01*
X180015965Y-125150534D02*
X180015965Y-124507677D01*
X180015965Y-124507677D02*
X179920727Y-124293391D01*
X179920727Y-124293391D02*
X179825489Y-124186248D01*
X179825489Y-124186248D02*
X179635013Y-124079105D01*
X179635013Y-124079105D02*
X179349298Y-124079105D01*
X179349298Y-124079105D02*
X179158822Y-124186248D01*
X179158822Y-124186248D02*
X179063584Y-124293391D01*
X179063584Y-124293391D02*
X178968346Y-124507677D01*
X178968346Y-124507677D02*
X178968346Y-125150534D01*
X178968346Y-125150534D02*
X179063584Y-125364820D01*
X179063584Y-125364820D02*
X179158822Y-125471963D01*
X179158822Y-125471963D02*
X179349298Y-125579105D01*
X179349298Y-125579105D02*
X179635013Y-125579105D01*
X178111203Y-125579105D02*
X178111203Y-124079105D01*
X178111203Y-124507677D02*
X178015965Y-124293391D01*
X178015965Y-124293391D02*
X177920727Y-124186248D01*
X177920727Y-124186248D02*
X177730251Y-124079105D01*
X177730251Y-124079105D02*
X177539774Y-124079105D01*
X176111203Y-125471963D02*
X176301679Y-125579105D01*
X176301679Y-125579105D02*
X176682632Y-125579105D01*
X176682632Y-125579105D02*
X176873108Y-125471963D01*
X176873108Y-125471963D02*
X176968346Y-125257677D01*
X176968346Y-125257677D02*
X176968346Y-124400534D01*
X176968346Y-124400534D02*
X176873108Y-124186248D01*
X176873108Y-124186248D02*
X176682632Y-124079105D01*
X176682632Y-124079105D02*
X176301679Y-124079105D01*
X176301679Y-124079105D02*
X176111203Y-124186248D01*
X176111203Y-124186248D02*
X176015965Y-124400534D01*
X176015965Y-124400534D02*
X176015965Y-124614820D01*
X176015965Y-124614820D02*
X176968346Y-124829105D01*
X173635012Y-125579105D02*
X173635012Y-124079105D01*
X173635012Y-123329105D02*
X173730250Y-123436248D01*
X173730250Y-123436248D02*
X173635012Y-123543391D01*
X173635012Y-123543391D02*
X173539774Y-123436248D01*
X173539774Y-123436248D02*
X173635012Y-123329105D01*
X173635012Y-123329105D02*
X173635012Y-123543391D01*
X172682631Y-124079105D02*
X172682631Y-125579105D01*
X172682631Y-124293391D02*
X172587393Y-124186248D01*
X172587393Y-124186248D02*
X172396917Y-124079105D01*
X172396917Y-124079105D02*
X172111202Y-124079105D01*
X172111202Y-124079105D02*
X171920726Y-124186248D01*
X171920726Y-124186248D02*
X171825488Y-124400534D01*
X171825488Y-124400534D02*
X171825488Y-125579105D01*
X171158821Y-124079105D02*
X170396917Y-124079105D01*
X170873107Y-125579105D02*
X170873107Y-123650534D01*
X170873107Y-123650534D02*
X170777869Y-123436248D01*
X170777869Y-123436248D02*
X170587393Y-123329105D01*
X170587393Y-123329105D02*
X170396917Y-123329105D01*
X169444536Y-125579105D02*
X169635012Y-125471963D01*
X169635012Y-125471963D02*
X169730250Y-125364820D01*
X169730250Y-125364820D02*
X169825488Y-125150534D01*
X169825488Y-125150534D02*
X169825488Y-124507677D01*
X169825488Y-124507677D02*
X169730250Y-124293391D01*
X169730250Y-124293391D02*
X169635012Y-124186248D01*
X169635012Y-124186248D02*
X169444536Y-124079105D01*
X169444536Y-124079105D02*
X169158821Y-124079105D01*
X169158821Y-124079105D02*
X168968345Y-124186248D01*
X168968345Y-124186248D02*
X168873107Y-124293391D01*
X168873107Y-124293391D02*
X168777869Y-124507677D01*
X168777869Y-124507677D02*
X168777869Y-125150534D01*
X168777869Y-125150534D02*
X168873107Y-125364820D01*
X168873107Y-125364820D02*
X168968345Y-125471963D01*
X168968345Y-125471963D02*
X169158821Y-125579105D01*
X169158821Y-125579105D02*
X169444536Y-125579105D01*
X167920726Y-125364820D02*
X167825488Y-125471963D01*
X167825488Y-125471963D02*
X167920726Y-125579105D01*
X167920726Y-125579105D02*
X168015964Y-125471963D01*
X168015964Y-125471963D02*
X167920726Y-125364820D01*
X167920726Y-125364820D02*
X167920726Y-125579105D01*
X167920726Y-124186248D02*
X167825488Y-124293391D01*
X167825488Y-124293391D02*
X167920726Y-124400534D01*
X167920726Y-124400534D02*
X168015964Y-124293391D01*
X168015964Y-124293391D02*
X167920726Y-124186248D01*
X167920726Y-124186248D02*
X167920726Y-124400534D01*
X182206441Y-129201479D02*
X182206441Y-126951479D01*
X181349298Y-129201479D02*
X181349298Y-128022908D01*
X181349298Y-128022908D02*
X181444536Y-127808622D01*
X181444536Y-127808622D02*
X181635012Y-127701479D01*
X181635012Y-127701479D02*
X181920727Y-127701479D01*
X181920727Y-127701479D02*
X182111203Y-127808622D01*
X182111203Y-127808622D02*
X182206441Y-127915765D01*
X180682631Y-127701479D02*
X179920727Y-127701479D01*
X180396917Y-126951479D02*
X180396917Y-128880051D01*
X180396917Y-128880051D02*
X180301679Y-129094337D01*
X180301679Y-129094337D02*
X180111203Y-129201479D01*
X180111203Y-129201479D02*
X179920727Y-129201479D01*
X179539774Y-127701479D02*
X178777870Y-127701479D01*
X179254060Y-126951479D02*
X179254060Y-128880051D01*
X179254060Y-128880051D02*
X179158822Y-129094337D01*
X179158822Y-129094337D02*
X178968346Y-129201479D01*
X178968346Y-129201479D02*
X178777870Y-129201479D01*
X178111203Y-127701479D02*
X178111203Y-129951479D01*
X178111203Y-127808622D02*
X177920727Y-127701479D01*
X177920727Y-127701479D02*
X177539774Y-127701479D01*
X177539774Y-127701479D02*
X177349298Y-127808622D01*
X177349298Y-127808622D02*
X177254060Y-127915765D01*
X177254060Y-127915765D02*
X177158822Y-128130051D01*
X177158822Y-128130051D02*
X177158822Y-128772908D01*
X177158822Y-128772908D02*
X177254060Y-128987194D01*
X177254060Y-128987194D02*
X177349298Y-129094337D01*
X177349298Y-129094337D02*
X177539774Y-129201479D01*
X177539774Y-129201479D02*
X177920727Y-129201479D01*
X177920727Y-129201479D02*
X178111203Y-129094337D01*
X176396917Y-129094337D02*
X176206441Y-129201479D01*
X176206441Y-129201479D02*
X175825489Y-129201479D01*
X175825489Y-129201479D02*
X175635012Y-129094337D01*
X175635012Y-129094337D02*
X175539774Y-128880051D01*
X175539774Y-128880051D02*
X175539774Y-128772908D01*
X175539774Y-128772908D02*
X175635012Y-128558622D01*
X175635012Y-128558622D02*
X175825489Y-128451479D01*
X175825489Y-128451479D02*
X176111203Y-128451479D01*
X176111203Y-128451479D02*
X176301679Y-128344337D01*
X176301679Y-128344337D02*
X176396917Y-128130051D01*
X176396917Y-128130051D02*
X176396917Y-128022908D01*
X176396917Y-128022908D02*
X176301679Y-127808622D01*
X176301679Y-127808622D02*
X176111203Y-127701479D01*
X176111203Y-127701479D02*
X175825489Y-127701479D01*
X175825489Y-127701479D02*
X175635012Y-127808622D01*
X174682631Y-128987194D02*
X174587393Y-129094337D01*
X174587393Y-129094337D02*
X174682631Y-129201479D01*
X174682631Y-129201479D02*
X174777869Y-129094337D01*
X174777869Y-129094337D02*
X174682631Y-128987194D01*
X174682631Y-128987194D02*
X174682631Y-129201479D01*
X174682631Y-127808622D02*
X174587393Y-127915765D01*
X174587393Y-127915765D02*
X174682631Y-128022908D01*
X174682631Y-128022908D02*
X174777869Y-127915765D01*
X174777869Y-127915765D02*
X174682631Y-127808622D01*
X174682631Y-127808622D02*
X174682631Y-128022908D01*
X172301679Y-126844337D02*
X174015964Y-129737194D01*
X170206441Y-126844337D02*
X171920726Y-129737194D01*
X168682631Y-127701479D02*
X168682631Y-129522908D01*
X168682631Y-129522908D02*
X168777869Y-129737194D01*
X168777869Y-129737194D02*
X168873107Y-129844337D01*
X168873107Y-129844337D02*
X169063584Y-129951479D01*
X169063584Y-129951479D02*
X169349298Y-129951479D01*
X169349298Y-129951479D02*
X169539774Y-129844337D01*
X168682631Y-129094337D02*
X168873107Y-129201479D01*
X168873107Y-129201479D02*
X169254060Y-129201479D01*
X169254060Y-129201479D02*
X169444536Y-129094337D01*
X169444536Y-129094337D02*
X169539774Y-128987194D01*
X169539774Y-128987194D02*
X169635012Y-128772908D01*
X169635012Y-128772908D02*
X169635012Y-128130051D01*
X169635012Y-128130051D02*
X169539774Y-127915765D01*
X169539774Y-127915765D02*
X169444536Y-127808622D01*
X169444536Y-127808622D02*
X169254060Y-127701479D01*
X169254060Y-127701479D02*
X168873107Y-127701479D01*
X168873107Y-127701479D02*
X168682631Y-127808622D01*
X167730250Y-129201479D02*
X167730250Y-127701479D01*
X167730250Y-126951479D02*
X167825488Y-127058622D01*
X167825488Y-127058622D02*
X167730250Y-127165765D01*
X167730250Y-127165765D02*
X167635012Y-127058622D01*
X167635012Y-127058622D02*
X167730250Y-126951479D01*
X167730250Y-126951479D02*
X167730250Y-127165765D01*
X167063583Y-127701479D02*
X166301679Y-127701479D01*
X166777869Y-126951479D02*
X166777869Y-128880051D01*
X166777869Y-128880051D02*
X166682631Y-129094337D01*
X166682631Y-129094337D02*
X166492155Y-129201479D01*
X166492155Y-129201479D02*
X166301679Y-129201479D01*
X165635012Y-129201479D02*
X165635012Y-126951479D01*
X164777869Y-129201479D02*
X164777869Y-128022908D01*
X164777869Y-128022908D02*
X164873107Y-127808622D01*
X164873107Y-127808622D02*
X165063583Y-127701479D01*
X165063583Y-127701479D02*
X165349298Y-127701479D01*
X165349298Y-127701479D02*
X165539774Y-127808622D01*
X165539774Y-127808622D02*
X165635012Y-127915765D01*
X162968345Y-127701479D02*
X162968345Y-129201479D01*
X163825488Y-127701479D02*
X163825488Y-128880051D01*
X163825488Y-128880051D02*
X163730250Y-129094337D01*
X163730250Y-129094337D02*
X163539774Y-129201479D01*
X163539774Y-129201479D02*
X163254059Y-129201479D01*
X163254059Y-129201479D02*
X163063583Y-129094337D01*
X163063583Y-129094337D02*
X162968345Y-128987194D01*
X162015964Y-129201479D02*
X162015964Y-126951479D01*
X162015964Y-127808622D02*
X161825488Y-127701479D01*
X161825488Y-127701479D02*
X161444535Y-127701479D01*
X161444535Y-127701479D02*
X161254059Y-127808622D01*
X161254059Y-127808622D02*
X161158821Y-127915765D01*
X161158821Y-127915765D02*
X161063583Y-128130051D01*
X161063583Y-128130051D02*
X161063583Y-128772908D01*
X161063583Y-128772908D02*
X161158821Y-128987194D01*
X161158821Y-128987194D02*
X161254059Y-129094337D01*
X161254059Y-129094337D02*
X161444535Y-129201479D01*
X161444535Y-129201479D02*
X161825488Y-129201479D01*
X161825488Y-129201479D02*
X162015964Y-129094337D01*
X160206440Y-128987194D02*
X160111202Y-129094337D01*
X160111202Y-129094337D02*
X160206440Y-129201479D01*
X160206440Y-129201479D02*
X160301678Y-129094337D01*
X160301678Y-129094337D02*
X160206440Y-128987194D01*
X160206440Y-128987194D02*
X160206440Y-129201479D01*
X158396916Y-129094337D02*
X158587392Y-129201479D01*
X158587392Y-129201479D02*
X158968345Y-129201479D01*
X158968345Y-129201479D02*
X159158821Y-129094337D01*
X159158821Y-129094337D02*
X159254059Y-128987194D01*
X159254059Y-128987194D02*
X159349297Y-128772908D01*
X159349297Y-128772908D02*
X159349297Y-128130051D01*
X159349297Y-128130051D02*
X159254059Y-127915765D01*
X159254059Y-127915765D02*
X159158821Y-127808622D01*
X159158821Y-127808622D02*
X158968345Y-127701479D01*
X158968345Y-127701479D02*
X158587392Y-127701479D01*
X158587392Y-127701479D02*
X158396916Y-127808622D01*
X157254059Y-129201479D02*
X157444535Y-129094337D01*
X157444535Y-129094337D02*
X157539773Y-128987194D01*
X157539773Y-128987194D02*
X157635011Y-128772908D01*
X157635011Y-128772908D02*
X157635011Y-128130051D01*
X157635011Y-128130051D02*
X157539773Y-127915765D01*
X157539773Y-127915765D02*
X157444535Y-127808622D01*
X157444535Y-127808622D02*
X157254059Y-127701479D01*
X157254059Y-127701479D02*
X156968344Y-127701479D01*
X156968344Y-127701479D02*
X156777868Y-127808622D01*
X156777868Y-127808622D02*
X156682630Y-127915765D01*
X156682630Y-127915765D02*
X156587392Y-128130051D01*
X156587392Y-128130051D02*
X156587392Y-128772908D01*
X156587392Y-128772908D02*
X156682630Y-128987194D01*
X156682630Y-128987194D02*
X156777868Y-129094337D01*
X156777868Y-129094337D02*
X156968344Y-129201479D01*
X156968344Y-129201479D02*
X157254059Y-129201479D01*
X155730249Y-129201479D02*
X155730249Y-127701479D01*
X155730249Y-127915765D02*
X155635011Y-127808622D01*
X155635011Y-127808622D02*
X155444535Y-127701479D01*
X155444535Y-127701479D02*
X155158820Y-127701479D01*
X155158820Y-127701479D02*
X154968344Y-127808622D01*
X154968344Y-127808622D02*
X154873106Y-128022908D01*
X154873106Y-128022908D02*
X154873106Y-129201479D01*
X154873106Y-128022908D02*
X154777868Y-127808622D01*
X154777868Y-127808622D02*
X154587392Y-127701479D01*
X154587392Y-127701479D02*
X154301678Y-127701479D01*
X154301678Y-127701479D02*
X154111201Y-127808622D01*
X154111201Y-127808622D02*
X154015963Y-128022908D01*
X154015963Y-128022908D02*
X154015963Y-129201479D01*
X151635011Y-126844337D02*
X153349296Y-129737194D01*
X150111201Y-129201479D02*
X150111201Y-128022908D01*
X150111201Y-128022908D02*
X150206439Y-127808622D01*
X150206439Y-127808622D02*
X150396915Y-127701479D01*
X150396915Y-127701479D02*
X150777868Y-127701479D01*
X150777868Y-127701479D02*
X150968344Y-127808622D01*
X150111201Y-129094337D02*
X150301677Y-129201479D01*
X150301677Y-129201479D02*
X150777868Y-129201479D01*
X150777868Y-129201479D02*
X150968344Y-129094337D01*
X150968344Y-129094337D02*
X151063582Y-128880051D01*
X151063582Y-128880051D02*
X151063582Y-128665765D01*
X151063582Y-128665765D02*
X150968344Y-128451479D01*
X150968344Y-128451479D02*
X150777868Y-128344337D01*
X150777868Y-128344337D02*
X150301677Y-128344337D01*
X150301677Y-128344337D02*
X150111201Y-128237194D01*
X148873106Y-129201479D02*
X149063582Y-129094337D01*
X149063582Y-129094337D02*
X149158820Y-128880051D01*
X149158820Y-128880051D02*
X149158820Y-126951479D01*
X148301677Y-127701479D02*
X147825487Y-129201479D01*
X147825487Y-129201479D02*
X147349296Y-127701479D01*
X145730248Y-129201479D02*
X145730248Y-128022908D01*
X145730248Y-128022908D02*
X145825486Y-127808622D01*
X145825486Y-127808622D02*
X146015962Y-127701479D01*
X146015962Y-127701479D02*
X146396915Y-127701479D01*
X146396915Y-127701479D02*
X146587391Y-127808622D01*
X145730248Y-129094337D02*
X145920724Y-129201479D01*
X145920724Y-129201479D02*
X146396915Y-129201479D01*
X146396915Y-129201479D02*
X146587391Y-129094337D01*
X146587391Y-129094337D02*
X146682629Y-128880051D01*
X146682629Y-128880051D02*
X146682629Y-128665765D01*
X146682629Y-128665765D02*
X146587391Y-128451479D01*
X146587391Y-128451479D02*
X146396915Y-128344337D01*
X146396915Y-128344337D02*
X145920724Y-128344337D01*
X145920724Y-128344337D02*
X145730248Y-128237194D01*
X144777867Y-129201479D02*
X144777867Y-127701479D01*
X144777867Y-128130051D02*
X144682629Y-127915765D01*
X144682629Y-127915765D02*
X144587391Y-127808622D01*
X144587391Y-127808622D02*
X144396915Y-127701479D01*
X144396915Y-127701479D02*
X144206438Y-127701479D01*
X143254058Y-129201479D02*
X143444534Y-129094337D01*
X143444534Y-129094337D02*
X143539772Y-128987194D01*
X143539772Y-128987194D02*
X143635010Y-128772908D01*
X143635010Y-128772908D02*
X143635010Y-128130051D01*
X143635010Y-128130051D02*
X143539772Y-127915765D01*
X143539772Y-127915765D02*
X143444534Y-127808622D01*
X143444534Y-127808622D02*
X143254058Y-127701479D01*
X143254058Y-127701479D02*
X142968343Y-127701479D01*
X142968343Y-127701479D02*
X142777867Y-127808622D01*
X142777867Y-127808622D02*
X142682629Y-127915765D01*
X142682629Y-127915765D02*
X142587391Y-128130051D01*
X142587391Y-128130051D02*
X142587391Y-128772908D01*
X142587391Y-128772908D02*
X142682629Y-128987194D01*
X142682629Y-128987194D02*
X142777867Y-129094337D01*
X142777867Y-129094337D02*
X142968343Y-129201479D01*
X142968343Y-129201479D02*
X143254058Y-129201479D01*
X140873105Y-129201479D02*
X140873105Y-128022908D01*
X140873105Y-128022908D02*
X140968343Y-127808622D01*
X140968343Y-127808622D02*
X141158819Y-127701479D01*
X141158819Y-127701479D02*
X141539772Y-127701479D01*
X141539772Y-127701479D02*
X141730248Y-127808622D01*
X140873105Y-129094337D02*
X141063581Y-129201479D01*
X141063581Y-129201479D02*
X141539772Y-129201479D01*
X141539772Y-129201479D02*
X141730248Y-129094337D01*
X141730248Y-129094337D02*
X141825486Y-128880051D01*
X141825486Y-128880051D02*
X141825486Y-128665765D01*
X141825486Y-128665765D02*
X141730248Y-128451479D01*
X141730248Y-128451479D02*
X141539772Y-128344337D01*
X141539772Y-128344337D02*
X141063581Y-128344337D01*
X141063581Y-128344337D02*
X140873105Y-128237194D01*
X139635010Y-129201479D02*
X139825486Y-129094337D01*
X139825486Y-129094337D02*
X139920724Y-128880051D01*
X139920724Y-128880051D02*
X139920724Y-126951479D01*
X138111200Y-129094337D02*
X138301676Y-129201479D01*
X138301676Y-129201479D02*
X138682629Y-129201479D01*
X138682629Y-129201479D02*
X138873105Y-129094337D01*
X138873105Y-129094337D02*
X138968343Y-128880051D01*
X138968343Y-128880051D02*
X138968343Y-128022908D01*
X138968343Y-128022908D02*
X138873105Y-127808622D01*
X138873105Y-127808622D02*
X138682629Y-127701479D01*
X138682629Y-127701479D02*
X138301676Y-127701479D01*
X138301676Y-127701479D02*
X138111200Y-127808622D01*
X138111200Y-127808622D02*
X138015962Y-128022908D01*
X138015962Y-128022908D02*
X138015962Y-128237194D01*
X138015962Y-128237194D02*
X138968343Y-128451479D01*
X136301676Y-129201479D02*
X136301676Y-128022908D01*
X136301676Y-128022908D02*
X136396914Y-127808622D01*
X136396914Y-127808622D02*
X136587390Y-127701479D01*
X136587390Y-127701479D02*
X136968343Y-127701479D01*
X136968343Y-127701479D02*
X137158819Y-127808622D01*
X136301676Y-129094337D02*
X136492152Y-129201479D01*
X136492152Y-129201479D02*
X136968343Y-129201479D01*
X136968343Y-129201479D02*
X137158819Y-129094337D01*
X137158819Y-129094337D02*
X137254057Y-128880051D01*
X137254057Y-128880051D02*
X137254057Y-128665765D01*
X137254057Y-128665765D02*
X137158819Y-128451479D01*
X137158819Y-128451479D02*
X136968343Y-128344337D01*
X136968343Y-128344337D02*
X136492152Y-128344337D01*
X136492152Y-128344337D02*
X136301676Y-128237194D01*
X133920724Y-126844337D02*
X135635009Y-129737194D01*
X131920724Y-129415765D02*
X132111200Y-129308622D01*
X132111200Y-129308622D02*
X132301676Y-129094337D01*
X132301676Y-129094337D02*
X132587390Y-128772908D01*
X132587390Y-128772908D02*
X132777867Y-128665765D01*
X132777867Y-128665765D02*
X132968343Y-128665765D01*
X132873105Y-129201479D02*
X133063581Y-129094337D01*
X133063581Y-129094337D02*
X133254057Y-128880051D01*
X133254057Y-128880051D02*
X133349295Y-128451479D01*
X133349295Y-128451479D02*
X133349295Y-127701479D01*
X133349295Y-127701479D02*
X133254057Y-127272908D01*
X133254057Y-127272908D02*
X133063581Y-127058622D01*
X133063581Y-127058622D02*
X132873105Y-126951479D01*
X132873105Y-126951479D02*
X132492152Y-126951479D01*
X132492152Y-126951479D02*
X132301676Y-127058622D01*
X132301676Y-127058622D02*
X132111200Y-127272908D01*
X132111200Y-127272908D02*
X132015962Y-127701479D01*
X132015962Y-127701479D02*
X132015962Y-128451479D01*
X132015962Y-128451479D02*
X132111200Y-128880051D01*
X132111200Y-128880051D02*
X132301676Y-129094337D01*
X132301676Y-129094337D02*
X132492152Y-129201479D01*
X132492152Y-129201479D02*
X132873105Y-129201479D01*
X130206438Y-129201479D02*
X131158819Y-129201479D01*
X131158819Y-129201479D02*
X131158819Y-126951479D01*
X130015962Y-129415765D02*
X128492152Y-129415765D01*
X126682628Y-129415765D02*
X126873104Y-129308622D01*
X126873104Y-129308622D02*
X127063580Y-129094337D01*
X127063580Y-129094337D02*
X127349294Y-128772908D01*
X127349294Y-128772908D02*
X127539771Y-128665765D01*
X127539771Y-128665765D02*
X127730247Y-128665765D01*
X127635009Y-129201479D02*
X127825485Y-129094337D01*
X127825485Y-129094337D02*
X128015961Y-128880051D01*
X128015961Y-128880051D02*
X128111199Y-128451479D01*
X128111199Y-128451479D02*
X128111199Y-127701479D01*
X128111199Y-127701479D02*
X128015961Y-127272908D01*
X128015961Y-127272908D02*
X127825485Y-127058622D01*
X127825485Y-127058622D02*
X127635009Y-126951479D01*
X127635009Y-126951479D02*
X127254056Y-126951479D01*
X127254056Y-126951479D02*
X127063580Y-127058622D01*
X127063580Y-127058622D02*
X126873104Y-127272908D01*
X126873104Y-127272908D02*
X126777866Y-127701479D01*
X126777866Y-127701479D02*
X126777866Y-128451479D01*
X126777866Y-128451479D02*
X126873104Y-128880051D01*
X126873104Y-128880051D02*
X127063580Y-129094337D01*
X127063580Y-129094337D02*
X127254056Y-129201479D01*
X127254056Y-129201479D02*
X127635009Y-129201479D01*
X126015961Y-129094337D02*
X125825485Y-129201479D01*
X125825485Y-129201479D02*
X125444533Y-129201479D01*
X125444533Y-129201479D02*
X125254056Y-129094337D01*
X125254056Y-129094337D02*
X125158818Y-128880051D01*
X125158818Y-128880051D02*
X125158818Y-128772908D01*
X125158818Y-128772908D02*
X125254056Y-128558622D01*
X125254056Y-128558622D02*
X125444533Y-128451479D01*
X125444533Y-128451479D02*
X125730247Y-128451479D01*
X125730247Y-128451479D02*
X125920723Y-128344337D01*
X125920723Y-128344337D02*
X126015961Y-128130051D01*
X126015961Y-128130051D02*
X126015961Y-128022908D01*
X126015961Y-128022908D02*
X125920723Y-127808622D01*
X125920723Y-127808622D02*
X125730247Y-127701479D01*
X125730247Y-127701479D02*
X125444533Y-127701479D01*
X125444533Y-127701479D02*
X125254056Y-127808622D01*
X124015961Y-129201479D02*
X124206437Y-129094337D01*
X124206437Y-129094337D02*
X124301675Y-128987194D01*
X124301675Y-128987194D02*
X124396913Y-128772908D01*
X124396913Y-128772908D02*
X124396913Y-128130051D01*
X124396913Y-128130051D02*
X124301675Y-127915765D01*
X124301675Y-127915765D02*
X124206437Y-127808622D01*
X124206437Y-127808622D02*
X124015961Y-127701479D01*
X124015961Y-127701479D02*
X123730246Y-127701479D01*
X123730246Y-127701479D02*
X123539770Y-127808622D01*
X123539770Y-127808622D02*
X123444532Y-127915765D01*
X123444532Y-127915765D02*
X123349294Y-128130051D01*
X123349294Y-128130051D02*
X123349294Y-128772908D01*
X123349294Y-128772908D02*
X123444532Y-128987194D01*
X123444532Y-128987194D02*
X123539770Y-129094337D01*
X123539770Y-129094337D02*
X123730246Y-129201479D01*
X123730246Y-129201479D02*
X124015961Y-129201479D01*
X121635008Y-127701479D02*
X121635008Y-129201479D01*
X122492151Y-127701479D02*
X122492151Y-128880051D01*
X122492151Y-128880051D02*
X122396913Y-129094337D01*
X122396913Y-129094337D02*
X122206437Y-129201479D01*
X122206437Y-129201479D02*
X121920722Y-129201479D01*
X121920722Y-129201479D02*
X121730246Y-129094337D01*
X121730246Y-129094337D02*
X121635008Y-128987194D01*
X120682627Y-127701479D02*
X120682627Y-129201479D01*
X120682627Y-127915765D02*
X120587389Y-127808622D01*
X120587389Y-127808622D02*
X120396913Y-127701479D01*
X120396913Y-127701479D02*
X120111198Y-127701479D01*
X120111198Y-127701479D02*
X119920722Y-127808622D01*
X119920722Y-127808622D02*
X119825484Y-128022908D01*
X119825484Y-128022908D02*
X119825484Y-129201479D01*
X118015960Y-129201479D02*
X118015960Y-126951479D01*
X118015960Y-129094337D02*
X118206436Y-129201479D01*
X118206436Y-129201479D02*
X118587389Y-129201479D01*
X118587389Y-129201479D02*
X118777865Y-129094337D01*
X118777865Y-129094337D02*
X118873103Y-128987194D01*
X118873103Y-128987194D02*
X118968341Y-128772908D01*
X118968341Y-128772908D02*
X118968341Y-128130051D01*
X118968341Y-128130051D02*
X118873103Y-127915765D01*
X118873103Y-127915765D02*
X118777865Y-127808622D01*
X118777865Y-127808622D02*
X118587389Y-127701479D01*
X118587389Y-127701479D02*
X118206436Y-127701479D01*
X118206436Y-127701479D02*
X118015960Y-127808622D01*
X117158817Y-127165765D02*
X117063579Y-127058622D01*
X117063579Y-127058622D02*
X116873103Y-126951479D01*
X116873103Y-126951479D02*
X116396912Y-126951479D01*
X116396912Y-126951479D02*
X116206436Y-127058622D01*
X116206436Y-127058622D02*
X116111198Y-127165765D01*
X116111198Y-127165765D02*
X116015960Y-127380051D01*
X116015960Y-127380051D02*
X116015960Y-127594337D01*
X116015960Y-127594337D02*
X116111198Y-127915765D01*
X116111198Y-127915765D02*
X117254055Y-129201479D01*
X117254055Y-129201479D02*
X116015960Y-129201479D01*
X166299774Y-103445534D02*
X166014060Y-103552677D01*
X166014060Y-103552677D02*
X165918822Y-103659820D01*
X165918822Y-103659820D02*
X165823584Y-103874105D01*
X165823584Y-103874105D02*
X165823584Y-104195534D01*
X165823584Y-104195534D02*
X165918822Y-104409820D01*
X165918822Y-104409820D02*
X166014060Y-104516963D01*
X166014060Y-104516963D02*
X166204536Y-104624105D01*
X166204536Y-104624105D02*
X166966441Y-104624105D01*
X166966441Y-104624105D02*
X166966441Y-102374105D01*
X166966441Y-102374105D02*
X166299774Y-102374105D01*
X166299774Y-102374105D02*
X166109298Y-102481248D01*
X166109298Y-102481248D02*
X166014060Y-102588391D01*
X166014060Y-102588391D02*
X165918822Y-102802677D01*
X165918822Y-102802677D02*
X165918822Y-103016963D01*
X165918822Y-103016963D02*
X166014060Y-103231248D01*
X166014060Y-103231248D02*
X166109298Y-103338391D01*
X166109298Y-103338391D02*
X166299774Y-103445534D01*
X166299774Y-103445534D02*
X166966441Y-103445534D01*
X164109298Y-104624105D02*
X164109298Y-103445534D01*
X164109298Y-103445534D02*
X164204536Y-103231248D01*
X164204536Y-103231248D02*
X164395012Y-103124105D01*
X164395012Y-103124105D02*
X164775965Y-103124105D01*
X164775965Y-103124105D02*
X164966441Y-103231248D01*
X164109298Y-104516963D02*
X164299774Y-104624105D01*
X164299774Y-104624105D02*
X164775965Y-104624105D01*
X164775965Y-104624105D02*
X164966441Y-104516963D01*
X164966441Y-104516963D02*
X165061679Y-104302677D01*
X165061679Y-104302677D02*
X165061679Y-104088391D01*
X165061679Y-104088391D02*
X164966441Y-103874105D01*
X164966441Y-103874105D02*
X164775965Y-103766963D01*
X164775965Y-103766963D02*
X164299774Y-103766963D01*
X164299774Y-103766963D02*
X164109298Y-103659820D01*
X163252155Y-104516963D02*
X163061679Y-104624105D01*
X163061679Y-104624105D02*
X162680727Y-104624105D01*
X162680727Y-104624105D02*
X162490250Y-104516963D01*
X162490250Y-104516963D02*
X162395012Y-104302677D01*
X162395012Y-104302677D02*
X162395012Y-104195534D01*
X162395012Y-104195534D02*
X162490250Y-103981248D01*
X162490250Y-103981248D02*
X162680727Y-103874105D01*
X162680727Y-103874105D02*
X162966441Y-103874105D01*
X162966441Y-103874105D02*
X163156917Y-103766963D01*
X163156917Y-103766963D02*
X163252155Y-103552677D01*
X163252155Y-103552677D02*
X163252155Y-103445534D01*
X163252155Y-103445534D02*
X163156917Y-103231248D01*
X163156917Y-103231248D02*
X162966441Y-103124105D01*
X162966441Y-103124105D02*
X162680727Y-103124105D01*
X162680727Y-103124105D02*
X162490250Y-103231248D01*
X160775964Y-104516963D02*
X160966440Y-104624105D01*
X160966440Y-104624105D02*
X161347393Y-104624105D01*
X161347393Y-104624105D02*
X161537869Y-104516963D01*
X161537869Y-104516963D02*
X161633107Y-104302677D01*
X161633107Y-104302677D02*
X161633107Y-103445534D01*
X161633107Y-103445534D02*
X161537869Y-103231248D01*
X161537869Y-103231248D02*
X161347393Y-103124105D01*
X161347393Y-103124105D02*
X160966440Y-103124105D01*
X160966440Y-103124105D02*
X160775964Y-103231248D01*
X160775964Y-103231248D02*
X160680726Y-103445534D01*
X160680726Y-103445534D02*
X160680726Y-103659820D01*
X160680726Y-103659820D02*
X161633107Y-103874105D01*
X158966440Y-104624105D02*
X158966440Y-102374105D01*
X158966440Y-104516963D02*
X159156916Y-104624105D01*
X159156916Y-104624105D02*
X159537869Y-104624105D01*
X159537869Y-104624105D02*
X159728345Y-104516963D01*
X159728345Y-104516963D02*
X159823583Y-104409820D01*
X159823583Y-104409820D02*
X159918821Y-104195534D01*
X159918821Y-104195534D02*
X159918821Y-103552677D01*
X159918821Y-103552677D02*
X159823583Y-103338391D01*
X159823583Y-103338391D02*
X159728345Y-103231248D01*
X159728345Y-103231248D02*
X159537869Y-103124105D01*
X159537869Y-103124105D02*
X159156916Y-103124105D01*
X159156916Y-103124105D02*
X158966440Y-103231248D01*
X156204535Y-104624105D02*
X156395011Y-104516963D01*
X156395011Y-104516963D02*
X156490249Y-104409820D01*
X156490249Y-104409820D02*
X156585487Y-104195534D01*
X156585487Y-104195534D02*
X156585487Y-103552677D01*
X156585487Y-103552677D02*
X156490249Y-103338391D01*
X156490249Y-103338391D02*
X156395011Y-103231248D01*
X156395011Y-103231248D02*
X156204535Y-103124105D01*
X156204535Y-103124105D02*
X155918820Y-103124105D01*
X155918820Y-103124105D02*
X155728344Y-103231248D01*
X155728344Y-103231248D02*
X155633106Y-103338391D01*
X155633106Y-103338391D02*
X155537868Y-103552677D01*
X155537868Y-103552677D02*
X155537868Y-104195534D01*
X155537868Y-104195534D02*
X155633106Y-104409820D01*
X155633106Y-104409820D02*
X155728344Y-104516963D01*
X155728344Y-104516963D02*
X155918820Y-104624105D01*
X155918820Y-104624105D02*
X156204535Y-104624105D01*
X154680725Y-103124105D02*
X154680725Y-104624105D01*
X154680725Y-103338391D02*
X154585487Y-103231248D01*
X154585487Y-103231248D02*
X154395011Y-103124105D01*
X154395011Y-103124105D02*
X154109296Y-103124105D01*
X154109296Y-103124105D02*
X153918820Y-103231248D01*
X153918820Y-103231248D02*
X153823582Y-103445534D01*
X153823582Y-103445534D02*
X153823582Y-104624105D01*
X151633105Y-103124105D02*
X150871201Y-103124105D01*
X151347391Y-102374105D02*
X151347391Y-104302677D01*
X151347391Y-104302677D02*
X151252153Y-104516963D01*
X151252153Y-104516963D02*
X151061677Y-104624105D01*
X151061677Y-104624105D02*
X150871201Y-104624105D01*
X150204534Y-104624105D02*
X150204534Y-102374105D01*
X149347391Y-104624105D02*
X149347391Y-103445534D01*
X149347391Y-103445534D02*
X149442629Y-103231248D01*
X149442629Y-103231248D02*
X149633105Y-103124105D01*
X149633105Y-103124105D02*
X149918820Y-103124105D01*
X149918820Y-103124105D02*
X150109296Y-103231248D01*
X150109296Y-103231248D02*
X150204534Y-103338391D01*
X147633105Y-104516963D02*
X147823581Y-104624105D01*
X147823581Y-104624105D02*
X148204534Y-104624105D01*
X148204534Y-104624105D02*
X148395010Y-104516963D01*
X148395010Y-104516963D02*
X148490248Y-104302677D01*
X148490248Y-104302677D02*
X148490248Y-103445534D01*
X148490248Y-103445534D02*
X148395010Y-103231248D01*
X148395010Y-103231248D02*
X148204534Y-103124105D01*
X148204534Y-103124105D02*
X147823581Y-103124105D01*
X147823581Y-103124105D02*
X147633105Y-103231248D01*
X147633105Y-103231248D02*
X147537867Y-103445534D01*
X147537867Y-103445534D02*
X147537867Y-103659820D01*
X147537867Y-103659820D02*
X148490248Y-103874105D01*
X145347390Y-103124105D02*
X144966438Y-104624105D01*
X144966438Y-104624105D02*
X144585485Y-103552677D01*
X144585485Y-103552677D02*
X144204533Y-104624105D01*
X144204533Y-104624105D02*
X143823581Y-103124105D01*
X142775962Y-104624105D02*
X142966438Y-104516963D01*
X142966438Y-104516963D02*
X143061676Y-104409820D01*
X143061676Y-104409820D02*
X143156914Y-104195534D01*
X143156914Y-104195534D02*
X143156914Y-103552677D01*
X143156914Y-103552677D02*
X143061676Y-103338391D01*
X143061676Y-103338391D02*
X142966438Y-103231248D01*
X142966438Y-103231248D02*
X142775962Y-103124105D01*
X142775962Y-103124105D02*
X142490247Y-103124105D01*
X142490247Y-103124105D02*
X142299771Y-103231248D01*
X142299771Y-103231248D02*
X142204533Y-103338391D01*
X142204533Y-103338391D02*
X142109295Y-103552677D01*
X142109295Y-103552677D02*
X142109295Y-104195534D01*
X142109295Y-104195534D02*
X142204533Y-104409820D01*
X142204533Y-104409820D02*
X142299771Y-104516963D01*
X142299771Y-104516963D02*
X142490247Y-104624105D01*
X142490247Y-104624105D02*
X142775962Y-104624105D01*
X141252152Y-104624105D02*
X141252152Y-103124105D01*
X141252152Y-103552677D02*
X141156914Y-103338391D01*
X141156914Y-103338391D02*
X141061676Y-103231248D01*
X141061676Y-103231248D02*
X140871200Y-103124105D01*
X140871200Y-103124105D02*
X140680723Y-103124105D01*
X140014057Y-104624105D02*
X140014057Y-102374105D01*
X139823581Y-103766963D02*
X139252152Y-104624105D01*
X139252152Y-103124105D02*
X140014057Y-103981248D01*
X136585485Y-104624105D02*
X136775961Y-104516963D01*
X136775961Y-104516963D02*
X136871199Y-104409820D01*
X136871199Y-104409820D02*
X136966437Y-104195534D01*
X136966437Y-104195534D02*
X136966437Y-103552677D01*
X136966437Y-103552677D02*
X136871199Y-103338391D01*
X136871199Y-103338391D02*
X136775961Y-103231248D01*
X136775961Y-103231248D02*
X136585485Y-103124105D01*
X136585485Y-103124105D02*
X136299770Y-103124105D01*
X136299770Y-103124105D02*
X136109294Y-103231248D01*
X136109294Y-103231248D02*
X136014056Y-103338391D01*
X136014056Y-103338391D02*
X135918818Y-103552677D01*
X135918818Y-103552677D02*
X135918818Y-104195534D01*
X135918818Y-104195534D02*
X136014056Y-104409820D01*
X136014056Y-104409820D02*
X136109294Y-104516963D01*
X136109294Y-104516963D02*
X136299770Y-104624105D01*
X136299770Y-104624105D02*
X136585485Y-104624105D01*
X135347389Y-103124105D02*
X134585485Y-103124105D01*
X135061675Y-104624105D02*
X135061675Y-102695534D01*
X135061675Y-102695534D02*
X134966437Y-102481248D01*
X134966437Y-102481248D02*
X134775961Y-102374105D01*
X134775961Y-102374105D02*
X134585485Y-102374105D01*
X133918818Y-104409820D02*
X133823580Y-104516963D01*
X133823580Y-104516963D02*
X133918818Y-104624105D01*
X133918818Y-104624105D02*
X134014056Y-104516963D01*
X134014056Y-104516963D02*
X133918818Y-104409820D01*
X133918818Y-104409820D02*
X133918818Y-104624105D01*
X133918818Y-103231248D02*
X133823580Y-103338391D01*
X133823580Y-103338391D02*
X133918818Y-103445534D01*
X133918818Y-103445534D02*
X134014056Y-103338391D01*
X134014056Y-103338391D02*
X133918818Y-103231248D01*
X133918818Y-103231248D02*
X133918818Y-103445534D01*
X166966441Y-108246479D02*
X166966441Y-105996479D01*
X166966441Y-105996479D02*
X166299774Y-107603622D01*
X166299774Y-107603622D02*
X165633108Y-105996479D01*
X165633108Y-105996479D02*
X165633108Y-108246479D01*
X164680727Y-108032194D02*
X164585489Y-108139337D01*
X164585489Y-108139337D02*
X164680727Y-108246479D01*
X164680727Y-108246479D02*
X164775965Y-108139337D01*
X164775965Y-108139337D02*
X164680727Y-108032194D01*
X164680727Y-108032194D02*
X164680727Y-108246479D01*
X162204536Y-108246479D02*
X162204536Y-105996479D01*
X161061679Y-108246479D02*
X161918822Y-106960765D01*
X161061679Y-105996479D02*
X162204536Y-107282194D01*
X160204536Y-108246479D02*
X160204536Y-106746479D01*
X160204536Y-105996479D02*
X160299774Y-106103622D01*
X160299774Y-106103622D02*
X160204536Y-106210765D01*
X160204536Y-106210765D02*
X160109298Y-106103622D01*
X160109298Y-106103622D02*
X160204536Y-105996479D01*
X160204536Y-105996479D02*
X160204536Y-106210765D01*
X158966441Y-108246479D02*
X159156917Y-108139337D01*
X159156917Y-108139337D02*
X159252155Y-107925051D01*
X159252155Y-107925051D02*
X159252155Y-105996479D01*
X157347393Y-106746479D02*
X157347393Y-108567908D01*
X157347393Y-108567908D02*
X157442631Y-108782194D01*
X157442631Y-108782194D02*
X157537869Y-108889337D01*
X157537869Y-108889337D02*
X157728346Y-108996479D01*
X157728346Y-108996479D02*
X158014060Y-108996479D01*
X158014060Y-108996479D02*
X158204536Y-108889337D01*
X157347393Y-108139337D02*
X157537869Y-108246479D01*
X157537869Y-108246479D02*
X157918822Y-108246479D01*
X157918822Y-108246479D02*
X158109298Y-108139337D01*
X158109298Y-108139337D02*
X158204536Y-108032194D01*
X158204536Y-108032194D02*
X158299774Y-107817908D01*
X158299774Y-107817908D02*
X158299774Y-107175051D01*
X158299774Y-107175051D02*
X158204536Y-106960765D01*
X158204536Y-106960765D02*
X158109298Y-106853622D01*
X158109298Y-106853622D02*
X157918822Y-106746479D01*
X157918822Y-106746479D02*
X157537869Y-106746479D01*
X157537869Y-106746479D02*
X157347393Y-106853622D01*
X155537869Y-106746479D02*
X155537869Y-108246479D01*
X156395012Y-106746479D02*
X156395012Y-107925051D01*
X156395012Y-107925051D02*
X156299774Y-108139337D01*
X156299774Y-108139337D02*
X156109298Y-108246479D01*
X156109298Y-108246479D02*
X155823583Y-108246479D01*
X155823583Y-108246479D02*
X155633107Y-108139337D01*
X155633107Y-108139337D02*
X155537869Y-108032194D01*
X154680726Y-108139337D02*
X154490250Y-108246479D01*
X154490250Y-108246479D02*
X154109298Y-108246479D01*
X154109298Y-108246479D02*
X153918821Y-108139337D01*
X153918821Y-108139337D02*
X153823583Y-107925051D01*
X153823583Y-107925051D02*
X153823583Y-107817908D01*
X153823583Y-107817908D02*
X153918821Y-107603622D01*
X153918821Y-107603622D02*
X154109298Y-107496479D01*
X154109298Y-107496479D02*
X154395012Y-107496479D01*
X154395012Y-107496479D02*
X154585488Y-107389337D01*
X154585488Y-107389337D02*
X154680726Y-107175051D01*
X154680726Y-107175051D02*
X154680726Y-107067908D01*
X154680726Y-107067908D02*
X154585488Y-106853622D01*
X154585488Y-106853622D02*
X154395012Y-106746479D01*
X154395012Y-106746479D02*
X154109298Y-106746479D01*
X154109298Y-106746479D02*
X153918821Y-106853622D01*
X152871202Y-108139337D02*
X152871202Y-108246479D01*
X152871202Y-108246479D02*
X152966440Y-108460765D01*
X152966440Y-108460765D02*
X153061678Y-108567908D01*
X149918820Y-105996479D02*
X149918820Y-107603622D01*
X149918820Y-107603622D02*
X150014059Y-107925051D01*
X150014059Y-107925051D02*
X150204535Y-108139337D01*
X150204535Y-108139337D02*
X150490249Y-108246479D01*
X150490249Y-108246479D02*
X150680725Y-108246479D01*
X148966439Y-108032194D02*
X148871201Y-108139337D01*
X148871201Y-108139337D02*
X148966439Y-108246479D01*
X148966439Y-108246479D02*
X149061677Y-108139337D01*
X149061677Y-108139337D02*
X148966439Y-108032194D01*
X148966439Y-108032194D02*
X148966439Y-108246479D01*
X148014058Y-108246479D02*
X148014058Y-105996479D01*
X148014058Y-105996479D02*
X147347391Y-107603622D01*
X147347391Y-107603622D02*
X146680725Y-105996479D01*
X146680725Y-105996479D02*
X146680725Y-108246479D01*
X144966439Y-108139337D02*
X145156915Y-108246479D01*
X145156915Y-108246479D02*
X145537868Y-108246479D01*
X145537868Y-108246479D02*
X145728344Y-108139337D01*
X145728344Y-108139337D02*
X145823582Y-107925051D01*
X145823582Y-107925051D02*
X145823582Y-107067908D01*
X145823582Y-107067908D02*
X145728344Y-106853622D01*
X145728344Y-106853622D02*
X145537868Y-106746479D01*
X145537868Y-106746479D02*
X145156915Y-106746479D01*
X145156915Y-106746479D02*
X144966439Y-106853622D01*
X144966439Y-106853622D02*
X144871201Y-107067908D01*
X144871201Y-107067908D02*
X144871201Y-107282194D01*
X144871201Y-107282194D02*
X145823582Y-107496479D01*
X144014058Y-108246479D02*
X144014058Y-106746479D01*
X144014058Y-107175051D02*
X143918820Y-106960765D01*
X143918820Y-106960765D02*
X143823582Y-106853622D01*
X143823582Y-106853622D02*
X143633106Y-106746479D01*
X143633106Y-106746479D02*
X143442629Y-106746479D01*
X142966439Y-106746479D02*
X141918820Y-106746479D01*
X141918820Y-106746479D02*
X142966439Y-108246479D01*
X142966439Y-108246479D02*
X141918820Y-108246479D01*
X141061677Y-108139337D02*
X141061677Y-108246479D01*
X141061677Y-108246479D02*
X141156915Y-108460765D01*
X141156915Y-108460765D02*
X141252153Y-108567908D01*
X138680724Y-105996479D02*
X138680724Y-107817908D01*
X138680724Y-107817908D02*
X138585486Y-108032194D01*
X138585486Y-108032194D02*
X138490248Y-108139337D01*
X138490248Y-108139337D02*
X138299772Y-108246479D01*
X138299772Y-108246479D02*
X137918819Y-108246479D01*
X137918819Y-108246479D02*
X137728343Y-108139337D01*
X137728343Y-108139337D02*
X137633105Y-108032194D01*
X137633105Y-108032194D02*
X137537867Y-107817908D01*
X137537867Y-107817908D02*
X137537867Y-105996479D01*
X136585486Y-108032194D02*
X136490248Y-108139337D01*
X136490248Y-108139337D02*
X136585486Y-108246479D01*
X136585486Y-108246479D02*
X136680724Y-108139337D01*
X136680724Y-108139337D02*
X136585486Y-108032194D01*
X136585486Y-108032194D02*
X136585486Y-108246479D01*
X134490248Y-108246479D02*
X135156915Y-107175051D01*
X135633105Y-108246479D02*
X135633105Y-105996479D01*
X135633105Y-105996479D02*
X134871200Y-105996479D01*
X134871200Y-105996479D02*
X134680724Y-106103622D01*
X134680724Y-106103622D02*
X134585486Y-106210765D01*
X134585486Y-106210765D02*
X134490248Y-106425051D01*
X134490248Y-106425051D02*
X134490248Y-106746479D01*
X134490248Y-106746479D02*
X134585486Y-106960765D01*
X134585486Y-106960765D02*
X134680724Y-107067908D01*
X134680724Y-107067908D02*
X134871200Y-107175051D01*
X134871200Y-107175051D02*
X135633105Y-107175051D01*
X132871200Y-108139337D02*
X133061676Y-108246479D01*
X133061676Y-108246479D02*
X133442629Y-108246479D01*
X133442629Y-108246479D02*
X133633105Y-108139337D01*
X133633105Y-108139337D02*
X133728343Y-107925051D01*
X133728343Y-107925051D02*
X133728343Y-107067908D01*
X133728343Y-107067908D02*
X133633105Y-106853622D01*
X133633105Y-106853622D02*
X133442629Y-106746479D01*
X133442629Y-106746479D02*
X133061676Y-106746479D01*
X133061676Y-106746479D02*
X132871200Y-106853622D01*
X132871200Y-106853622D02*
X132775962Y-107067908D01*
X132775962Y-107067908D02*
X132775962Y-107282194D01*
X132775962Y-107282194D02*
X133728343Y-107496479D01*
X131918819Y-108246479D02*
X131918819Y-106746479D01*
X131918819Y-105996479D02*
X132014057Y-106103622D01*
X132014057Y-106103622D02*
X131918819Y-106210765D01*
X131918819Y-106210765D02*
X131823581Y-106103622D01*
X131823581Y-106103622D02*
X131918819Y-105996479D01*
X131918819Y-105996479D02*
X131918819Y-106210765D01*
X130966438Y-106746479D02*
X130966438Y-108246479D01*
X130966438Y-106960765D02*
X130871200Y-106853622D01*
X130871200Y-106853622D02*
X130680724Y-106746479D01*
X130680724Y-106746479D02*
X130395009Y-106746479D01*
X130395009Y-106746479D02*
X130204533Y-106853622D01*
X130204533Y-106853622D02*
X130109295Y-107067908D01*
X130109295Y-107067908D02*
X130109295Y-108246479D01*
X129442628Y-106746479D02*
X128680724Y-106746479D01*
X129156914Y-105996479D02*
X129156914Y-107925051D01*
X129156914Y-107925051D02*
X129061676Y-108139337D01*
X129061676Y-108139337D02*
X128871200Y-108246479D01*
X128871200Y-108246479D02*
X128680724Y-108246479D01*
X128109295Y-108139337D02*
X127918819Y-108246479D01*
X127918819Y-108246479D02*
X127537867Y-108246479D01*
X127537867Y-108246479D02*
X127347390Y-108139337D01*
X127347390Y-108139337D02*
X127252152Y-107925051D01*
X127252152Y-107925051D02*
X127252152Y-107817908D01*
X127252152Y-107817908D02*
X127347390Y-107603622D01*
X127347390Y-107603622D02*
X127537867Y-107496479D01*
X127537867Y-107496479D02*
X127823581Y-107496479D01*
X127823581Y-107496479D02*
X128014057Y-107389337D01*
X128014057Y-107389337D02*
X128109295Y-107175051D01*
X128109295Y-107175051D02*
X128109295Y-107067908D01*
X128109295Y-107067908D02*
X128014057Y-106853622D01*
X128014057Y-106853622D02*
X127823581Y-106746479D01*
X127823581Y-106746479D02*
X127537867Y-106746479D01*
X127537867Y-106746479D02*
X127347390Y-106853622D01*
X125537866Y-108139337D02*
X125728342Y-108246479D01*
X125728342Y-108246479D02*
X126109295Y-108246479D01*
X126109295Y-108246479D02*
X126299771Y-108139337D01*
X126299771Y-108139337D02*
X126395009Y-108032194D01*
X126395009Y-108032194D02*
X126490247Y-107817908D01*
X126490247Y-107817908D02*
X126490247Y-107175051D01*
X126490247Y-107175051D02*
X126395009Y-106960765D01*
X126395009Y-106960765D02*
X126299771Y-106853622D01*
X126299771Y-106853622D02*
X126109295Y-106746479D01*
X126109295Y-106746479D02*
X125728342Y-106746479D01*
X125728342Y-106746479D02*
X125537866Y-106853622D01*
X124680723Y-108246479D02*
X124680723Y-105996479D01*
X123823580Y-108246479D02*
X123823580Y-107067908D01*
X123823580Y-107067908D02*
X123918818Y-106853622D01*
X123918818Y-106853622D02*
X124109294Y-106746479D01*
X124109294Y-106746479D02*
X124395009Y-106746479D01*
X124395009Y-106746479D02*
X124585485Y-106853622D01*
X124585485Y-106853622D02*
X124680723Y-106960765D01*
X166014060Y-84304105D02*
X166966441Y-84304105D01*
X166966441Y-84304105D02*
X166966441Y-82054105D01*
X165347393Y-84304105D02*
X165347393Y-82804105D01*
X165347393Y-82054105D02*
X165442631Y-82161248D01*
X165442631Y-82161248D02*
X165347393Y-82268391D01*
X165347393Y-82268391D02*
X165252155Y-82161248D01*
X165252155Y-82161248D02*
X165347393Y-82054105D01*
X165347393Y-82054105D02*
X165347393Y-82268391D01*
X163537869Y-84196963D02*
X163728345Y-84304105D01*
X163728345Y-84304105D02*
X164109298Y-84304105D01*
X164109298Y-84304105D02*
X164299774Y-84196963D01*
X164299774Y-84196963D02*
X164395012Y-84089820D01*
X164395012Y-84089820D02*
X164490250Y-83875534D01*
X164490250Y-83875534D02*
X164490250Y-83232677D01*
X164490250Y-83232677D02*
X164395012Y-83018391D01*
X164395012Y-83018391D02*
X164299774Y-82911248D01*
X164299774Y-82911248D02*
X164109298Y-82804105D01*
X164109298Y-82804105D02*
X163728345Y-82804105D01*
X163728345Y-82804105D02*
X163537869Y-82911248D01*
X161918821Y-84196963D02*
X162109297Y-84304105D01*
X162109297Y-84304105D02*
X162490250Y-84304105D01*
X162490250Y-84304105D02*
X162680726Y-84196963D01*
X162680726Y-84196963D02*
X162775964Y-83982677D01*
X162775964Y-83982677D02*
X162775964Y-83125534D01*
X162775964Y-83125534D02*
X162680726Y-82911248D01*
X162680726Y-82911248D02*
X162490250Y-82804105D01*
X162490250Y-82804105D02*
X162109297Y-82804105D01*
X162109297Y-82804105D02*
X161918821Y-82911248D01*
X161918821Y-82911248D02*
X161823583Y-83125534D01*
X161823583Y-83125534D02*
X161823583Y-83339820D01*
X161823583Y-83339820D02*
X162775964Y-83554105D01*
X160966440Y-82804105D02*
X160966440Y-84304105D01*
X160966440Y-83018391D02*
X160871202Y-82911248D01*
X160871202Y-82911248D02*
X160680726Y-82804105D01*
X160680726Y-82804105D02*
X160395011Y-82804105D01*
X160395011Y-82804105D02*
X160204535Y-82911248D01*
X160204535Y-82911248D02*
X160109297Y-83125534D01*
X160109297Y-83125534D02*
X160109297Y-84304105D01*
X159252154Y-84196963D02*
X159061678Y-84304105D01*
X159061678Y-84304105D02*
X158680726Y-84304105D01*
X158680726Y-84304105D02*
X158490249Y-84196963D01*
X158490249Y-84196963D02*
X158395011Y-83982677D01*
X158395011Y-83982677D02*
X158395011Y-83875534D01*
X158395011Y-83875534D02*
X158490249Y-83661248D01*
X158490249Y-83661248D02*
X158680726Y-83554105D01*
X158680726Y-83554105D02*
X158966440Y-83554105D01*
X158966440Y-83554105D02*
X159156916Y-83446963D01*
X159156916Y-83446963D02*
X159252154Y-83232677D01*
X159252154Y-83232677D02*
X159252154Y-83125534D01*
X159252154Y-83125534D02*
X159156916Y-82911248D01*
X159156916Y-82911248D02*
X158966440Y-82804105D01*
X158966440Y-82804105D02*
X158680726Y-82804105D01*
X158680726Y-82804105D02*
X158490249Y-82911248D01*
X156775963Y-84196963D02*
X156966439Y-84304105D01*
X156966439Y-84304105D02*
X157347392Y-84304105D01*
X157347392Y-84304105D02*
X157537868Y-84196963D01*
X157537868Y-84196963D02*
X157633106Y-83982677D01*
X157633106Y-83982677D02*
X157633106Y-83125534D01*
X157633106Y-83125534D02*
X157537868Y-82911248D01*
X157537868Y-82911248D02*
X157347392Y-82804105D01*
X157347392Y-82804105D02*
X156966439Y-82804105D01*
X156966439Y-82804105D02*
X156775963Y-82911248D01*
X156775963Y-82911248D02*
X156680725Y-83125534D01*
X156680725Y-83125534D02*
X156680725Y-83339820D01*
X156680725Y-83339820D02*
X157633106Y-83554105D01*
X154966439Y-84304105D02*
X154966439Y-82054105D01*
X154966439Y-84196963D02*
X155156915Y-84304105D01*
X155156915Y-84304105D02*
X155537868Y-84304105D01*
X155537868Y-84304105D02*
X155728344Y-84196963D01*
X155728344Y-84196963D02*
X155823582Y-84089820D01*
X155823582Y-84089820D02*
X155918820Y-83875534D01*
X155918820Y-83875534D02*
X155918820Y-83232677D01*
X155918820Y-83232677D02*
X155823582Y-83018391D01*
X155823582Y-83018391D02*
X155728344Y-82911248D01*
X155728344Y-82911248D02*
X155537868Y-82804105D01*
X155537868Y-82804105D02*
X155156915Y-82804105D01*
X155156915Y-82804105D02*
X154966439Y-82911248D01*
X151633105Y-82804105D02*
X151633105Y-84304105D01*
X152490248Y-82804105D02*
X152490248Y-83982677D01*
X152490248Y-83982677D02*
X152395010Y-84196963D01*
X152395010Y-84196963D02*
X152204534Y-84304105D01*
X152204534Y-84304105D02*
X151918819Y-84304105D01*
X151918819Y-84304105D02*
X151728343Y-84196963D01*
X151728343Y-84196963D02*
X151633105Y-84089820D01*
X150680724Y-82804105D02*
X150680724Y-84304105D01*
X150680724Y-83018391D02*
X150585486Y-82911248D01*
X150585486Y-82911248D02*
X150395010Y-82804105D01*
X150395010Y-82804105D02*
X150109295Y-82804105D01*
X150109295Y-82804105D02*
X149918819Y-82911248D01*
X149918819Y-82911248D02*
X149823581Y-83125534D01*
X149823581Y-83125534D02*
X149823581Y-84304105D01*
X148014057Y-84304105D02*
X148014057Y-82054105D01*
X148014057Y-84196963D02*
X148204533Y-84304105D01*
X148204533Y-84304105D02*
X148585486Y-84304105D01*
X148585486Y-84304105D02*
X148775962Y-84196963D01*
X148775962Y-84196963D02*
X148871200Y-84089820D01*
X148871200Y-84089820D02*
X148966438Y-83875534D01*
X148966438Y-83875534D02*
X148966438Y-83232677D01*
X148966438Y-83232677D02*
X148871200Y-83018391D01*
X148871200Y-83018391D02*
X148775962Y-82911248D01*
X148775962Y-82911248D02*
X148585486Y-82804105D01*
X148585486Y-82804105D02*
X148204533Y-82804105D01*
X148204533Y-82804105D02*
X148014057Y-82911248D01*
X146299771Y-84196963D02*
X146490247Y-84304105D01*
X146490247Y-84304105D02*
X146871200Y-84304105D01*
X146871200Y-84304105D02*
X147061676Y-84196963D01*
X147061676Y-84196963D02*
X147156914Y-83982677D01*
X147156914Y-83982677D02*
X147156914Y-83125534D01*
X147156914Y-83125534D02*
X147061676Y-82911248D01*
X147061676Y-82911248D02*
X146871200Y-82804105D01*
X146871200Y-82804105D02*
X146490247Y-82804105D01*
X146490247Y-82804105D02*
X146299771Y-82911248D01*
X146299771Y-82911248D02*
X146204533Y-83125534D01*
X146204533Y-83125534D02*
X146204533Y-83339820D01*
X146204533Y-83339820D02*
X147156914Y-83554105D01*
X145347390Y-84304105D02*
X145347390Y-82804105D01*
X145347390Y-83232677D02*
X145252152Y-83018391D01*
X145252152Y-83018391D02*
X145156914Y-82911248D01*
X145156914Y-82911248D02*
X144966438Y-82804105D01*
X144966438Y-82804105D02*
X144775961Y-82804105D01*
X141442628Y-84089820D02*
X141537866Y-84196963D01*
X141537866Y-84196963D02*
X141823580Y-84304105D01*
X141823580Y-84304105D02*
X142014056Y-84304105D01*
X142014056Y-84304105D02*
X142299771Y-84196963D01*
X142299771Y-84196963D02*
X142490247Y-83982677D01*
X142490247Y-83982677D02*
X142585485Y-83768391D01*
X142585485Y-83768391D02*
X142680723Y-83339820D01*
X142680723Y-83339820D02*
X142680723Y-83018391D01*
X142680723Y-83018391D02*
X142585485Y-82589820D01*
X142585485Y-82589820D02*
X142490247Y-82375534D01*
X142490247Y-82375534D02*
X142299771Y-82161248D01*
X142299771Y-82161248D02*
X142014056Y-82054105D01*
X142014056Y-82054105D02*
X141823580Y-82054105D01*
X141823580Y-82054105D02*
X141537866Y-82161248D01*
X141537866Y-82161248D02*
X141442628Y-82268391D01*
X139823580Y-84196963D02*
X140014056Y-84304105D01*
X140014056Y-84304105D02*
X140395009Y-84304105D01*
X140395009Y-84304105D02*
X140585485Y-84196963D01*
X140585485Y-84196963D02*
X140680723Y-83982677D01*
X140680723Y-83982677D02*
X140680723Y-83125534D01*
X140680723Y-83125534D02*
X140585485Y-82911248D01*
X140585485Y-82911248D02*
X140395009Y-82804105D01*
X140395009Y-82804105D02*
X140014056Y-82804105D01*
X140014056Y-82804105D02*
X139823580Y-82911248D01*
X139823580Y-82911248D02*
X139728342Y-83125534D01*
X139728342Y-83125534D02*
X139728342Y-83339820D01*
X139728342Y-83339820D02*
X140680723Y-83554105D01*
X138871199Y-84304105D02*
X138871199Y-82804105D01*
X138871199Y-83232677D02*
X138775961Y-83018391D01*
X138775961Y-83018391D02*
X138680723Y-82911248D01*
X138680723Y-82911248D02*
X138490247Y-82804105D01*
X138490247Y-82804105D02*
X138299770Y-82804105D01*
X137633104Y-82804105D02*
X137633104Y-84304105D01*
X137633104Y-83018391D02*
X137537866Y-82911248D01*
X137537866Y-82911248D02*
X137347390Y-82804105D01*
X137347390Y-82804105D02*
X137061675Y-82804105D01*
X137061675Y-82804105D02*
X136871199Y-82911248D01*
X136871199Y-82911248D02*
X136775961Y-83125534D01*
X136775961Y-83125534D02*
X136775961Y-84304105D01*
X133918818Y-82054105D02*
X133537865Y-82054105D01*
X133537865Y-82054105D02*
X133347389Y-82161248D01*
X133347389Y-82161248D02*
X133156913Y-82375534D01*
X133156913Y-82375534D02*
X133061675Y-82804105D01*
X133061675Y-82804105D02*
X133061675Y-83554105D01*
X133061675Y-83554105D02*
X133156913Y-83982677D01*
X133156913Y-83982677D02*
X133347389Y-84196963D01*
X133347389Y-84196963D02*
X133537865Y-84304105D01*
X133537865Y-84304105D02*
X133918818Y-84304105D01*
X133918818Y-84304105D02*
X134109294Y-84196963D01*
X134109294Y-84196963D02*
X134299770Y-83982677D01*
X134299770Y-83982677D02*
X134395008Y-83554105D01*
X134395008Y-83554105D02*
X134395008Y-82804105D01*
X134395008Y-82804105D02*
X134299770Y-82375534D01*
X134299770Y-82375534D02*
X134109294Y-82161248D01*
X134109294Y-82161248D02*
X133918818Y-82054105D01*
X132204532Y-84304105D02*
X132204532Y-82054105D01*
X132204532Y-83125534D02*
X131061675Y-83125534D01*
X131061675Y-84304105D02*
X131061675Y-82054105D01*
X129156913Y-84304105D02*
X130109294Y-84304105D01*
X130109294Y-84304105D02*
X130109294Y-82054105D01*
X128490246Y-83446963D02*
X126966437Y-83446963D01*
X126109294Y-84196963D02*
X125823580Y-84304105D01*
X125823580Y-84304105D02*
X125347389Y-84304105D01*
X125347389Y-84304105D02*
X125156913Y-84196963D01*
X125156913Y-84196963D02*
X125061675Y-84089820D01*
X125061675Y-84089820D02*
X124966437Y-83875534D01*
X124966437Y-83875534D02*
X124966437Y-83661248D01*
X124966437Y-83661248D02*
X125061675Y-83446963D01*
X125061675Y-83446963D02*
X125156913Y-83339820D01*
X125156913Y-83339820D02*
X125347389Y-83232677D01*
X125347389Y-83232677D02*
X125728342Y-83125534D01*
X125728342Y-83125534D02*
X125918818Y-83018391D01*
X125918818Y-83018391D02*
X126014056Y-82911248D01*
X126014056Y-82911248D02*
X126109294Y-82696963D01*
X126109294Y-82696963D02*
X126109294Y-82482677D01*
X126109294Y-82482677D02*
X126014056Y-82268391D01*
X126014056Y-82268391D02*
X125918818Y-82161248D01*
X125918818Y-82161248D02*
X125728342Y-82054105D01*
X125728342Y-82054105D02*
X125252151Y-82054105D01*
X125252151Y-82054105D02*
X124966437Y-82161248D01*
X166966441Y-87926479D02*
X166966441Y-85676479D01*
X166109298Y-87926479D02*
X166109298Y-86747908D01*
X166109298Y-86747908D02*
X166204536Y-86533622D01*
X166204536Y-86533622D02*
X166395012Y-86426479D01*
X166395012Y-86426479D02*
X166680727Y-86426479D01*
X166680727Y-86426479D02*
X166871203Y-86533622D01*
X166871203Y-86533622D02*
X166966441Y-86640765D01*
X165442631Y-86426479D02*
X164680727Y-86426479D01*
X165156917Y-85676479D02*
X165156917Y-87605051D01*
X165156917Y-87605051D02*
X165061679Y-87819337D01*
X165061679Y-87819337D02*
X164871203Y-87926479D01*
X164871203Y-87926479D02*
X164680727Y-87926479D01*
X164299774Y-86426479D02*
X163537870Y-86426479D01*
X164014060Y-85676479D02*
X164014060Y-87605051D01*
X164014060Y-87605051D02*
X163918822Y-87819337D01*
X163918822Y-87819337D02*
X163728346Y-87926479D01*
X163728346Y-87926479D02*
X163537870Y-87926479D01*
X162871203Y-86426479D02*
X162871203Y-88676479D01*
X162871203Y-86533622D02*
X162680727Y-86426479D01*
X162680727Y-86426479D02*
X162299774Y-86426479D01*
X162299774Y-86426479D02*
X162109298Y-86533622D01*
X162109298Y-86533622D02*
X162014060Y-86640765D01*
X162014060Y-86640765D02*
X161918822Y-86855051D01*
X161918822Y-86855051D02*
X161918822Y-87497908D01*
X161918822Y-87497908D02*
X162014060Y-87712194D01*
X162014060Y-87712194D02*
X162109298Y-87819337D01*
X162109298Y-87819337D02*
X162299774Y-87926479D01*
X162299774Y-87926479D02*
X162680727Y-87926479D01*
X162680727Y-87926479D02*
X162871203Y-87819337D01*
X161156917Y-87819337D02*
X160966441Y-87926479D01*
X160966441Y-87926479D02*
X160585489Y-87926479D01*
X160585489Y-87926479D02*
X160395012Y-87819337D01*
X160395012Y-87819337D02*
X160299774Y-87605051D01*
X160299774Y-87605051D02*
X160299774Y-87497908D01*
X160299774Y-87497908D02*
X160395012Y-87283622D01*
X160395012Y-87283622D02*
X160585489Y-87176479D01*
X160585489Y-87176479D02*
X160871203Y-87176479D01*
X160871203Y-87176479D02*
X161061679Y-87069337D01*
X161061679Y-87069337D02*
X161156917Y-86855051D01*
X161156917Y-86855051D02*
X161156917Y-86747908D01*
X161156917Y-86747908D02*
X161061679Y-86533622D01*
X161061679Y-86533622D02*
X160871203Y-86426479D01*
X160871203Y-86426479D02*
X160585489Y-86426479D01*
X160585489Y-86426479D02*
X160395012Y-86533622D01*
X159442631Y-87712194D02*
X159347393Y-87819337D01*
X159347393Y-87819337D02*
X159442631Y-87926479D01*
X159442631Y-87926479D02*
X159537869Y-87819337D01*
X159537869Y-87819337D02*
X159442631Y-87712194D01*
X159442631Y-87712194D02*
X159442631Y-87926479D01*
X159442631Y-86533622D02*
X159347393Y-86640765D01*
X159347393Y-86640765D02*
X159442631Y-86747908D01*
X159442631Y-86747908D02*
X159537869Y-86640765D01*
X159537869Y-86640765D02*
X159442631Y-86533622D01*
X159442631Y-86533622D02*
X159442631Y-86747908D01*
X157061679Y-85569337D02*
X158775964Y-88462194D01*
X154966441Y-85569337D02*
X156680726Y-88462194D01*
X154014060Y-87926479D02*
X154204536Y-87819337D01*
X154204536Y-87819337D02*
X154299774Y-87712194D01*
X154299774Y-87712194D02*
X154395012Y-87497908D01*
X154395012Y-87497908D02*
X154395012Y-86855051D01*
X154395012Y-86855051D02*
X154299774Y-86640765D01*
X154299774Y-86640765D02*
X154204536Y-86533622D01*
X154204536Y-86533622D02*
X154014060Y-86426479D01*
X154014060Y-86426479D02*
X153728345Y-86426479D01*
X153728345Y-86426479D02*
X153537869Y-86533622D01*
X153537869Y-86533622D02*
X153442631Y-86640765D01*
X153442631Y-86640765D02*
X153347393Y-86855051D01*
X153347393Y-86855051D02*
X153347393Y-87497908D01*
X153347393Y-87497908D02*
X153442631Y-87712194D01*
X153442631Y-87712194D02*
X153537869Y-87819337D01*
X153537869Y-87819337D02*
X153728345Y-87926479D01*
X153728345Y-87926479D02*
X154014060Y-87926479D01*
X152490250Y-87926479D02*
X152490250Y-85676479D01*
X151633107Y-87926479D02*
X151633107Y-86747908D01*
X151633107Y-86747908D02*
X151728345Y-86533622D01*
X151728345Y-86533622D02*
X151918821Y-86426479D01*
X151918821Y-86426479D02*
X152204536Y-86426479D01*
X152204536Y-86426479D02*
X152395012Y-86533622D01*
X152395012Y-86533622D02*
X152490250Y-86640765D01*
X150871202Y-86426479D02*
X150490250Y-87926479D01*
X150490250Y-87926479D02*
X150109297Y-86855051D01*
X150109297Y-86855051D02*
X149728345Y-87926479D01*
X149728345Y-87926479D02*
X149347393Y-86426479D01*
X148585488Y-87926479D02*
X148585488Y-86426479D01*
X148585488Y-86855051D02*
X148490250Y-86640765D01*
X148490250Y-86640765D02*
X148395012Y-86533622D01*
X148395012Y-86533622D02*
X148204536Y-86426479D01*
X148204536Y-86426479D02*
X148014059Y-86426479D01*
X147347393Y-87712194D02*
X147252155Y-87819337D01*
X147252155Y-87819337D02*
X147347393Y-87926479D01*
X147347393Y-87926479D02*
X147442631Y-87819337D01*
X147442631Y-87819337D02*
X147347393Y-87712194D01*
X147347393Y-87712194D02*
X147347393Y-87926479D01*
X146109298Y-87926479D02*
X146299774Y-87819337D01*
X146299774Y-87819337D02*
X146395012Y-87712194D01*
X146395012Y-87712194D02*
X146490250Y-87497908D01*
X146490250Y-87497908D02*
X146490250Y-86855051D01*
X146490250Y-86855051D02*
X146395012Y-86640765D01*
X146395012Y-86640765D02*
X146299774Y-86533622D01*
X146299774Y-86533622D02*
X146109298Y-86426479D01*
X146109298Y-86426479D02*
X145823583Y-86426479D01*
X145823583Y-86426479D02*
X145633107Y-86533622D01*
X145633107Y-86533622D02*
X145537869Y-86640765D01*
X145537869Y-86640765D02*
X145442631Y-86855051D01*
X145442631Y-86855051D02*
X145442631Y-87497908D01*
X145442631Y-87497908D02*
X145537869Y-87712194D01*
X145537869Y-87712194D02*
X145633107Y-87819337D01*
X145633107Y-87819337D02*
X145823583Y-87926479D01*
X145823583Y-87926479D02*
X146109298Y-87926479D01*
X144585488Y-87926479D02*
X144585488Y-86426479D01*
X144585488Y-86855051D02*
X144490250Y-86640765D01*
X144490250Y-86640765D02*
X144395012Y-86533622D01*
X144395012Y-86533622D02*
X144204536Y-86426479D01*
X144204536Y-86426479D02*
X144014059Y-86426479D01*
X142490250Y-86426479D02*
X142490250Y-88247908D01*
X142490250Y-88247908D02*
X142585488Y-88462194D01*
X142585488Y-88462194D02*
X142680726Y-88569337D01*
X142680726Y-88569337D02*
X142871203Y-88676479D01*
X142871203Y-88676479D02*
X143156917Y-88676479D01*
X143156917Y-88676479D02*
X143347393Y-88569337D01*
X142490250Y-87819337D02*
X142680726Y-87926479D01*
X142680726Y-87926479D02*
X143061679Y-87926479D01*
X143061679Y-87926479D02*
X143252155Y-87819337D01*
X143252155Y-87819337D02*
X143347393Y-87712194D01*
X143347393Y-87712194D02*
X143442631Y-87497908D01*
X143442631Y-87497908D02*
X143442631Y-86855051D01*
X143442631Y-86855051D02*
X143347393Y-86640765D01*
X143347393Y-86640765D02*
X143252155Y-86533622D01*
X143252155Y-86533622D02*
X143061679Y-86426479D01*
X143061679Y-86426479D02*
X142680726Y-86426479D01*
X142680726Y-86426479D02*
X142490250Y-86533622D01*
X140109298Y-85569337D02*
X141823583Y-88462194D01*
X138585488Y-87819337D02*
X138775964Y-87926479D01*
X138775964Y-87926479D02*
X139156917Y-87926479D01*
X139156917Y-87926479D02*
X139347393Y-87819337D01*
X139347393Y-87819337D02*
X139442631Y-87712194D01*
X139442631Y-87712194D02*
X139537869Y-87497908D01*
X139537869Y-87497908D02*
X139537869Y-86855051D01*
X139537869Y-86855051D02*
X139442631Y-86640765D01*
X139442631Y-86640765D02*
X139347393Y-86533622D01*
X139347393Y-86533622D02*
X139156917Y-86426479D01*
X139156917Y-86426479D02*
X138775964Y-86426479D01*
X138775964Y-86426479D02*
X138585488Y-86533622D01*
X136966440Y-87819337D02*
X137156916Y-87926479D01*
X137156916Y-87926479D02*
X137537869Y-87926479D01*
X137537869Y-87926479D02*
X137728345Y-87819337D01*
X137728345Y-87819337D02*
X137823583Y-87605051D01*
X137823583Y-87605051D02*
X137823583Y-86747908D01*
X137823583Y-86747908D02*
X137728345Y-86533622D01*
X137728345Y-86533622D02*
X137537869Y-86426479D01*
X137537869Y-86426479D02*
X137156916Y-86426479D01*
X137156916Y-86426479D02*
X136966440Y-86533622D01*
X136966440Y-86533622D02*
X136871202Y-86747908D01*
X136871202Y-86747908D02*
X136871202Y-86962194D01*
X136871202Y-86962194D02*
X137823583Y-87176479D01*
X136014059Y-87926479D02*
X136014059Y-86426479D01*
X136014059Y-86855051D02*
X135918821Y-86640765D01*
X135918821Y-86640765D02*
X135823583Y-86533622D01*
X135823583Y-86533622D02*
X135633107Y-86426479D01*
X135633107Y-86426479D02*
X135442630Y-86426479D01*
X134775964Y-86426479D02*
X134775964Y-87926479D01*
X134775964Y-86640765D02*
X134680726Y-86533622D01*
X134680726Y-86533622D02*
X134490250Y-86426479D01*
X134490250Y-86426479D02*
X134204535Y-86426479D01*
X134204535Y-86426479D02*
X134014059Y-86533622D01*
X134014059Y-86533622D02*
X133918821Y-86747908D01*
X133918821Y-86747908D02*
X133918821Y-87926479D01*
X133442631Y-88140765D02*
X131918821Y-88140765D01*
X131156916Y-87926479D02*
X131347392Y-87819337D01*
X131347392Y-87819337D02*
X131442630Y-87712194D01*
X131442630Y-87712194D02*
X131537868Y-87497908D01*
X131537868Y-87497908D02*
X131537868Y-86855051D01*
X131537868Y-86855051D02*
X131442630Y-86640765D01*
X131442630Y-86640765D02*
X131347392Y-86533622D01*
X131347392Y-86533622D02*
X131156916Y-86426479D01*
X131156916Y-86426479D02*
X130871201Y-86426479D01*
X130871201Y-86426479D02*
X130680725Y-86533622D01*
X130680725Y-86533622D02*
X130585487Y-86640765D01*
X130585487Y-86640765D02*
X130490249Y-86855051D01*
X130490249Y-86855051D02*
X130490249Y-87497908D01*
X130490249Y-87497908D02*
X130585487Y-87712194D01*
X130585487Y-87712194D02*
X130680725Y-87819337D01*
X130680725Y-87819337D02*
X130871201Y-87926479D01*
X130871201Y-87926479D02*
X131156916Y-87926479D01*
X129633106Y-87926479D02*
X129633106Y-85676479D01*
X128775963Y-87926479D02*
X128775963Y-86747908D01*
X128775963Y-86747908D02*
X128871201Y-86533622D01*
X128871201Y-86533622D02*
X129061677Y-86426479D01*
X129061677Y-86426479D02*
X129347392Y-86426479D01*
X129347392Y-86426479D02*
X129537868Y-86533622D01*
X129537868Y-86533622D02*
X129633106Y-86640765D01*
X127537868Y-87926479D02*
X127728344Y-87819337D01*
X127728344Y-87819337D02*
X127823582Y-87605051D01*
X127823582Y-87605051D02*
X127823582Y-85676479D01*
X127252154Y-88140765D02*
X125728344Y-88140765D01*
X125347391Y-87819337D02*
X125156915Y-87926479D01*
X125156915Y-87926479D02*
X124775963Y-87926479D01*
X124775963Y-87926479D02*
X124585486Y-87819337D01*
X124585486Y-87819337D02*
X124490248Y-87605051D01*
X124490248Y-87605051D02*
X124490248Y-87497908D01*
X124490248Y-87497908D02*
X124585486Y-87283622D01*
X124585486Y-87283622D02*
X124775963Y-87176479D01*
X124775963Y-87176479D02*
X125061677Y-87176479D01*
X125061677Y-87176479D02*
X125252153Y-87069337D01*
X125252153Y-87069337D02*
X125347391Y-86855051D01*
X125347391Y-86855051D02*
X125347391Y-86747908D01*
X125347391Y-86747908D02*
X125252153Y-86533622D01*
X125252153Y-86533622D02*
X125061677Y-86426479D01*
X125061677Y-86426479D02*
X124775963Y-86426479D01*
X124775963Y-86426479D02*
X124585486Y-86533622D01*
X124109296Y-88140765D02*
X122585486Y-88140765D01*
X122299771Y-86426479D02*
X121823581Y-87926479D01*
X121823581Y-87926479D02*
X121347390Y-86426479D01*
X120680723Y-85890765D02*
X120585485Y-85783622D01*
X120585485Y-85783622D02*
X120395009Y-85676479D01*
X120395009Y-85676479D02*
X119918818Y-85676479D01*
X119918818Y-85676479D02*
X119728342Y-85783622D01*
X119728342Y-85783622D02*
X119633104Y-85890765D01*
X119633104Y-85890765D02*
X119537866Y-86105051D01*
X119537866Y-86105051D02*
X119537866Y-86319337D01*
X119537866Y-86319337D02*
X119633104Y-86640765D01*
X119633104Y-86640765D02*
X120775961Y-87926479D01*
X120775961Y-87926479D02*
X119537866Y-87926479D01*
X118680723Y-87712194D02*
X118585485Y-87819337D01*
X118585485Y-87819337D02*
X118680723Y-87926479D01*
X118680723Y-87926479D02*
X118775961Y-87819337D01*
X118775961Y-87819337D02*
X118680723Y-87712194D01*
X118680723Y-87712194D02*
X118680723Y-87926479D01*
X118014056Y-86426479D02*
X117252152Y-86426479D01*
X117728342Y-85676479D02*
X117728342Y-87605051D01*
X117728342Y-87605051D02*
X117633104Y-87819337D01*
X117633104Y-87819337D02*
X117442628Y-87926479D01*
X117442628Y-87926479D02*
X117252152Y-87926479D01*
X116775961Y-87926479D02*
X115728342Y-86426479D01*
X116775961Y-86426479D02*
X115728342Y-87926479D01*
X115252151Y-86426479D02*
X114490247Y-86426479D01*
X114966437Y-85676479D02*
X114966437Y-87605051D01*
X114966437Y-87605051D02*
X114871199Y-87819337D01*
X114871199Y-87819337D02*
X114680723Y-87926479D01*
X114680723Y-87926479D02*
X114490247Y-87926479D01*
D11*
X134620000Y-72390000D03*
X137160000Y-72390000D03*
X139700000Y-72390000D03*
X142240000Y-72390000D03*
X142240000Y-64770000D03*
X139700000Y-64770000D03*
X137160000Y-64770000D03*
X134620000Y-64770000D03*
X110490000Y-92710000D03*
X113030000Y-92710000D03*
X115570000Y-92710000D03*
X118110000Y-92710000D03*
X120650000Y-92710000D03*
X123190000Y-92710000D03*
X125730000Y-92710000D03*
X128270000Y-92710000D03*
X130810000Y-92710000D03*
X133350000Y-92710000D03*
X135890000Y-92710000D03*
X138430000Y-92710000D03*
X140970000Y-92710000D03*
X143510000Y-92710000D03*
X146050000Y-92710000D03*
X148590000Y-92710000D03*
X151130000Y-92710000D03*
X153670000Y-92710000D03*
X156210000Y-92710000D03*
X158750000Y-92710000D03*
X158750000Y-77470000D03*
X156210000Y-77470000D03*
X153670000Y-77470000D03*
X151130000Y-77470000D03*
X148590000Y-77470000D03*
X146050000Y-77470000D03*
X143510000Y-77470000D03*
X140970000Y-77470000D03*
X138430000Y-77470000D03*
X135890000Y-77470000D03*
X133350000Y-77470000D03*
X130810000Y-77470000D03*
X128270000Y-77470000D03*
X125730000Y-77470000D03*
X123190000Y-77470000D03*
X120650000Y-77470000D03*
X118110000Y-77470000D03*
X115570000Y-77470000D03*
X113030000Y-77470000D03*
X110490000Y-77470000D03*
X184150000Y-53300000D03*
X184150000Y-48300000D03*
X180260000Y-81280000D03*
X175260000Y-81280000D03*
X106680000Y-87710000D03*
X106680000Y-92710000D03*
X148590000Y-64770000D03*
X151130000Y-64770000D03*
X153670000Y-64770000D03*
X156210000Y-64770000D03*
X158750000Y-64770000D03*
X161290000Y-64770000D03*
X163830000Y-64770000D03*
X163830000Y-72390000D03*
X161290000Y-72390000D03*
X158750000Y-72390000D03*
X156210000Y-72390000D03*
X153670000Y-72390000D03*
X151130000Y-72390000D03*
X148590000Y-72390000D03*
X182880000Y-74930000D03*
X182880000Y-73660000D03*
X182880000Y-72390000D03*
X127635000Y-46990000D03*
X120015000Y-46990000D03*
X127000000Y-58420000D03*
X127000000Y-50800000D03*
X118110000Y-132080000D03*
X120650000Y-132080000D03*
X123190000Y-132080000D03*
X125730000Y-132080000D03*
X128270000Y-132080000D03*
X130810000Y-132080000D03*
X133350000Y-132080000D03*
X135890000Y-132080000D03*
X138430000Y-132080000D03*
X140970000Y-132080000D03*
X140970000Y-124460000D03*
X138430000Y-124460000D03*
X135890000Y-124460000D03*
X133350000Y-124460000D03*
X130810000Y-124460000D03*
X128270000Y-124460000D03*
X125730000Y-124460000D03*
X123190000Y-124460000D03*
X120650000Y-124460000D03*
X118110000Y-124460000D03*
X110490000Y-71125000D03*
X110490000Y-68585000D03*
X113030000Y-71125000D03*
X113030000Y-68585000D03*
X134620000Y-59690000D03*
X137160000Y-59690000D03*
X139700000Y-59690000D03*
X142240000Y-59690000D03*
X142240000Y-52070000D03*
X139700000Y-52070000D03*
X137160000Y-52070000D03*
X134620000Y-52070000D03*
X114300000Y-124500000D03*
X114300000Y-129500000D03*
X109815000Y-63500000D03*
X104815000Y-63500000D03*
X146050000Y-135890000D03*
X146050000Y-130890000D03*
X123825000Y-58420000D03*
X123825000Y-50800000D03*
X117435000Y-46990000D03*
X112435000Y-46990000D03*
X181610000Y-59690000D03*
X181610000Y-67310000D03*
X112315000Y-57745000D03*
X112315000Y-60245000D03*
X112315000Y-52745000D03*
X112315000Y-50245000D03*
X107315000Y-55245000D03*
X112315000Y-55245000D03*
X107315000Y-60245000D03*
X107315000Y-50245000D03*
X104815000Y-60245000D03*
X104815000Y-50245000D03*
X120650000Y-58420000D03*
X120650000Y-50800000D03*
X130810000Y-53380000D03*
X130810000Y-58380000D03*
X117475000Y-58420000D03*
X117475000Y-50800000D03*
X110490000Y-132080000D03*
X107950000Y-132080000D03*
X110490000Y-129540000D03*
X107950000Y-129540000D03*
X110490000Y-127000000D03*
X107950000Y-127000000D03*
X110490000Y-124460000D03*
X107950000Y-124460000D03*
X110490000Y-121920000D03*
X107950000Y-121920000D03*
X110490000Y-119380000D03*
X107950000Y-119380000D03*
X110490000Y-116840000D03*
X107950000Y-116840000D03*
X110490000Y-114300000D03*
X107950000Y-114300000D03*
X110490000Y-111760000D03*
X107950000Y-111760000D03*
X110490000Y-109220000D03*
X107950000Y-109220000D03*
X110490000Y-106680000D03*
X107950000Y-106680000D03*
X110490000Y-104140000D03*
X107950000Y-104140000D03*
X110490000Y-101600000D03*
X107950000Y-101600000D03*
X115570000Y-107950000D03*
X115570000Y-112950000D03*
X125476000Y-71120000D03*
X120476000Y-71120000D03*
X177790000Y-59685000D03*
X177790000Y-62225000D03*
X177790000Y-64765000D03*
X177790000Y-67305000D03*
X177790000Y-69845000D03*
X177790000Y-72385000D03*
X177790000Y-74925000D03*
X170170000Y-74925000D03*
X170170000Y-72385000D03*
X170170000Y-69845000D03*
X170170000Y-67305000D03*
X170170000Y-64765000D03*
X170170000Y-62225000D03*
X170170000Y-59685000D03*
X117475000Y-63500000D03*
X112475000Y-63500000D03*
X173990000Y-47127349D03*
X173990000Y-52127349D03*
X127635000Y-63500000D03*
X120015000Y-63500000D03*
X106680000Y-83805000D03*
X106680000Y-81265000D03*
X106680000Y-78725000D03*
X166075000Y-49530000D03*
X166075000Y-52070000D03*
X166075000Y-54610000D03*
X149415000Y-52070000D03*
X109855000Y-46990000D03*
X104855000Y-46990000D03*
X172760000Y-55880000D03*
X177760000Y-55880000D03*
X180340000Y-113030000D03*
X180340000Y-110490000D03*
X180340000Y-107950000D03*
X180340000Y-105410000D03*
X180340000Y-102870000D03*
X180340000Y-100330000D03*
X180340000Y-97790000D03*
X180340000Y-95250000D03*
X180340000Y-92710000D03*
X180340000Y-90170000D03*
X180340000Y-87630000D03*
X180340000Y-85090000D03*
X172720000Y-85090000D03*
X172720000Y-87630000D03*
X172720000Y-90170000D03*
X172720000Y-92710000D03*
X172720000Y-95250000D03*
X172720000Y-97790000D03*
X172720000Y-100330000D03*
X172720000Y-102870000D03*
X172720000Y-105410000D03*
X172720000Y-107950000D03*
X172720000Y-110490000D03*
X172720000Y-113030000D03*
X187960000Y-53340000D03*
X187960000Y-55880000D03*
X187960000Y-58420000D03*
X187960000Y-60960000D03*
X187960000Y-63500000D03*
X187960000Y-66040000D03*
X187960000Y-68580000D03*
X187960000Y-71120000D03*
X187960000Y-73660000D03*
X187960000Y-76200000D03*
X187960000Y-78740000D03*
X187960000Y-81280000D03*
X187960000Y-83820000D03*
X187960000Y-86360000D03*
X187960000Y-88900000D03*
X187960000Y-91440000D03*
X187960000Y-93980000D03*
X187960000Y-96520000D03*
X187960000Y-99060000D03*
X187960000Y-101600000D03*
X187960000Y-104140000D03*
X187960000Y-106680000D03*
X187960000Y-109220000D03*
X187960000Y-111760000D03*
X187960000Y-114300000D03*
X187960000Y-116840000D03*
X187960000Y-119380000D03*
X187960000Y-121920000D03*
X187960000Y-124460000D03*
X187960000Y-127000000D03*
X187960000Y-129540000D03*
X187960000Y-132080000D03*
X190500000Y-53340000D03*
X190500000Y-55880000D03*
X190500000Y-58420000D03*
X190500000Y-60960000D03*
X190500000Y-63500000D03*
X190500000Y-66040000D03*
X190500000Y-68580000D03*
X190500000Y-71120000D03*
X190500000Y-73660000D03*
X190500000Y-76200000D03*
X190500000Y-78740000D03*
X190500000Y-81280000D03*
X190500000Y-83820000D03*
X190500000Y-86360000D03*
X190500000Y-88900000D03*
X190500000Y-91440000D03*
X190500000Y-93980000D03*
X190500000Y-96520000D03*
X190500000Y-99060000D03*
X190500000Y-101600000D03*
X190500000Y-104140000D03*
X190500000Y-106680000D03*
X190500000Y-109220000D03*
X190500000Y-111760000D03*
X190500000Y-114300000D03*
X190500000Y-116840000D03*
X190500000Y-119380000D03*
X190500000Y-121920000D03*
X190500000Y-124460000D03*
X190500000Y-127000000D03*
X190500000Y-129540000D03*
X190500000Y-132080000D03*
X193040000Y-137160000D03*
X193040000Y-48260000D03*
X149860000Y-135890000D03*
X152400000Y-135890000D03*
X154940000Y-135890000D03*
X157480000Y-135890000D03*
X160020000Y-135890000D03*
X162560000Y-135890000D03*
X165100000Y-135890000D03*
X167640000Y-135890000D03*
X170180000Y-135890000D03*
X172720000Y-135890000D03*
X175260000Y-135890000D03*
X177800000Y-135890000D03*
X180340000Y-135890000D03*
X182880000Y-135890000D03*
X182880000Y-120650000D03*
X180340000Y-120650000D03*
X177800000Y-120650000D03*
X175260000Y-120650000D03*
X172720000Y-120650000D03*
X170180000Y-120650000D03*
X167640000Y-120650000D03*
X165100000Y-120650000D03*
X162560000Y-120650000D03*
X160020000Y-120650000D03*
X157480000Y-120650000D03*
X154940000Y-120650000D03*
X152400000Y-120650000D03*
X149860000Y-120650000D03*
X130810000Y-70024000D03*
X130810000Y-65024000D03*
X119385000Y-113010000D03*
X121925000Y-113010000D03*
X124465000Y-113010000D03*
X127005000Y-113010000D03*
X129545000Y-113010000D03*
X132085000Y-113010000D03*
X134625000Y-113010000D03*
X137165000Y-113010000D03*
X139705000Y-113010000D03*
X142245000Y-113010000D03*
X144785000Y-113010000D03*
X147325000Y-113010000D03*
X149865000Y-113010000D03*
X152405000Y-113010000D03*
X154945000Y-113010000D03*
X157485000Y-113010000D03*
X160025000Y-113010000D03*
X162565000Y-113010000D03*
X165105000Y-113010000D03*
X167645000Y-113010000D03*
X167645000Y-97770000D03*
X165105000Y-97770000D03*
X162565000Y-97770000D03*
X160025000Y-97770000D03*
X157485000Y-97770000D03*
X154945000Y-97770000D03*
X152405000Y-97770000D03*
X149865000Y-97770000D03*
X147325000Y-97770000D03*
X144785000Y-97770000D03*
X142245000Y-97770000D03*
X139705000Y-97770000D03*
X137165000Y-97770000D03*
X134625000Y-97770000D03*
X132085000Y-97770000D03*
X129545000Y-97770000D03*
X127005000Y-97770000D03*
X124465000Y-97770000D03*
X121925000Y-97770000D03*
X119385000Y-97770000D03*
M02*
