M48
; DRILL file {KiCad 8.0.6+1} date 2024-11-11T20:47:58+0100
; FORMAT={-:-/ absolute / metric / decimal}
; #@! TF.CreationDate,2024-11-11T20:47:58+01:00
; #@! TF.GenerationSoftware,Kicad,Pcbnew,8.0.6+1
; #@! TF.FileFunction,Plated,1,2,PTH
FMAT,2
METRIC
; #@! TA.AperFunction,Plated,PTH,ViaDrill
T1C0.400
; #@! TA.AperFunction,Plated,PTH,ViaDrill
T2C0.500
; #@! TA.AperFunction,Plated,PTH,ComponentDrill
T3C0.750
; #@! TA.AperFunction,Plated,PTH,ComponentDrill
T4C0.800
; #@! TA.AperFunction,Plated,PTH,ComponentDrill
T5C1.000
; #@! TA.AperFunction,Plated,PTH,ComponentDrill
T6C1.100
; #@! TA.AperFunction,Plated,PTH,ComponentDrill
T7C1.300
%
G90
G05
T1
X109.22Y-84.836
X111.76Y-86.36
X114.3Y-86.36
X116.84Y-86.36
X121.92Y-107.648
X124.46Y-109.22
X137.16Y-128.27
X137.16Y-134.62
X138.793Y-128.127
X143.51Y-105.41
X144.145Y-138.684
X144.272Y-127.0
X147.32Y-49.53
X147.32Y-54.61
X147.32Y-120.015
X148.59Y-48.26
X148.59Y-55.88
X149.86Y-48.26
X149.86Y-55.88
X151.13Y-49.53
X151.13Y-54.61
X152.4Y-48.26
X152.4Y-50.8
X152.4Y-53.34
X152.4Y-55.88
X152.4Y-85.344
X153.67Y-49.53
X153.67Y-52.07
X153.67Y-54.61
X153.67Y-109.22
X154.94Y-48.26
X154.94Y-50.8
X154.94Y-53.34
X154.94Y-55.88
X156.21Y-49.53
X156.21Y-52.07
X156.21Y-54.61
X157.48Y-48.26
X157.48Y-50.8
X157.48Y-53.34
X157.48Y-55.88
X157.48Y-107.95
X158.75Y-49.53
X158.75Y-52.07
X158.75Y-54.61
X160.02Y-48.26
X160.02Y-50.8
X160.02Y-53.34
X160.02Y-55.88
X161.29Y-49.53
X161.29Y-52.07
X161.29Y-54.61
X166.37Y-93.98
X169.243Y-130.81
X171.45Y-133.759
X173.99Y-132.663
X174.575Y-91.524
X174.625Y-93.98
X174.983Y-100.354
X175.26Y-131.772
X175.387Y-86.36
X175.395Y-89.676
X176.53Y-110.49
X176.53Y-133.4
X176.53Y-137.795
X178.054Y-79.375
X182.624Y-103.505
X182.88Y-123.19
X182.88Y-125.73
X182.997Y-129.188
X183.007Y-99.06
X183.636Y-107.95
X183.636Y-112.909
X184.749Y-129.996
X184.785Y-138.975
T2
X114.3Y-139.7
X140.97Y-139.7
T3
X182.88Y-72.39
X182.88Y-73.66
X182.88Y-74.93
T4
X104.815Y-63.5
X104.855Y-46.99
X106.68Y-87.71
X106.68Y-92.71
X109.815Y-63.5
X109.855Y-46.99
X110.49Y-77.47
X110.49Y-92.71
X112.435Y-46.99
X112.475Y-63.5
X113.03Y-77.47
X113.03Y-92.71
X114.3Y-124.5
X114.3Y-129.5
X115.57Y-77.47
X115.57Y-92.71
X115.57Y-107.95
X115.57Y-112.95
X117.435Y-46.99
X117.475Y-50.8
X117.475Y-58.42
X117.475Y-63.5
X118.11Y-77.47
X118.11Y-92.71
X118.11Y-124.46
X118.11Y-132.08
X119.385Y-97.77
X119.385Y-113.01
X120.015Y-46.99
X120.015Y-63.5
X120.476Y-71.12
X120.65Y-50.8
X120.65Y-58.42
X120.65Y-77.47
X120.65Y-92.71
X120.65Y-124.46
X120.65Y-132.08
X121.925Y-97.77
X121.925Y-113.01
X123.19Y-77.47
X123.19Y-92.71
X123.19Y-124.46
X123.19Y-132.08
X123.825Y-50.8
X123.825Y-58.42
X124.465Y-97.77
X124.465Y-113.01
X125.476Y-71.12
X125.73Y-77.47
X125.73Y-92.71
X125.73Y-124.46
X125.73Y-132.08
X127.0Y-50.8
X127.0Y-58.42
X127.005Y-97.77
X127.005Y-113.01
X127.635Y-46.99
X127.635Y-63.5
X128.27Y-77.47
X128.27Y-92.71
X128.27Y-124.46
X128.27Y-132.08
X129.545Y-97.77
X129.545Y-113.01
X130.81Y-53.38
X130.81Y-58.38
X130.81Y-65.024
X130.81Y-70.024
X130.81Y-77.47
X130.81Y-92.71
X130.81Y-124.46
X130.81Y-132.08
X132.085Y-97.77
X132.085Y-113.01
X133.35Y-77.47
X133.35Y-92.71
X133.35Y-124.46
X133.35Y-132.08
X134.62Y-52.07
X134.62Y-59.69
X134.62Y-64.77
X134.62Y-72.39
X134.625Y-97.77
X134.625Y-113.01
X135.89Y-77.47
X135.89Y-92.71
X135.89Y-124.46
X135.89Y-132.08
X137.16Y-52.07
X137.16Y-59.69
X137.16Y-64.77
X137.16Y-72.39
X137.165Y-97.77
X137.165Y-113.01
X138.43Y-77.47
X138.43Y-92.71
X138.43Y-124.46
X138.43Y-132.08
X139.7Y-52.07
X139.7Y-59.69
X139.7Y-64.77
X139.7Y-72.39
X139.705Y-97.77
X139.705Y-113.01
X140.97Y-77.47
X140.97Y-92.71
X140.97Y-124.46
X140.97Y-132.08
X142.24Y-52.07
X142.24Y-59.69
X142.24Y-64.77
X142.24Y-72.39
X142.245Y-97.77
X142.245Y-113.01
X143.51Y-77.47
X143.51Y-92.71
X144.785Y-97.77
X144.785Y-113.01
X146.05Y-77.47
X146.05Y-92.71
X146.05Y-130.89
X146.05Y-135.89
X147.325Y-97.77
X147.325Y-113.01
X148.59Y-77.47
X148.59Y-92.71
X149.86Y-120.65
X149.86Y-135.89
X149.865Y-97.77
X149.865Y-113.01
X151.13Y-77.47
X151.13Y-92.71
X152.4Y-120.65
X152.4Y-135.89
X152.405Y-97.77
X152.405Y-113.01
X153.67Y-77.47
X153.67Y-92.71
X154.94Y-120.65
X154.94Y-135.89
X154.945Y-97.77
X154.945Y-113.01
X156.21Y-64.77
X156.21Y-72.39
X156.21Y-77.47
X156.21Y-92.71
X157.48Y-120.65
X157.48Y-135.89
X157.485Y-97.77
X157.485Y-113.01
X158.75Y-77.47
X158.75Y-92.71
X160.02Y-120.65
X160.02Y-135.89
X160.025Y-97.77
X160.025Y-113.01
X162.56Y-120.65
X162.56Y-135.89
X162.565Y-97.77
X162.565Y-113.01
X163.83Y-64.77
X163.83Y-72.39
X165.1Y-120.65
X165.1Y-135.89
X165.105Y-97.77
X165.105Y-113.01
X167.64Y-120.65
X167.64Y-135.89
X167.645Y-97.77
X167.645Y-113.01
X170.17Y-59.685
X170.17Y-62.225
X170.17Y-64.765
X170.17Y-67.305
X170.17Y-69.845
X170.17Y-72.385
X170.17Y-74.925
X170.18Y-120.65
X170.18Y-135.89
X172.72Y-85.09
X172.72Y-87.63
X172.72Y-90.17
X172.72Y-92.71
X172.72Y-95.25
X172.72Y-97.79
X172.72Y-100.33
X172.72Y-102.87
X172.72Y-105.41
X172.72Y-107.95
X172.72Y-110.49
X172.72Y-113.03
X172.72Y-120.65
X172.72Y-135.89
X172.76Y-55.88
X173.99Y-47.127
X173.99Y-52.127
X175.26Y-81.28
X175.26Y-120.65
X175.26Y-135.89
X177.76Y-55.88
X177.79Y-59.685
X177.79Y-62.225
X177.79Y-64.765
X177.79Y-67.305
X177.79Y-69.845
X177.79Y-72.385
X177.79Y-74.925
X177.8Y-120.65
X177.8Y-135.89
X180.26Y-81.28
X180.34Y-85.09
X180.34Y-87.63
X180.34Y-90.17
X180.34Y-92.71
X180.34Y-95.25
X180.34Y-97.79
X180.34Y-100.33
X180.34Y-102.87
X180.34Y-105.41
X180.34Y-107.95
X180.34Y-110.49
X180.34Y-113.03
X180.34Y-120.65
X180.34Y-135.89
X181.61Y-59.69
X181.61Y-67.31
X182.88Y-120.65
X182.88Y-135.89
X184.15Y-48.3
X184.15Y-53.3
T5
X106.68Y-78.725
X106.68Y-81.265
X106.68Y-83.805
X107.95Y-101.6
X107.95Y-104.14
X107.95Y-106.68
X107.95Y-109.22
X107.95Y-111.76
X107.95Y-114.3
X107.95Y-116.84
X107.95Y-119.38
X107.95Y-121.92
X107.95Y-124.46
X107.95Y-127.0
X107.95Y-129.54
X107.95Y-132.08
X110.49Y-68.585
X110.49Y-71.125
X110.49Y-101.6
X110.49Y-104.14
X110.49Y-106.68
X110.49Y-109.22
X110.49Y-111.76
X110.49Y-114.3
X110.49Y-116.84
X110.49Y-119.38
X110.49Y-121.92
X110.49Y-124.46
X110.49Y-127.0
X110.49Y-129.54
X110.49Y-132.08
X113.03Y-68.585
X113.03Y-71.125
X187.96Y-53.34
X187.96Y-55.88
X187.96Y-58.42
X187.96Y-60.96
X187.96Y-63.5
X187.96Y-66.04
X187.96Y-68.58
X187.96Y-71.12
X187.96Y-73.66
X187.96Y-76.2
X187.96Y-78.74
X187.96Y-81.28
X187.96Y-83.82
X187.96Y-86.36
X187.96Y-88.9
X187.96Y-91.44
X187.96Y-93.98
X187.96Y-96.52
X187.96Y-99.06
X187.96Y-101.6
X187.96Y-104.14
X187.96Y-106.68
X187.96Y-109.22
X187.96Y-111.76
X187.96Y-114.3
X187.96Y-116.84
X187.96Y-119.38
X187.96Y-121.92
X187.96Y-124.46
X187.96Y-127.0
X187.96Y-129.54
X187.96Y-132.08
X190.5Y-53.34
X190.5Y-55.88
X190.5Y-58.42
X190.5Y-60.96
X190.5Y-63.5
X190.5Y-66.04
X190.5Y-68.58
X190.5Y-71.12
X190.5Y-73.66
X190.5Y-76.2
X190.5Y-78.74
X190.5Y-81.28
X190.5Y-83.82
X190.5Y-86.36
X190.5Y-88.9
X190.5Y-91.44
X190.5Y-93.98
X190.5Y-96.52
X190.5Y-99.06
X190.5Y-101.6
X190.5Y-104.14
X190.5Y-106.68
X190.5Y-109.22
X190.5Y-111.76
X190.5Y-114.3
X190.5Y-116.84
X190.5Y-119.38
X190.5Y-121.92
X190.5Y-124.46
X190.5Y-127.0
X190.5Y-129.54
X190.5Y-132.08
T6
X166.075Y-49.53
X166.075Y-52.07
X166.075Y-54.61
T7
X107.315Y-55.245
X112.315Y-50.245
X112.315Y-52.745
X112.315Y-57.745
X112.315Y-60.245
M30
