%TF.GenerationSoftware,KiCad,Pcbnew,8.0.3+1*%
%TF.CreationDate,2024-06-17T20:37:02+02:00*%
%TF.ProjectId,qsound3,71736f75-6e64-4332-9e6b-696361645f70,0.1b*%
%TF.SameCoordinates,Original*%
%TF.FileFunction,Legend,Top*%
%TF.FilePolarity,Positive*%
%FSLAX46Y46*%
G04 Gerber Fmt 4.6, Leading zero omitted, Abs format (unit mm)*
G04 Created by KiCad (PCBNEW 8.0.3+1) date 2024-06-17 20:37:02*
%MOMM*%
%LPD*%
G01*
G04 APERTURE LIST*
%ADD10C,0.150000*%
%ADD11C,1.000000*%
%ADD12C,0.120000*%
%ADD13C,0.203200*%
%ADD14C,0.350000*%
G04 APERTURE END LIST*
D10*
X146877141Y-140154819D02*
X146543808Y-139678628D01*
X146305713Y-140154819D02*
X146305713Y-139154819D01*
X146305713Y-139154819D02*
X146686665Y-139154819D01*
X146686665Y-139154819D02*
X146781903Y-139202438D01*
X146781903Y-139202438D02*
X146829522Y-139250057D01*
X146829522Y-139250057D02*
X146877141Y-139345295D01*
X146877141Y-139345295D02*
X146877141Y-139488152D01*
X146877141Y-139488152D02*
X146829522Y-139583390D01*
X146829522Y-139583390D02*
X146781903Y-139631009D01*
X146781903Y-139631009D02*
X146686665Y-139678628D01*
X146686665Y-139678628D02*
X146305713Y-139678628D01*
X147305713Y-139631009D02*
X147639046Y-139631009D01*
X147781903Y-140154819D02*
X147305713Y-140154819D01*
X147305713Y-140154819D02*
X147305713Y-139154819D01*
X147305713Y-139154819D02*
X147781903Y-139154819D01*
X148210475Y-140154819D02*
X148210475Y-139154819D01*
X148210475Y-139154819D02*
X148448570Y-139154819D01*
X148448570Y-139154819D02*
X148591427Y-139202438D01*
X148591427Y-139202438D02*
X148686665Y-139297676D01*
X148686665Y-139297676D02*
X148734284Y-139392914D01*
X148734284Y-139392914D02*
X148781903Y-139583390D01*
X148781903Y-139583390D02*
X148781903Y-139726247D01*
X148781903Y-139726247D02*
X148734284Y-139916723D01*
X148734284Y-139916723D02*
X148686665Y-140011961D01*
X148686665Y-140011961D02*
X148591427Y-140107200D01*
X148591427Y-140107200D02*
X148448570Y-140154819D01*
X148448570Y-140154819D02*
X148210475Y-140154819D01*
X149210475Y-139631009D02*
X149543808Y-139631009D01*
X149686665Y-140154819D02*
X149210475Y-140154819D01*
X149210475Y-140154819D02*
X149210475Y-139154819D01*
X149210475Y-139154819D02*
X149686665Y-139154819D01*
X150067618Y-140107200D02*
X150210475Y-140154819D01*
X150210475Y-140154819D02*
X150448570Y-140154819D01*
X150448570Y-140154819D02*
X150543808Y-140107200D01*
X150543808Y-140107200D02*
X150591427Y-140059580D01*
X150591427Y-140059580D02*
X150639046Y-139964342D01*
X150639046Y-139964342D02*
X150639046Y-139869104D01*
X150639046Y-139869104D02*
X150591427Y-139773866D01*
X150591427Y-139773866D02*
X150543808Y-139726247D01*
X150543808Y-139726247D02*
X150448570Y-139678628D01*
X150448570Y-139678628D02*
X150258094Y-139631009D01*
X150258094Y-139631009D02*
X150162856Y-139583390D01*
X150162856Y-139583390D02*
X150115237Y-139535771D01*
X150115237Y-139535771D02*
X150067618Y-139440533D01*
X150067618Y-139440533D02*
X150067618Y-139345295D01*
X150067618Y-139345295D02*
X150115237Y-139250057D01*
X150115237Y-139250057D02*
X150162856Y-139202438D01*
X150162856Y-139202438D02*
X150258094Y-139154819D01*
X150258094Y-139154819D02*
X150496189Y-139154819D01*
X150496189Y-139154819D02*
X150639046Y-139202438D01*
X151067618Y-140154819D02*
X151067618Y-139154819D01*
X152067617Y-139202438D02*
X151972379Y-139154819D01*
X151972379Y-139154819D02*
X151829522Y-139154819D01*
X151829522Y-139154819D02*
X151686665Y-139202438D01*
X151686665Y-139202438D02*
X151591427Y-139297676D01*
X151591427Y-139297676D02*
X151543808Y-139392914D01*
X151543808Y-139392914D02*
X151496189Y-139583390D01*
X151496189Y-139583390D02*
X151496189Y-139726247D01*
X151496189Y-139726247D02*
X151543808Y-139916723D01*
X151543808Y-139916723D02*
X151591427Y-140011961D01*
X151591427Y-140011961D02*
X151686665Y-140107200D01*
X151686665Y-140107200D02*
X151829522Y-140154819D01*
X151829522Y-140154819D02*
X151924760Y-140154819D01*
X151924760Y-140154819D02*
X152067617Y-140107200D01*
X152067617Y-140107200D02*
X152115236Y-140059580D01*
X152115236Y-140059580D02*
X152115236Y-139726247D01*
X152115236Y-139726247D02*
X151924760Y-139726247D01*
X152543808Y-140154819D02*
X152543808Y-139154819D01*
X152543808Y-139154819D02*
X153115236Y-140154819D01*
X153115236Y-140154819D02*
X153115236Y-139154819D01*
X153591427Y-139631009D02*
X153924760Y-139631009D01*
X154067617Y-140154819D02*
X153591427Y-140154819D01*
X153591427Y-140154819D02*
X153591427Y-139154819D01*
X153591427Y-139154819D02*
X154067617Y-139154819D01*
X154496189Y-140154819D02*
X154496189Y-139154819D01*
X154496189Y-139154819D02*
X154734284Y-139154819D01*
X154734284Y-139154819D02*
X154877141Y-139202438D01*
X154877141Y-139202438D02*
X154972379Y-139297676D01*
X154972379Y-139297676D02*
X155019998Y-139392914D01*
X155019998Y-139392914D02*
X155067617Y-139583390D01*
X155067617Y-139583390D02*
X155067617Y-139726247D01*
X155067617Y-139726247D02*
X155019998Y-139916723D01*
X155019998Y-139916723D02*
X154972379Y-140011961D01*
X154972379Y-140011961D02*
X154877141Y-140107200D01*
X154877141Y-140107200D02*
X154734284Y-140154819D01*
X154734284Y-140154819D02*
X154496189Y-140154819D01*
X156258094Y-140154819D02*
X156258094Y-139154819D01*
X156734284Y-140154819D02*
X156734284Y-139154819D01*
X156734284Y-139154819D02*
X157305712Y-140154819D01*
X157305712Y-140154819D02*
X157305712Y-139154819D01*
X158496189Y-139250057D02*
X158543808Y-139202438D01*
X158543808Y-139202438D02*
X158639046Y-139154819D01*
X158639046Y-139154819D02*
X158877141Y-139154819D01*
X158877141Y-139154819D02*
X158972379Y-139202438D01*
X158972379Y-139202438D02*
X159019998Y-139250057D01*
X159019998Y-139250057D02*
X159067617Y-139345295D01*
X159067617Y-139345295D02*
X159067617Y-139440533D01*
X159067617Y-139440533D02*
X159019998Y-139583390D01*
X159019998Y-139583390D02*
X158448570Y-140154819D01*
X158448570Y-140154819D02*
X159067617Y-140154819D01*
X159686665Y-139154819D02*
X159781903Y-139154819D01*
X159781903Y-139154819D02*
X159877141Y-139202438D01*
X159877141Y-139202438D02*
X159924760Y-139250057D01*
X159924760Y-139250057D02*
X159972379Y-139345295D01*
X159972379Y-139345295D02*
X160019998Y-139535771D01*
X160019998Y-139535771D02*
X160019998Y-139773866D01*
X160019998Y-139773866D02*
X159972379Y-139964342D01*
X159972379Y-139964342D02*
X159924760Y-140059580D01*
X159924760Y-140059580D02*
X159877141Y-140107200D01*
X159877141Y-140107200D02*
X159781903Y-140154819D01*
X159781903Y-140154819D02*
X159686665Y-140154819D01*
X159686665Y-140154819D02*
X159591427Y-140107200D01*
X159591427Y-140107200D02*
X159543808Y-140059580D01*
X159543808Y-140059580D02*
X159496189Y-139964342D01*
X159496189Y-139964342D02*
X159448570Y-139773866D01*
X159448570Y-139773866D02*
X159448570Y-139535771D01*
X159448570Y-139535771D02*
X159496189Y-139345295D01*
X159496189Y-139345295D02*
X159543808Y-139250057D01*
X159543808Y-139250057D02*
X159591427Y-139202438D01*
X159591427Y-139202438D02*
X159686665Y-139154819D01*
X160400951Y-139250057D02*
X160448570Y-139202438D01*
X160448570Y-139202438D02*
X160543808Y-139154819D01*
X160543808Y-139154819D02*
X160781903Y-139154819D01*
X160781903Y-139154819D02*
X160877141Y-139202438D01*
X160877141Y-139202438D02*
X160924760Y-139250057D01*
X160924760Y-139250057D02*
X160972379Y-139345295D01*
X160972379Y-139345295D02*
X160972379Y-139440533D01*
X160972379Y-139440533D02*
X160924760Y-139583390D01*
X160924760Y-139583390D02*
X160353332Y-140154819D01*
X160353332Y-140154819D02*
X160972379Y-140154819D01*
X161829522Y-139488152D02*
X161829522Y-140154819D01*
X161591427Y-139107200D02*
X161353332Y-139821485D01*
X161353332Y-139821485D02*
X161972379Y-139821485D01*
X163448570Y-139631009D02*
X163591427Y-139678628D01*
X163591427Y-139678628D02*
X163639046Y-139726247D01*
X163639046Y-139726247D02*
X163686665Y-139821485D01*
X163686665Y-139821485D02*
X163686665Y-139964342D01*
X163686665Y-139964342D02*
X163639046Y-140059580D01*
X163639046Y-140059580D02*
X163591427Y-140107200D01*
X163591427Y-140107200D02*
X163496189Y-140154819D01*
X163496189Y-140154819D02*
X163115237Y-140154819D01*
X163115237Y-140154819D02*
X163115237Y-139154819D01*
X163115237Y-139154819D02*
X163448570Y-139154819D01*
X163448570Y-139154819D02*
X163543808Y-139202438D01*
X163543808Y-139202438D02*
X163591427Y-139250057D01*
X163591427Y-139250057D02*
X163639046Y-139345295D01*
X163639046Y-139345295D02*
X163639046Y-139440533D01*
X163639046Y-139440533D02*
X163591427Y-139535771D01*
X163591427Y-139535771D02*
X163543808Y-139583390D01*
X163543808Y-139583390D02*
X163448570Y-139631009D01*
X163448570Y-139631009D02*
X163115237Y-139631009D01*
X164305713Y-139678628D02*
X164305713Y-140154819D01*
X163972380Y-139154819D02*
X164305713Y-139678628D01*
X164305713Y-139678628D02*
X164639046Y-139154819D01*
X165686666Y-139869104D02*
X166162856Y-139869104D01*
X165591428Y-140154819D02*
X165924761Y-139154819D01*
X165924761Y-139154819D02*
X166258094Y-140154819D01*
X166734285Y-140154819D02*
X166639047Y-140107200D01*
X166639047Y-140107200D02*
X166591428Y-140011961D01*
X166591428Y-140011961D02*
X166591428Y-139154819D01*
X167020000Y-139488152D02*
X167258095Y-140154819D01*
X167258095Y-140154819D02*
X167496190Y-139488152D01*
X168305714Y-140154819D02*
X168305714Y-139631009D01*
X168305714Y-139631009D02*
X168258095Y-139535771D01*
X168258095Y-139535771D02*
X168162857Y-139488152D01*
X168162857Y-139488152D02*
X167972381Y-139488152D01*
X167972381Y-139488152D02*
X167877143Y-139535771D01*
X168305714Y-140107200D02*
X168210476Y-140154819D01*
X168210476Y-140154819D02*
X167972381Y-140154819D01*
X167972381Y-140154819D02*
X167877143Y-140107200D01*
X167877143Y-140107200D02*
X167829524Y-140011961D01*
X167829524Y-140011961D02*
X167829524Y-139916723D01*
X167829524Y-139916723D02*
X167877143Y-139821485D01*
X167877143Y-139821485D02*
X167972381Y-139773866D01*
X167972381Y-139773866D02*
X168210476Y-139773866D01*
X168210476Y-139773866D02*
X168305714Y-139726247D01*
X168781905Y-140154819D02*
X168781905Y-139488152D01*
X168781905Y-139678628D02*
X168829524Y-139583390D01*
X168829524Y-139583390D02*
X168877143Y-139535771D01*
X168877143Y-139535771D02*
X168972381Y-139488152D01*
X168972381Y-139488152D02*
X169067619Y-139488152D01*
X169543810Y-140154819D02*
X169448572Y-140107200D01*
X169448572Y-140107200D02*
X169400953Y-140059580D01*
X169400953Y-140059580D02*
X169353334Y-139964342D01*
X169353334Y-139964342D02*
X169353334Y-139678628D01*
X169353334Y-139678628D02*
X169400953Y-139583390D01*
X169400953Y-139583390D02*
X169448572Y-139535771D01*
X169448572Y-139535771D02*
X169543810Y-139488152D01*
X169543810Y-139488152D02*
X169686667Y-139488152D01*
X169686667Y-139488152D02*
X169781905Y-139535771D01*
X169781905Y-139535771D02*
X169829524Y-139583390D01*
X169829524Y-139583390D02*
X169877143Y-139678628D01*
X169877143Y-139678628D02*
X169877143Y-139964342D01*
X169877143Y-139964342D02*
X169829524Y-140059580D01*
X169829524Y-140059580D02*
X169781905Y-140107200D01*
X169781905Y-140107200D02*
X169686667Y-140154819D01*
X169686667Y-140154819D02*
X169543810Y-140154819D01*
X171020001Y-139869104D02*
X171496191Y-139869104D01*
X170924763Y-140154819D02*
X171258096Y-139154819D01*
X171258096Y-139154819D02*
X171591429Y-140154819D01*
X172067620Y-140154819D02*
X171972382Y-140107200D01*
X171972382Y-140107200D02*
X171924763Y-140011961D01*
X171924763Y-140011961D02*
X171924763Y-139154819D01*
X172829525Y-140107200D02*
X172734287Y-140154819D01*
X172734287Y-140154819D02*
X172543811Y-140154819D01*
X172543811Y-140154819D02*
X172448573Y-140107200D01*
X172448573Y-140107200D02*
X172400954Y-140011961D01*
X172400954Y-140011961D02*
X172400954Y-139631009D01*
X172400954Y-139631009D02*
X172448573Y-139535771D01*
X172448573Y-139535771D02*
X172543811Y-139488152D01*
X172543811Y-139488152D02*
X172734287Y-139488152D01*
X172734287Y-139488152D02*
X172829525Y-139535771D01*
X172829525Y-139535771D02*
X172877144Y-139631009D01*
X172877144Y-139631009D02*
X172877144Y-139726247D01*
X172877144Y-139726247D02*
X172400954Y-139821485D01*
X173734287Y-140154819D02*
X173734287Y-139631009D01*
X173734287Y-139631009D02*
X173686668Y-139535771D01*
X173686668Y-139535771D02*
X173591430Y-139488152D01*
X173591430Y-139488152D02*
X173400954Y-139488152D01*
X173400954Y-139488152D02*
X173305716Y-139535771D01*
X173734287Y-140107200D02*
X173639049Y-140154819D01*
X173639049Y-140154819D02*
X173400954Y-140154819D01*
X173400954Y-140154819D02*
X173305716Y-140107200D01*
X173305716Y-140107200D02*
X173258097Y-140011961D01*
X173258097Y-140011961D02*
X173258097Y-139916723D01*
X173258097Y-139916723D02*
X173305716Y-139821485D01*
X173305716Y-139821485D02*
X173400954Y-139773866D01*
X173400954Y-139773866D02*
X173639049Y-139773866D01*
X173639049Y-139773866D02*
X173734287Y-139726247D01*
D11*
G36*
X110755802Y-134894424D02*
G01*
X111006151Y-134927397D01*
X111292468Y-134999525D01*
X111549210Y-135105999D01*
X111776375Y-135246820D01*
X111973963Y-135421988D01*
X112110739Y-135586852D01*
X112251066Y-135819765D01*
X112353766Y-136079631D01*
X112418839Y-136366450D01*
X112443808Y-136615310D01*
X112444695Y-136881420D01*
X112421501Y-137164780D01*
X112374227Y-137465390D01*
X112358646Y-137543237D01*
X112302203Y-137784995D01*
X112223329Y-138053046D01*
X112130431Y-138306019D01*
X112023508Y-138543916D01*
X111938548Y-138704612D01*
X111806914Y-138916553D01*
X111655188Y-139119606D01*
X111483369Y-139313772D01*
X111379232Y-139417801D01*
X111586636Y-139572770D01*
X111808744Y-139701379D01*
X112035968Y-139807135D01*
X112089979Y-139829351D01*
X111530662Y-140595052D01*
X111300158Y-140512315D01*
X111092247Y-140408206D01*
X110894023Y-140263263D01*
X110683339Y-140102693D01*
X110534152Y-139988108D01*
X110271514Y-140080005D01*
X110033567Y-140138876D01*
X109788023Y-140177645D01*
X109534882Y-140196311D01*
X109424068Y-140198157D01*
X109145307Y-140187185D01*
X108886657Y-140154270D01*
X108648120Y-140099411D01*
X108378230Y-139999978D01*
X108139766Y-139866259D01*
X107932726Y-139698252D01*
X107757110Y-139495959D01*
X107616432Y-139262545D01*
X107513440Y-139001940D01*
X107448134Y-138714143D01*
X107423022Y-138464329D01*
X107422030Y-138197112D01*
X107431182Y-138084475D01*
X108540976Y-138084475D01*
X108547874Y-138338383D01*
X108596619Y-138594779D01*
X108705994Y-138835282D01*
X108883459Y-139040718D01*
X109105360Y-139178920D01*
X109371696Y-139249889D01*
X109538862Y-139260265D01*
X109783286Y-139241217D01*
X109866147Y-139219965D01*
X109637170Y-139112498D01*
X109396273Y-139028778D01*
X109333698Y-139009916D01*
X109789211Y-138313824D01*
X110026279Y-138411979D01*
X110246556Y-138526926D01*
X110474295Y-138676312D01*
X110636734Y-138807194D01*
X110798747Y-138622328D01*
X110934703Y-138415905D01*
X111007983Y-138279630D01*
X111110845Y-138044061D01*
X111189079Y-137810122D01*
X111252763Y-137557340D01*
X111258332Y-137531025D01*
X111303340Y-137270629D01*
X111328070Y-136987040D01*
X111320857Y-136734964D01*
X111272070Y-136480705D01*
X111163077Y-136242644D01*
X110983787Y-136038979D01*
X110755039Y-135901968D01*
X110510185Y-135836137D01*
X110300900Y-135821325D01*
X110048143Y-135841720D01*
X109808125Y-135902903D01*
X109580847Y-136004876D01*
X109366308Y-136147638D01*
X109249434Y-136247529D01*
X109061985Y-136454914D01*
X108922709Y-136665974D01*
X108803183Y-136907774D01*
X108703406Y-137180315D01*
X108635345Y-137430914D01*
X108611960Y-137537131D01*
X108566278Y-137799054D01*
X108540976Y-138084475D01*
X107431182Y-138084475D01*
X107445157Y-137912493D01*
X107492403Y-137610471D01*
X107507983Y-137532247D01*
X107581427Y-137227954D01*
X107671702Y-136940950D01*
X107778806Y-136671233D01*
X107902740Y-136418804D01*
X108043504Y-136183663D01*
X108201098Y-135965810D01*
X108375522Y-135765245D01*
X108566775Y-135581967D01*
X108771482Y-135418248D01*
X108986263Y-135276359D01*
X109211119Y-135156298D01*
X109446050Y-135058066D01*
X109691056Y-134981664D01*
X109946137Y-134927091D01*
X110211293Y-134894347D01*
X110486524Y-134883433D01*
X110755802Y-134894424D01*
G37*
G36*
X112492979Y-139031898D02*
G01*
X113551772Y-138863370D01*
X113592072Y-139117383D01*
X113700760Y-139288353D01*
X113932428Y-139395418D01*
X114162379Y-139416580D01*
X114406870Y-139398033D01*
X114653075Y-139322685D01*
X114720474Y-139284689D01*
X114872210Y-139087406D01*
X114881674Y-139051437D01*
X114860914Y-138902449D01*
X114629954Y-138799420D01*
X114589804Y-138788876D01*
X114328617Y-138724495D01*
X114038626Y-138645844D01*
X113789184Y-138569220D01*
X113543376Y-138479947D01*
X113306461Y-138365458D01*
X113226929Y-138310160D01*
X113052416Y-138115372D01*
X112956149Y-137882716D01*
X112938127Y-137612193D01*
X112961926Y-137445540D01*
X113034053Y-137210533D01*
X113166471Y-136969688D01*
X113329751Y-136776526D01*
X113507808Y-136623663D01*
X113718474Y-136493758D01*
X113961513Y-136395759D01*
X114236927Y-136329667D01*
X114498763Y-136298411D01*
X114735129Y-136290272D01*
X115000156Y-136299631D01*
X115270828Y-136334209D01*
X115529363Y-136404925D01*
X115755439Y-136524258D01*
X115796364Y-136556496D01*
X115965736Y-136751151D01*
X116071062Y-136974673D01*
X116131759Y-137243983D01*
X116144410Y-137378374D01*
X115143014Y-137548122D01*
X115095101Y-137306966D01*
X115008681Y-137182979D01*
X114779474Y-137084980D01*
X114605680Y-137071849D01*
X114360846Y-137085931D01*
X114116145Y-137148518D01*
X114069567Y-137171988D01*
X113938897Y-137342958D01*
X113985303Y-137480956D01*
X114214961Y-137584461D01*
X114483101Y-137664596D01*
X114759240Y-137736273D01*
X114803517Y-137747180D01*
X115056852Y-137815802D01*
X115310953Y-137903783D01*
X115546685Y-138014780D01*
X115759348Y-138169197D01*
X115775603Y-138185596D01*
X115909635Y-138397788D01*
X115959105Y-138659909D01*
X115936683Y-138911509D01*
X115930697Y-138941528D01*
X115853227Y-139190198D01*
X115727060Y-139420854D01*
X115552197Y-139633498D01*
X115359247Y-139804786D01*
X115328639Y-139828129D01*
X115096410Y-139972310D01*
X114833560Y-140081078D01*
X114583889Y-140146122D01*
X114311720Y-140185148D01*
X114067728Y-140197796D01*
X114017055Y-140198157D01*
X113751083Y-140187467D01*
X113473449Y-140147972D01*
X113230993Y-140079375D01*
X112996978Y-139965344D01*
X112897201Y-139894075D01*
X112713651Y-139702936D01*
X112584775Y-139471611D01*
X112516120Y-139232253D01*
X112492979Y-139031898D01*
G37*
G36*
X119196145Y-136303808D02*
G01*
X119468400Y-136355786D01*
X119711631Y-136446747D01*
X119925840Y-136576692D01*
X120111026Y-136745620D01*
X120192735Y-136844703D01*
X120328075Y-137062790D01*
X120421770Y-137301227D01*
X120473819Y-137560015D01*
X120484224Y-137839153D01*
X120461081Y-138087313D01*
X120433314Y-138242993D01*
X120367203Y-138499341D01*
X120278015Y-138741735D01*
X120165750Y-138970176D01*
X120030409Y-139184664D01*
X119871991Y-139385198D01*
X119690496Y-139571779D01*
X119611437Y-139642505D01*
X119405620Y-139802580D01*
X119191931Y-139935525D01*
X118970371Y-140041337D01*
X118694110Y-140132499D01*
X118406514Y-140184591D01*
X118158192Y-140198157D01*
X117913033Y-140183579D01*
X117651097Y-140132327D01*
X117403844Y-140044174D01*
X117247166Y-139964905D01*
X117038006Y-139815819D01*
X116870770Y-139632344D01*
X116745458Y-139414479D01*
X116693956Y-139278583D01*
X116635417Y-139009348D01*
X116622230Y-138782463D01*
X117674880Y-138782463D01*
X117727831Y-139021602D01*
X117775952Y-139121046D01*
X117947842Y-139312393D01*
X118175761Y-139406190D01*
X118299853Y-139416580D01*
X118557854Y-139374162D01*
X118782587Y-139260752D01*
X118958087Y-139114940D01*
X119115824Y-138922363D01*
X119244195Y-138685349D01*
X119333649Y-138437367D01*
X119385512Y-138228339D01*
X119425812Y-137963030D01*
X119427358Y-137704700D01*
X119366278Y-137446685D01*
X119326894Y-137368604D01*
X119155795Y-137176467D01*
X118928263Y-137082282D01*
X118804214Y-137071849D01*
X118545870Y-137114439D01*
X118320219Y-137228307D01*
X118143538Y-137374710D01*
X117985897Y-137566117D01*
X117857816Y-137800995D01*
X117768782Y-138046268D01*
X117717334Y-138252763D01*
X117676576Y-138521354D01*
X117674880Y-138782463D01*
X116622230Y-138782463D01*
X116620037Y-138744726D01*
X116634880Y-138493647D01*
X116676137Y-138224336D01*
X116684187Y-138184375D01*
X116749750Y-137940895D01*
X116843860Y-137701385D01*
X116966516Y-137465843D01*
X117117718Y-137234270D01*
X117292657Y-137018268D01*
X117486524Y-136829438D01*
X117699321Y-136667780D01*
X117931046Y-136533293D01*
X118175900Y-136426971D01*
X118426859Y-136351027D01*
X118683925Y-136305461D01*
X118947096Y-136290272D01*
X119196145Y-136303808D01*
G37*
G36*
X123122428Y-140120000D02*
G01*
X123215240Y-139673035D01*
X123019500Y-139843570D01*
X122800311Y-139974974D01*
X122692561Y-140028408D01*
X122445434Y-140125053D01*
X122197730Y-140181580D01*
X121972044Y-140198157D01*
X121709464Y-140174286D01*
X121458723Y-140094551D01*
X121338234Y-140028408D01*
X121145191Y-139853932D01*
X121025546Y-139627564D01*
X121004842Y-139553356D01*
X120977880Y-139292551D01*
X120993980Y-139027986D01*
X121032105Y-138785422D01*
X121045143Y-138720488D01*
X121533628Y-136368429D01*
X122557006Y-136368429D01*
X122193084Y-138122093D01*
X122138816Y-138391886D01*
X122091132Y-138652381D01*
X122054552Y-138901438D01*
X122046538Y-139064870D01*
X122134734Y-139292975D01*
X122164996Y-139323768D01*
X122396125Y-139413317D01*
X122466636Y-139416580D01*
X122720114Y-139374849D01*
X122908715Y-139284689D01*
X123104239Y-139125335D01*
X123228674Y-138954961D01*
X123318834Y-138722949D01*
X123387527Y-138475348D01*
X123453269Y-138197714D01*
X123503447Y-137964556D01*
X123834396Y-136368429D01*
X124857773Y-136368429D01*
X124078639Y-140120000D01*
X123122428Y-140120000D01*
G37*
G36*
X128373649Y-140120000D02*
G01*
X127350272Y-140120000D01*
X127754494Y-138177048D01*
X127801502Y-137936888D01*
X127841505Y-137688562D01*
X127858034Y-137437450D01*
X127855854Y-137415010D01*
X127759641Y-137189191D01*
X127728848Y-137159776D01*
X127490826Y-137073223D01*
X127447969Y-137071849D01*
X127203403Y-137109761D01*
X126997341Y-137206182D01*
X126807137Y-137362192D01*
X126666392Y-137563998D01*
X126569912Y-137811468D01*
X126500521Y-138058828D01*
X126437056Y-138330930D01*
X126420928Y-138406636D01*
X126065554Y-140120000D01*
X125042177Y-140120000D01*
X125821311Y-136368429D01*
X126777522Y-136368429D01*
X126684710Y-136820279D01*
X126884149Y-136640159D01*
X127098702Y-136497306D01*
X127328366Y-136391718D01*
X127573143Y-136323397D01*
X127833033Y-136292342D01*
X127923021Y-136290272D01*
X128171871Y-136310225D01*
X128410561Y-136376342D01*
X128488443Y-136411172D01*
X128695744Y-136549169D01*
X128831605Y-136721360D01*
X128917959Y-136962069D01*
X128937850Y-137145122D01*
X128922376Y-137407873D01*
X128884083Y-137655131D01*
X128853586Y-137809462D01*
X128373649Y-140120000D01*
G37*
G36*
X132674766Y-140120000D02*
G01*
X131718555Y-140120000D01*
X131810146Y-139677920D01*
X131613965Y-139852029D01*
X131402275Y-139984149D01*
X131281360Y-140044284D01*
X131033091Y-140138051D01*
X130792035Y-140188540D01*
X130635338Y-140198157D01*
X130371002Y-140173088D01*
X130134716Y-140097879D01*
X129899022Y-139950532D01*
X129722843Y-139767883D01*
X129655924Y-139674256D01*
X129531445Y-139425290D01*
X129465585Y-139181285D01*
X129437421Y-138909031D01*
X129441913Y-138699422D01*
X130487266Y-138699422D01*
X130504018Y-138956243D01*
X130529092Y-139046552D01*
X130665792Y-139272038D01*
X130892952Y-139398874D01*
X131049330Y-139416580D01*
X131295528Y-139369216D01*
X131514202Y-139241418D01*
X131637955Y-139129595D01*
X131797881Y-138921607D01*
X131915100Y-138685473D01*
X131998047Y-138436651D01*
X132039734Y-138262533D01*
X132084297Y-137998673D01*
X132101737Y-137740481D01*
X132073306Y-137482786D01*
X132020195Y-137345401D01*
X131854968Y-137158402D01*
X131624293Y-137076123D01*
X131546364Y-137071849D01*
X131293452Y-137117600D01*
X131072517Y-137241048D01*
X130949190Y-137349064D01*
X130791792Y-137549110D01*
X130677256Y-137776259D01*
X130597019Y-138015636D01*
X130557180Y-138183154D01*
X130512843Y-138429833D01*
X130487266Y-138699422D01*
X129441913Y-138699422D01*
X129442746Y-138660572D01*
X129474248Y-138392495D01*
X129505715Y-138222233D01*
X129575475Y-137938235D01*
X129661873Y-137676240D01*
X129764907Y-137436249D01*
X129884577Y-137218261D01*
X130050143Y-136985720D01*
X130239665Y-136784863D01*
X130446088Y-136616780D01*
X130661441Y-136483472D01*
X130885725Y-136384940D01*
X131158676Y-136313939D01*
X131402308Y-136290755D01*
X131443782Y-136290272D01*
X131698943Y-136311660D01*
X131952059Y-136388482D01*
X132164111Y-136521174D01*
X132335100Y-136709737D01*
X132353586Y-136737236D01*
X132723614Y-134961591D01*
X133746992Y-134961591D01*
X132674766Y-140120000D01*
G37*
G36*
X136874521Y-139103949D02*
G01*
X136663251Y-140120000D01*
X133268276Y-140120000D01*
X133354804Y-139879314D01*
X133459448Y-139648797D01*
X133582208Y-139428448D01*
X133723083Y-139218266D01*
X133811716Y-139102728D01*
X134000050Y-138888940D01*
X134206130Y-138683462D01*
X134409348Y-138496553D01*
X134641188Y-138295392D01*
X134847268Y-138124203D01*
X135071666Y-137943892D01*
X135130628Y-137897390D01*
X135354370Y-137719139D01*
X135550086Y-137559910D01*
X135747951Y-137393944D01*
X135948994Y-137215265D01*
X136078290Y-137085282D01*
X136227054Y-136887455D01*
X136344820Y-136656636D01*
X136386036Y-136516196D01*
X136404515Y-136265072D01*
X136326196Y-136057020D01*
X136112007Y-135921637D01*
X135924417Y-135899483D01*
X135678266Y-135937318D01*
X135453562Y-136061081D01*
X135440816Y-136071674D01*
X135279329Y-136273766D01*
X135174749Y-136504704D01*
X135118415Y-136684724D01*
X134117020Y-136580921D01*
X134208384Y-136316911D01*
X134312271Y-136078243D01*
X134453464Y-135825294D01*
X134612690Y-135608839D01*
X134789947Y-135428877D01*
X134918136Y-135329176D01*
X135157085Y-135185947D01*
X135410176Y-135077897D01*
X135677408Y-135005026D01*
X135958783Y-134967334D01*
X136125917Y-134961591D01*
X136392018Y-134976145D01*
X136666655Y-135029915D01*
X136902724Y-135123306D01*
X137125290Y-135278553D01*
X137217683Y-135375582D01*
X137360870Y-135595095D01*
X137444829Y-135839644D01*
X137469558Y-136109227D01*
X137442610Y-136365648D01*
X137435059Y-136403845D01*
X137365793Y-136658239D01*
X137264241Y-136903016D01*
X137178604Y-137060858D01*
X137033671Y-137277431D01*
X136871860Y-137480077D01*
X136701758Y-137667148D01*
X136660809Y-137709323D01*
X136472598Y-137886606D01*
X136263437Y-138065574D01*
X136066429Y-138225875D01*
X135907320Y-138351681D01*
X135692363Y-138520489D01*
X135492065Y-138680640D01*
X135295668Y-138843769D01*
X135227103Y-138904891D01*
X135053834Y-139077603D01*
X135031709Y-139103949D01*
X136874521Y-139103949D01*
G37*
G36*
X138718555Y-139416580D02*
G01*
X138994549Y-138087899D01*
X137704947Y-138087899D01*
X137899120Y-137150006D01*
X139188722Y-137150006D01*
X139465938Y-135821325D01*
X140405052Y-135821325D01*
X140127836Y-137150006D01*
X141422323Y-137150006D01*
X141228150Y-138087899D01*
X139933663Y-138087899D01*
X139657669Y-139416580D01*
X138718555Y-139416580D01*
G37*
D10*
X193129819Y-100504048D02*
X193844104Y-100504048D01*
X193844104Y-100504048D02*
X193986961Y-100551667D01*
X193986961Y-100551667D02*
X194082200Y-100646905D01*
X194082200Y-100646905D02*
X194129819Y-100789762D01*
X194129819Y-100789762D02*
X194129819Y-100885000D01*
X194129819Y-99551667D02*
X194129819Y-100027857D01*
X194129819Y-100027857D02*
X193129819Y-100027857D01*
X194034580Y-98646905D02*
X194082200Y-98694524D01*
X194082200Y-98694524D02*
X194129819Y-98837381D01*
X194129819Y-98837381D02*
X194129819Y-98932619D01*
X194129819Y-98932619D02*
X194082200Y-99075476D01*
X194082200Y-99075476D02*
X193986961Y-99170714D01*
X193986961Y-99170714D02*
X193891723Y-99218333D01*
X193891723Y-99218333D02*
X193701247Y-99265952D01*
X193701247Y-99265952D02*
X193558390Y-99265952D01*
X193558390Y-99265952D02*
X193367914Y-99218333D01*
X193367914Y-99218333D02*
X193272676Y-99170714D01*
X193272676Y-99170714D02*
X193177438Y-99075476D01*
X193177438Y-99075476D02*
X193129819Y-98932619D01*
X193129819Y-98932619D02*
X193129819Y-98837381D01*
X193129819Y-98837381D02*
X193177438Y-98694524D01*
X193177438Y-98694524D02*
X193225057Y-98646905D01*
X193129819Y-97932619D02*
X193844104Y-97932619D01*
X193844104Y-97932619D02*
X193986961Y-97980238D01*
X193986961Y-97980238D02*
X194082200Y-98075476D01*
X194082200Y-98075476D02*
X194129819Y-98218333D01*
X194129819Y-98218333D02*
X194129819Y-98313571D01*
X194129819Y-96980238D02*
X194129819Y-97456428D01*
X194129819Y-97456428D02*
X193129819Y-97456428D01*
X194034580Y-96075476D02*
X194082200Y-96123095D01*
X194082200Y-96123095D02*
X194129819Y-96265952D01*
X194129819Y-96265952D02*
X194129819Y-96361190D01*
X194129819Y-96361190D02*
X194082200Y-96504047D01*
X194082200Y-96504047D02*
X193986961Y-96599285D01*
X193986961Y-96599285D02*
X193891723Y-96646904D01*
X193891723Y-96646904D02*
X193701247Y-96694523D01*
X193701247Y-96694523D02*
X193558390Y-96694523D01*
X193558390Y-96694523D02*
X193367914Y-96646904D01*
X193367914Y-96646904D02*
X193272676Y-96599285D01*
X193272676Y-96599285D02*
X193177438Y-96504047D01*
X193177438Y-96504047D02*
X193129819Y-96361190D01*
X193129819Y-96361190D02*
X193129819Y-96265952D01*
X193129819Y-96265952D02*
X193177438Y-96123095D01*
X193177438Y-96123095D02*
X193225057Y-96075476D01*
X193129819Y-95361190D02*
X193844104Y-95361190D01*
X193844104Y-95361190D02*
X193986961Y-95408809D01*
X193986961Y-95408809D02*
X194082200Y-95504047D01*
X194082200Y-95504047D02*
X194129819Y-95646904D01*
X194129819Y-95646904D02*
X194129819Y-95742142D01*
X194129819Y-94408809D02*
X194129819Y-94884999D01*
X194129819Y-94884999D02*
X193129819Y-94884999D01*
X194034580Y-93504047D02*
X194082200Y-93551666D01*
X194082200Y-93551666D02*
X194129819Y-93694523D01*
X194129819Y-93694523D02*
X194129819Y-93789761D01*
X194129819Y-93789761D02*
X194082200Y-93932618D01*
X194082200Y-93932618D02*
X193986961Y-94027856D01*
X193986961Y-94027856D02*
X193891723Y-94075475D01*
X193891723Y-94075475D02*
X193701247Y-94123094D01*
X193701247Y-94123094D02*
X193558390Y-94123094D01*
X193558390Y-94123094D02*
X193367914Y-94075475D01*
X193367914Y-94075475D02*
X193272676Y-94027856D01*
X193272676Y-94027856D02*
X193177438Y-93932618D01*
X193177438Y-93932618D02*
X193129819Y-93789761D01*
X193129819Y-93789761D02*
X193129819Y-93694523D01*
X193129819Y-93694523D02*
X193177438Y-93551666D01*
X193177438Y-93551666D02*
X193225057Y-93504047D01*
X193129819Y-92789761D02*
X193844104Y-92789761D01*
X193844104Y-92789761D02*
X193986961Y-92837380D01*
X193986961Y-92837380D02*
X194082200Y-92932618D01*
X194082200Y-92932618D02*
X194129819Y-93075475D01*
X194129819Y-93075475D02*
X194129819Y-93170713D01*
X194129819Y-91837380D02*
X194129819Y-92313570D01*
X194129819Y-92313570D02*
X193129819Y-92313570D01*
X194034580Y-90932618D02*
X194082200Y-90980237D01*
X194082200Y-90980237D02*
X194129819Y-91123094D01*
X194129819Y-91123094D02*
X194129819Y-91218332D01*
X194129819Y-91218332D02*
X194082200Y-91361189D01*
X194082200Y-91361189D02*
X193986961Y-91456427D01*
X193986961Y-91456427D02*
X193891723Y-91504046D01*
X193891723Y-91504046D02*
X193701247Y-91551665D01*
X193701247Y-91551665D02*
X193558390Y-91551665D01*
X193558390Y-91551665D02*
X193367914Y-91504046D01*
X193367914Y-91504046D02*
X193272676Y-91456427D01*
X193272676Y-91456427D02*
X193177438Y-91361189D01*
X193177438Y-91361189D02*
X193129819Y-91218332D01*
X193129819Y-91218332D02*
X193129819Y-91123094D01*
X193129819Y-91123094D02*
X193177438Y-90980237D01*
X193177438Y-90980237D02*
X193225057Y-90932618D01*
X132169819Y-61721904D02*
X132979342Y-61721904D01*
X132979342Y-61721904D02*
X133074580Y-61674285D01*
X133074580Y-61674285D02*
X133122200Y-61626666D01*
X133122200Y-61626666D02*
X133169819Y-61531428D01*
X133169819Y-61531428D02*
X133169819Y-61340952D01*
X133169819Y-61340952D02*
X133122200Y-61245714D01*
X133122200Y-61245714D02*
X133074580Y-61198095D01*
X133074580Y-61198095D02*
X132979342Y-61150476D01*
X132979342Y-61150476D02*
X132169819Y-61150476D01*
X133169819Y-60626666D02*
X133169819Y-60436190D01*
X133169819Y-60436190D02*
X133122200Y-60340952D01*
X133122200Y-60340952D02*
X133074580Y-60293333D01*
X133074580Y-60293333D02*
X132931723Y-60198095D01*
X132931723Y-60198095D02*
X132741247Y-60150476D01*
X132741247Y-60150476D02*
X132360295Y-60150476D01*
X132360295Y-60150476D02*
X132265057Y-60198095D01*
X132265057Y-60198095D02*
X132217438Y-60245714D01*
X132217438Y-60245714D02*
X132169819Y-60340952D01*
X132169819Y-60340952D02*
X132169819Y-60531428D01*
X132169819Y-60531428D02*
X132217438Y-60626666D01*
X132217438Y-60626666D02*
X132265057Y-60674285D01*
X132265057Y-60674285D02*
X132360295Y-60721904D01*
X132360295Y-60721904D02*
X132598390Y-60721904D01*
X132598390Y-60721904D02*
X132693628Y-60674285D01*
X132693628Y-60674285D02*
X132741247Y-60626666D01*
X132741247Y-60626666D02*
X132788866Y-60531428D01*
X132788866Y-60531428D02*
X132788866Y-60340952D01*
X132788866Y-60340952D02*
X132741247Y-60245714D01*
X132741247Y-60245714D02*
X132693628Y-60198095D01*
X132693628Y-60198095D02*
X132598390Y-60150476D01*
X135953809Y-55858628D02*
X135953809Y-56334819D01*
X135620476Y-55334819D02*
X135953809Y-55858628D01*
X135953809Y-55858628D02*
X136287142Y-55334819D01*
X136620476Y-56334819D02*
X136620476Y-55334819D01*
X136620476Y-55334819D02*
X136953809Y-56049104D01*
X136953809Y-56049104D02*
X137287142Y-55334819D01*
X137287142Y-55334819D02*
X137287142Y-56334819D01*
X137668095Y-55334819D02*
X138287142Y-55334819D01*
X138287142Y-55334819D02*
X137953809Y-55715771D01*
X137953809Y-55715771D02*
X138096666Y-55715771D01*
X138096666Y-55715771D02*
X138191904Y-55763390D01*
X138191904Y-55763390D02*
X138239523Y-55811009D01*
X138239523Y-55811009D02*
X138287142Y-55906247D01*
X138287142Y-55906247D02*
X138287142Y-56144342D01*
X138287142Y-56144342D02*
X138239523Y-56239580D01*
X138239523Y-56239580D02*
X138191904Y-56287200D01*
X138191904Y-56287200D02*
X138096666Y-56334819D01*
X138096666Y-56334819D02*
X137810952Y-56334819D01*
X137810952Y-56334819D02*
X137715714Y-56287200D01*
X137715714Y-56287200D02*
X137668095Y-56239580D01*
X138906190Y-55334819D02*
X139001428Y-55334819D01*
X139001428Y-55334819D02*
X139096666Y-55382438D01*
X139096666Y-55382438D02*
X139144285Y-55430057D01*
X139144285Y-55430057D02*
X139191904Y-55525295D01*
X139191904Y-55525295D02*
X139239523Y-55715771D01*
X139239523Y-55715771D02*
X139239523Y-55953866D01*
X139239523Y-55953866D02*
X139191904Y-56144342D01*
X139191904Y-56144342D02*
X139144285Y-56239580D01*
X139144285Y-56239580D02*
X139096666Y-56287200D01*
X139096666Y-56287200D02*
X139001428Y-56334819D01*
X139001428Y-56334819D02*
X138906190Y-56334819D01*
X138906190Y-56334819D02*
X138810952Y-56287200D01*
X138810952Y-56287200D02*
X138763333Y-56239580D01*
X138763333Y-56239580D02*
X138715714Y-56144342D01*
X138715714Y-56144342D02*
X138668095Y-55953866D01*
X138668095Y-55953866D02*
X138668095Y-55715771D01*
X138668095Y-55715771D02*
X138715714Y-55525295D01*
X138715714Y-55525295D02*
X138763333Y-55430057D01*
X138763333Y-55430057D02*
X138810952Y-55382438D01*
X138810952Y-55382438D02*
X138906190Y-55334819D01*
X140191904Y-56334819D02*
X139620476Y-56334819D01*
X139906190Y-56334819D02*
X139906190Y-55334819D01*
X139906190Y-55334819D02*
X139810952Y-55477676D01*
X139810952Y-55477676D02*
X139715714Y-55572914D01*
X139715714Y-55572914D02*
X139620476Y-55620533D01*
X141049047Y-55668152D02*
X141049047Y-56334819D01*
X140810952Y-55287200D02*
X140572857Y-56001485D01*
X140572857Y-56001485D02*
X141191904Y-56001485D01*
X108674819Y-96265904D02*
X109484342Y-96265904D01*
X109484342Y-96265904D02*
X109579580Y-96218285D01*
X109579580Y-96218285D02*
X109627200Y-96170666D01*
X109627200Y-96170666D02*
X109674819Y-96075428D01*
X109674819Y-96075428D02*
X109674819Y-95884952D01*
X109674819Y-95884952D02*
X109627200Y-95789714D01*
X109627200Y-95789714D02*
X109579580Y-95742095D01*
X109579580Y-95742095D02*
X109484342Y-95694476D01*
X109484342Y-95694476D02*
X108674819Y-95694476D01*
X108674819Y-95313523D02*
X108674819Y-94646857D01*
X108674819Y-94646857D02*
X109674819Y-95075428D01*
X130873809Y-85068628D02*
X130873809Y-85544819D01*
X130540476Y-84544819D02*
X130873809Y-85068628D01*
X130873809Y-85068628D02*
X131207142Y-84544819D01*
X131540476Y-85544819D02*
X131540476Y-84544819D01*
X131540476Y-84544819D02*
X131873809Y-85259104D01*
X131873809Y-85259104D02*
X132207142Y-84544819D01*
X132207142Y-84544819D02*
X132207142Y-85544819D01*
X132635714Y-84640057D02*
X132683333Y-84592438D01*
X132683333Y-84592438D02*
X132778571Y-84544819D01*
X132778571Y-84544819D02*
X133016666Y-84544819D01*
X133016666Y-84544819D02*
X133111904Y-84592438D01*
X133111904Y-84592438D02*
X133159523Y-84640057D01*
X133159523Y-84640057D02*
X133207142Y-84735295D01*
X133207142Y-84735295D02*
X133207142Y-84830533D01*
X133207142Y-84830533D02*
X133159523Y-84973390D01*
X133159523Y-84973390D02*
X132588095Y-85544819D01*
X132588095Y-85544819D02*
X133207142Y-85544819D01*
X133588095Y-84640057D02*
X133635714Y-84592438D01*
X133635714Y-84592438D02*
X133730952Y-84544819D01*
X133730952Y-84544819D02*
X133969047Y-84544819D01*
X133969047Y-84544819D02*
X134064285Y-84592438D01*
X134064285Y-84592438D02*
X134111904Y-84640057D01*
X134111904Y-84640057D02*
X134159523Y-84735295D01*
X134159523Y-84735295D02*
X134159523Y-84830533D01*
X134159523Y-84830533D02*
X134111904Y-84973390D01*
X134111904Y-84973390D02*
X133540476Y-85544819D01*
X133540476Y-85544819D02*
X134159523Y-85544819D01*
X134778571Y-84544819D02*
X134873809Y-84544819D01*
X134873809Y-84544819D02*
X134969047Y-84592438D01*
X134969047Y-84592438D02*
X135016666Y-84640057D01*
X135016666Y-84640057D02*
X135064285Y-84735295D01*
X135064285Y-84735295D02*
X135111904Y-84925771D01*
X135111904Y-84925771D02*
X135111904Y-85163866D01*
X135111904Y-85163866D02*
X135064285Y-85354342D01*
X135064285Y-85354342D02*
X135016666Y-85449580D01*
X135016666Y-85449580D02*
X134969047Y-85497200D01*
X134969047Y-85497200D02*
X134873809Y-85544819D01*
X134873809Y-85544819D02*
X134778571Y-85544819D01*
X134778571Y-85544819D02*
X134683333Y-85497200D01*
X134683333Y-85497200D02*
X134635714Y-85449580D01*
X134635714Y-85449580D02*
X134588095Y-85354342D01*
X134588095Y-85354342D02*
X134540476Y-85163866D01*
X134540476Y-85163866D02*
X134540476Y-84925771D01*
X134540476Y-84925771D02*
X134588095Y-84735295D01*
X134588095Y-84735295D02*
X134635714Y-84640057D01*
X134635714Y-84640057D02*
X134683333Y-84592438D01*
X134683333Y-84592438D02*
X134778571Y-84544819D01*
X135445238Y-84544819D02*
X136064285Y-84544819D01*
X136064285Y-84544819D02*
X135730952Y-84925771D01*
X135730952Y-84925771D02*
X135873809Y-84925771D01*
X135873809Y-84925771D02*
X135969047Y-84973390D01*
X135969047Y-84973390D02*
X136016666Y-85021009D01*
X136016666Y-85021009D02*
X136064285Y-85116247D01*
X136064285Y-85116247D02*
X136064285Y-85354342D01*
X136064285Y-85354342D02*
X136016666Y-85449580D01*
X136016666Y-85449580D02*
X135969047Y-85497200D01*
X135969047Y-85497200D02*
X135873809Y-85544819D01*
X135873809Y-85544819D02*
X135588095Y-85544819D01*
X135588095Y-85544819D02*
X135492857Y-85497200D01*
X135492857Y-85497200D02*
X135445238Y-85449580D01*
X184504580Y-55426666D02*
X184552200Y-55474285D01*
X184552200Y-55474285D02*
X184599819Y-55617142D01*
X184599819Y-55617142D02*
X184599819Y-55712380D01*
X184599819Y-55712380D02*
X184552200Y-55855237D01*
X184552200Y-55855237D02*
X184456961Y-55950475D01*
X184456961Y-55950475D02*
X184361723Y-55998094D01*
X184361723Y-55998094D02*
X184171247Y-56045713D01*
X184171247Y-56045713D02*
X184028390Y-56045713D01*
X184028390Y-56045713D02*
X183837914Y-55998094D01*
X183837914Y-55998094D02*
X183742676Y-55950475D01*
X183742676Y-55950475D02*
X183647438Y-55855237D01*
X183647438Y-55855237D02*
X183599819Y-55712380D01*
X183599819Y-55712380D02*
X183599819Y-55617142D01*
X183599819Y-55617142D02*
X183647438Y-55474285D01*
X183647438Y-55474285D02*
X183695057Y-55426666D01*
X184599819Y-54474285D02*
X184599819Y-55045713D01*
X184599819Y-54759999D02*
X183599819Y-54759999D01*
X183599819Y-54759999D02*
X183742676Y-54855237D01*
X183742676Y-54855237D02*
X183837914Y-54950475D01*
X183837914Y-54950475D02*
X183885533Y-55045713D01*
X182078333Y-82274580D02*
X182030714Y-82322200D01*
X182030714Y-82322200D02*
X181887857Y-82369819D01*
X181887857Y-82369819D02*
X181792619Y-82369819D01*
X181792619Y-82369819D02*
X181649762Y-82322200D01*
X181649762Y-82322200D02*
X181554524Y-82226961D01*
X181554524Y-82226961D02*
X181506905Y-82131723D01*
X181506905Y-82131723D02*
X181459286Y-81941247D01*
X181459286Y-81941247D02*
X181459286Y-81798390D01*
X181459286Y-81798390D02*
X181506905Y-81607914D01*
X181506905Y-81607914D02*
X181554524Y-81512676D01*
X181554524Y-81512676D02*
X181649762Y-81417438D01*
X181649762Y-81417438D02*
X181792619Y-81369819D01*
X181792619Y-81369819D02*
X181887857Y-81369819D01*
X181887857Y-81369819D02*
X182030714Y-81417438D01*
X182030714Y-81417438D02*
X182078333Y-81465057D01*
X182935476Y-81369819D02*
X182745000Y-81369819D01*
X182745000Y-81369819D02*
X182649762Y-81417438D01*
X182649762Y-81417438D02*
X182602143Y-81465057D01*
X182602143Y-81465057D02*
X182506905Y-81607914D01*
X182506905Y-81607914D02*
X182459286Y-81798390D01*
X182459286Y-81798390D02*
X182459286Y-82179342D01*
X182459286Y-82179342D02*
X182506905Y-82274580D01*
X182506905Y-82274580D02*
X182554524Y-82322200D01*
X182554524Y-82322200D02*
X182649762Y-82369819D01*
X182649762Y-82369819D02*
X182840238Y-82369819D01*
X182840238Y-82369819D02*
X182935476Y-82322200D01*
X182935476Y-82322200D02*
X182983095Y-82274580D01*
X182983095Y-82274580D02*
X183030714Y-82179342D01*
X183030714Y-82179342D02*
X183030714Y-81941247D01*
X183030714Y-81941247D02*
X182983095Y-81846009D01*
X182983095Y-81846009D02*
X182935476Y-81798390D01*
X182935476Y-81798390D02*
X182840238Y-81750771D01*
X182840238Y-81750771D02*
X182649762Y-81750771D01*
X182649762Y-81750771D02*
X182554524Y-81798390D01*
X182554524Y-81798390D02*
X182506905Y-81846009D01*
X182506905Y-81846009D02*
X182459286Y-81941247D01*
X107039580Y-95496666D02*
X107087200Y-95544285D01*
X107087200Y-95544285D02*
X107134819Y-95687142D01*
X107134819Y-95687142D02*
X107134819Y-95782380D01*
X107134819Y-95782380D02*
X107087200Y-95925237D01*
X107087200Y-95925237D02*
X106991961Y-96020475D01*
X106991961Y-96020475D02*
X106896723Y-96068094D01*
X106896723Y-96068094D02*
X106706247Y-96115713D01*
X106706247Y-96115713D02*
X106563390Y-96115713D01*
X106563390Y-96115713D02*
X106372914Y-96068094D01*
X106372914Y-96068094D02*
X106277676Y-96020475D01*
X106277676Y-96020475D02*
X106182438Y-95925237D01*
X106182438Y-95925237D02*
X106134819Y-95782380D01*
X106134819Y-95782380D02*
X106134819Y-95687142D01*
X106134819Y-95687142D02*
X106182438Y-95544285D01*
X106182438Y-95544285D02*
X106230057Y-95496666D01*
X106134819Y-95163332D02*
X106134819Y-94496666D01*
X106134819Y-94496666D02*
X107134819Y-94925237D01*
X182160057Y-77565238D02*
X182112438Y-77660476D01*
X182112438Y-77660476D02*
X182017200Y-77755714D01*
X182017200Y-77755714D02*
X181874342Y-77898571D01*
X181874342Y-77898571D02*
X181826723Y-77993809D01*
X181826723Y-77993809D02*
X181826723Y-78089047D01*
X182064819Y-78041428D02*
X182017200Y-78136666D01*
X182017200Y-78136666D02*
X181921961Y-78231904D01*
X181921961Y-78231904D02*
X181731485Y-78279523D01*
X181731485Y-78279523D02*
X181398152Y-78279523D01*
X181398152Y-78279523D02*
X181207676Y-78231904D01*
X181207676Y-78231904D02*
X181112438Y-78136666D01*
X181112438Y-78136666D02*
X181064819Y-78041428D01*
X181064819Y-78041428D02*
X181064819Y-77850952D01*
X181064819Y-77850952D02*
X181112438Y-77755714D01*
X181112438Y-77755714D02*
X181207676Y-77660476D01*
X181207676Y-77660476D02*
X181398152Y-77612857D01*
X181398152Y-77612857D02*
X181731485Y-77612857D01*
X181731485Y-77612857D02*
X181921961Y-77660476D01*
X181921961Y-77660476D02*
X182017200Y-77755714D01*
X182017200Y-77755714D02*
X182064819Y-77850952D01*
X182064819Y-77850952D02*
X182064819Y-78041428D01*
X182064819Y-76660476D02*
X182064819Y-77231904D01*
X182064819Y-76946190D02*
X181064819Y-76946190D01*
X181064819Y-76946190D02*
X181207676Y-77041428D01*
X181207676Y-77041428D02*
X181302914Y-77136666D01*
X181302914Y-77136666D02*
X181350533Y-77231904D01*
X185605057Y-76374285D02*
X185557438Y-76326666D01*
X185557438Y-76326666D02*
X185509819Y-76231428D01*
X185509819Y-76231428D02*
X185509819Y-75993333D01*
X185509819Y-75993333D02*
X185557438Y-75898095D01*
X185557438Y-75898095D02*
X185605057Y-75850476D01*
X185605057Y-75850476D02*
X185700295Y-75802857D01*
X185700295Y-75802857D02*
X185795533Y-75802857D01*
X185795533Y-75802857D02*
X185938390Y-75850476D01*
X185938390Y-75850476D02*
X186509819Y-76421904D01*
X186509819Y-76421904D02*
X186509819Y-75802857D01*
X186509819Y-75374285D02*
X185509819Y-75374285D01*
X185509819Y-75374285D02*
X186509819Y-74802857D01*
X186509819Y-74802857D02*
X185509819Y-74802857D01*
X185605057Y-74374285D02*
X185557438Y-74326666D01*
X185557438Y-74326666D02*
X185509819Y-74231428D01*
X185509819Y-74231428D02*
X185509819Y-73993333D01*
X185509819Y-73993333D02*
X185557438Y-73898095D01*
X185557438Y-73898095D02*
X185605057Y-73850476D01*
X185605057Y-73850476D02*
X185700295Y-73802857D01*
X185700295Y-73802857D02*
X185795533Y-73802857D01*
X185795533Y-73802857D02*
X185938390Y-73850476D01*
X185938390Y-73850476D02*
X186509819Y-74421904D01*
X186509819Y-74421904D02*
X186509819Y-73802857D01*
X185509819Y-73469523D02*
X185509819Y-72850476D01*
X185509819Y-72850476D02*
X185890771Y-73183809D01*
X185890771Y-73183809D02*
X185890771Y-73040952D01*
X185890771Y-73040952D02*
X185938390Y-72945714D01*
X185938390Y-72945714D02*
X185986009Y-72898095D01*
X185986009Y-72898095D02*
X186081247Y-72850476D01*
X186081247Y-72850476D02*
X186319342Y-72850476D01*
X186319342Y-72850476D02*
X186414580Y-72898095D01*
X186414580Y-72898095D02*
X186462200Y-72945714D01*
X186462200Y-72945714D02*
X186509819Y-73040952D01*
X186509819Y-73040952D02*
X186509819Y-73326666D01*
X186509819Y-73326666D02*
X186462200Y-73421904D01*
X186462200Y-73421904D02*
X186414580Y-73469523D01*
X185509819Y-71993333D02*
X185509819Y-72183809D01*
X185509819Y-72183809D02*
X185557438Y-72279047D01*
X185557438Y-72279047D02*
X185605057Y-72326666D01*
X185605057Y-72326666D02*
X185747914Y-72421904D01*
X185747914Y-72421904D02*
X185938390Y-72469523D01*
X185938390Y-72469523D02*
X186319342Y-72469523D01*
X186319342Y-72469523D02*
X186414580Y-72421904D01*
X186414580Y-72421904D02*
X186462200Y-72374285D01*
X186462200Y-72374285D02*
X186509819Y-72279047D01*
X186509819Y-72279047D02*
X186509819Y-72088571D01*
X186509819Y-72088571D02*
X186462200Y-71993333D01*
X186462200Y-71993333D02*
X186414580Y-71945714D01*
X186414580Y-71945714D02*
X186319342Y-71898095D01*
X186319342Y-71898095D02*
X186081247Y-71898095D01*
X186081247Y-71898095D02*
X185986009Y-71945714D01*
X185986009Y-71945714D02*
X185938390Y-71993333D01*
X185938390Y-71993333D02*
X185890771Y-72088571D01*
X185890771Y-72088571D02*
X185890771Y-72279047D01*
X185890771Y-72279047D02*
X185938390Y-72374285D01*
X185938390Y-72374285D02*
X185986009Y-72421904D01*
X185986009Y-72421904D02*
X186081247Y-72469523D01*
X186509819Y-71421904D02*
X186509819Y-71231428D01*
X186509819Y-71231428D02*
X186462200Y-71136190D01*
X186462200Y-71136190D02*
X186414580Y-71088571D01*
X186414580Y-71088571D02*
X186271723Y-70993333D01*
X186271723Y-70993333D02*
X186081247Y-70945714D01*
X186081247Y-70945714D02*
X185700295Y-70945714D01*
X185700295Y-70945714D02*
X185605057Y-70993333D01*
X185605057Y-70993333D02*
X185557438Y-71040952D01*
X185557438Y-71040952D02*
X185509819Y-71136190D01*
X185509819Y-71136190D02*
X185509819Y-71326666D01*
X185509819Y-71326666D02*
X185557438Y-71421904D01*
X185557438Y-71421904D02*
X185605057Y-71469523D01*
X185605057Y-71469523D02*
X185700295Y-71517142D01*
X185700295Y-71517142D02*
X185938390Y-71517142D01*
X185938390Y-71517142D02*
X186033628Y-71469523D01*
X186033628Y-71469523D02*
X186081247Y-71421904D01*
X186081247Y-71421904D02*
X186128866Y-71326666D01*
X186128866Y-71326666D02*
X186128866Y-71136190D01*
X186128866Y-71136190D02*
X186081247Y-71040952D01*
X186081247Y-71040952D02*
X186033628Y-70993333D01*
X186033628Y-70993333D02*
X185938390Y-70945714D01*
X123658333Y-47444819D02*
X123325000Y-46968628D01*
X123086905Y-47444819D02*
X123086905Y-46444819D01*
X123086905Y-46444819D02*
X123467857Y-46444819D01*
X123467857Y-46444819D02*
X123563095Y-46492438D01*
X123563095Y-46492438D02*
X123610714Y-46540057D01*
X123610714Y-46540057D02*
X123658333Y-46635295D01*
X123658333Y-46635295D02*
X123658333Y-46778152D01*
X123658333Y-46778152D02*
X123610714Y-46873390D01*
X123610714Y-46873390D02*
X123563095Y-46921009D01*
X123563095Y-46921009D02*
X123467857Y-46968628D01*
X123467857Y-46968628D02*
X123086905Y-46968628D01*
X124039286Y-46540057D02*
X124086905Y-46492438D01*
X124086905Y-46492438D02*
X124182143Y-46444819D01*
X124182143Y-46444819D02*
X124420238Y-46444819D01*
X124420238Y-46444819D02*
X124515476Y-46492438D01*
X124515476Y-46492438D02*
X124563095Y-46540057D01*
X124563095Y-46540057D02*
X124610714Y-46635295D01*
X124610714Y-46635295D02*
X124610714Y-46730533D01*
X124610714Y-46730533D02*
X124563095Y-46873390D01*
X124563095Y-46873390D02*
X123991667Y-47444819D01*
X123991667Y-47444819D02*
X124610714Y-47444819D01*
X127454819Y-54776666D02*
X126978628Y-55109999D01*
X127454819Y-55348094D02*
X126454819Y-55348094D01*
X126454819Y-55348094D02*
X126454819Y-54967142D01*
X126454819Y-54967142D02*
X126502438Y-54871904D01*
X126502438Y-54871904D02*
X126550057Y-54824285D01*
X126550057Y-54824285D02*
X126645295Y-54776666D01*
X126645295Y-54776666D02*
X126788152Y-54776666D01*
X126788152Y-54776666D02*
X126883390Y-54824285D01*
X126883390Y-54824285D02*
X126931009Y-54871904D01*
X126931009Y-54871904D02*
X126978628Y-54967142D01*
X126978628Y-54967142D02*
X126978628Y-55348094D01*
X126454819Y-53919523D02*
X126454819Y-54109999D01*
X126454819Y-54109999D02*
X126502438Y-54205237D01*
X126502438Y-54205237D02*
X126550057Y-54252856D01*
X126550057Y-54252856D02*
X126692914Y-54348094D01*
X126692914Y-54348094D02*
X126883390Y-54395713D01*
X126883390Y-54395713D02*
X127264342Y-54395713D01*
X127264342Y-54395713D02*
X127359580Y-54348094D01*
X127359580Y-54348094D02*
X127407200Y-54300475D01*
X127407200Y-54300475D02*
X127454819Y-54205237D01*
X127454819Y-54205237D02*
X127454819Y-54014761D01*
X127454819Y-54014761D02*
X127407200Y-53919523D01*
X127407200Y-53919523D02*
X127359580Y-53871904D01*
X127359580Y-53871904D02*
X127264342Y-53824285D01*
X127264342Y-53824285D02*
X127026247Y-53824285D01*
X127026247Y-53824285D02*
X126931009Y-53871904D01*
X126931009Y-53871904D02*
X126883390Y-53919523D01*
X126883390Y-53919523D02*
X126835771Y-54014761D01*
X126835771Y-54014761D02*
X126835771Y-54205237D01*
X126835771Y-54205237D02*
X126883390Y-54300475D01*
X126883390Y-54300475D02*
X126931009Y-54348094D01*
X126931009Y-54348094D02*
X127026247Y-54395713D01*
X115234819Y-132206904D02*
X116044342Y-132206904D01*
X116044342Y-132206904D02*
X116139580Y-132159285D01*
X116139580Y-132159285D02*
X116187200Y-132111666D01*
X116187200Y-132111666D02*
X116234819Y-132016428D01*
X116234819Y-132016428D02*
X116234819Y-131825952D01*
X116234819Y-131825952D02*
X116187200Y-131730714D01*
X116187200Y-131730714D02*
X116139580Y-131683095D01*
X116139580Y-131683095D02*
X116044342Y-131635476D01*
X116044342Y-131635476D02*
X115234819Y-131635476D01*
X115663390Y-131016428D02*
X115615771Y-131111666D01*
X115615771Y-131111666D02*
X115568152Y-131159285D01*
X115568152Y-131159285D02*
X115472914Y-131206904D01*
X115472914Y-131206904D02*
X115425295Y-131206904D01*
X115425295Y-131206904D02*
X115330057Y-131159285D01*
X115330057Y-131159285D02*
X115282438Y-131111666D01*
X115282438Y-131111666D02*
X115234819Y-131016428D01*
X115234819Y-131016428D02*
X115234819Y-130825952D01*
X115234819Y-130825952D02*
X115282438Y-130730714D01*
X115282438Y-130730714D02*
X115330057Y-130683095D01*
X115330057Y-130683095D02*
X115425295Y-130635476D01*
X115425295Y-130635476D02*
X115472914Y-130635476D01*
X115472914Y-130635476D02*
X115568152Y-130683095D01*
X115568152Y-130683095D02*
X115615771Y-130730714D01*
X115615771Y-130730714D02*
X115663390Y-130825952D01*
X115663390Y-130825952D02*
X115663390Y-131016428D01*
X115663390Y-131016428D02*
X115711009Y-131111666D01*
X115711009Y-131111666D02*
X115758628Y-131159285D01*
X115758628Y-131159285D02*
X115853866Y-131206904D01*
X115853866Y-131206904D02*
X116044342Y-131206904D01*
X116044342Y-131206904D02*
X116139580Y-131159285D01*
X116139580Y-131159285D02*
X116187200Y-131111666D01*
X116187200Y-131111666D02*
X116234819Y-131016428D01*
X116234819Y-131016428D02*
X116234819Y-130825952D01*
X116234819Y-130825952D02*
X116187200Y-130730714D01*
X116187200Y-130730714D02*
X116139580Y-130683095D01*
X116139580Y-130683095D02*
X116044342Y-130635476D01*
X116044342Y-130635476D02*
X115853866Y-130635476D01*
X115853866Y-130635476D02*
X115758628Y-130683095D01*
X115758628Y-130683095D02*
X115711009Y-130730714D01*
X115711009Y-130730714D02*
X115663390Y-130825952D01*
X126278095Y-127724819D02*
X126944761Y-127724819D01*
X126944761Y-127724819D02*
X126516190Y-128724819D01*
X127754285Y-128058152D02*
X127754285Y-128724819D01*
X127516190Y-127677200D02*
X127278095Y-128391485D01*
X127278095Y-128391485D02*
X127897142Y-128391485D01*
X128278095Y-128724819D02*
X128278095Y-127724819D01*
X128278095Y-128201009D02*
X128849523Y-128201009D01*
X128849523Y-128724819D02*
X128849523Y-127724819D01*
X129897142Y-128629580D02*
X129849523Y-128677200D01*
X129849523Y-128677200D02*
X129706666Y-128724819D01*
X129706666Y-128724819D02*
X129611428Y-128724819D01*
X129611428Y-128724819D02*
X129468571Y-128677200D01*
X129468571Y-128677200D02*
X129373333Y-128581961D01*
X129373333Y-128581961D02*
X129325714Y-128486723D01*
X129325714Y-128486723D02*
X129278095Y-128296247D01*
X129278095Y-128296247D02*
X129278095Y-128153390D01*
X129278095Y-128153390D02*
X129325714Y-127962914D01*
X129325714Y-127962914D02*
X129373333Y-127867676D01*
X129373333Y-127867676D02*
X129468571Y-127772438D01*
X129468571Y-127772438D02*
X129611428Y-127724819D01*
X129611428Y-127724819D02*
X129706666Y-127724819D01*
X129706666Y-127724819D02*
X129849523Y-127772438D01*
X129849523Y-127772438D02*
X129897142Y-127820057D01*
X130278095Y-127820057D02*
X130325714Y-127772438D01*
X130325714Y-127772438D02*
X130420952Y-127724819D01*
X130420952Y-127724819D02*
X130659047Y-127724819D01*
X130659047Y-127724819D02*
X130754285Y-127772438D01*
X130754285Y-127772438D02*
X130801904Y-127820057D01*
X130801904Y-127820057D02*
X130849523Y-127915295D01*
X130849523Y-127915295D02*
X130849523Y-128010533D01*
X130849523Y-128010533D02*
X130801904Y-128153390D01*
X130801904Y-128153390D02*
X130230476Y-128724819D01*
X130230476Y-128724819D02*
X130849523Y-128724819D01*
X131706666Y-128058152D02*
X131706666Y-128724819D01*
X131468571Y-127677200D02*
X131230476Y-128391485D01*
X131230476Y-128391485D02*
X131849523Y-128391485D01*
X132706666Y-127724819D02*
X132230476Y-127724819D01*
X132230476Y-127724819D02*
X132182857Y-128201009D01*
X132182857Y-128201009D02*
X132230476Y-128153390D01*
X132230476Y-128153390D02*
X132325714Y-128105771D01*
X132325714Y-128105771D02*
X132563809Y-128105771D01*
X132563809Y-128105771D02*
X132659047Y-128153390D01*
X132659047Y-128153390D02*
X132706666Y-128201009D01*
X132706666Y-128201009D02*
X132754285Y-128296247D01*
X132754285Y-128296247D02*
X132754285Y-128534342D01*
X132754285Y-128534342D02*
X132706666Y-128629580D01*
X132706666Y-128629580D02*
X132659047Y-128677200D01*
X132659047Y-128677200D02*
X132563809Y-128724819D01*
X132563809Y-128724819D02*
X132325714Y-128724819D01*
X132325714Y-128724819D02*
X132230476Y-128677200D01*
X132230476Y-128677200D02*
X132182857Y-128629580D01*
X107614819Y-70688333D02*
X108329104Y-70688333D01*
X108329104Y-70688333D02*
X108471961Y-70735952D01*
X108471961Y-70735952D02*
X108567200Y-70831190D01*
X108567200Y-70831190D02*
X108614819Y-70974047D01*
X108614819Y-70974047D02*
X108614819Y-71069285D01*
X108614819Y-70212142D02*
X107614819Y-70212142D01*
X107614819Y-70212142D02*
X107614819Y-69831190D01*
X107614819Y-69831190D02*
X107662438Y-69735952D01*
X107662438Y-69735952D02*
X107710057Y-69688333D01*
X107710057Y-69688333D02*
X107805295Y-69640714D01*
X107805295Y-69640714D02*
X107948152Y-69640714D01*
X107948152Y-69640714D02*
X108043390Y-69688333D01*
X108043390Y-69688333D02*
X108091009Y-69735952D01*
X108091009Y-69735952D02*
X108138628Y-69831190D01*
X108138628Y-69831190D02*
X108138628Y-70212142D01*
X107710057Y-69259761D02*
X107662438Y-69212142D01*
X107662438Y-69212142D02*
X107614819Y-69116904D01*
X107614819Y-69116904D02*
X107614819Y-68878809D01*
X107614819Y-68878809D02*
X107662438Y-68783571D01*
X107662438Y-68783571D02*
X107710057Y-68735952D01*
X107710057Y-68735952D02*
X107805295Y-68688333D01*
X107805295Y-68688333D02*
X107900533Y-68688333D01*
X107900533Y-68688333D02*
X108043390Y-68735952D01*
X108043390Y-68735952D02*
X108614819Y-69307380D01*
X108614819Y-69307380D02*
X108614819Y-68688333D01*
X131744819Y-72516904D02*
X132554342Y-72516904D01*
X132554342Y-72516904D02*
X132649580Y-72469285D01*
X132649580Y-72469285D02*
X132697200Y-72421666D01*
X132697200Y-72421666D02*
X132744819Y-72326428D01*
X132744819Y-72326428D02*
X132744819Y-72135952D01*
X132744819Y-72135952D02*
X132697200Y-72040714D01*
X132697200Y-72040714D02*
X132649580Y-71993095D01*
X132649580Y-71993095D02*
X132554342Y-71945476D01*
X132554342Y-71945476D02*
X131744819Y-71945476D01*
X131744819Y-70993095D02*
X131744819Y-71469285D01*
X131744819Y-71469285D02*
X132221009Y-71516904D01*
X132221009Y-71516904D02*
X132173390Y-71469285D01*
X132173390Y-71469285D02*
X132125771Y-71374047D01*
X132125771Y-71374047D02*
X132125771Y-71135952D01*
X132125771Y-71135952D02*
X132173390Y-71040714D01*
X132173390Y-71040714D02*
X132221009Y-70993095D01*
X132221009Y-70993095D02*
X132316247Y-70945476D01*
X132316247Y-70945476D02*
X132554342Y-70945476D01*
X132554342Y-70945476D02*
X132649580Y-70993095D01*
X132649580Y-70993095D02*
X132697200Y-71040714D01*
X132697200Y-71040714D02*
X132744819Y-71135952D01*
X132744819Y-71135952D02*
X132744819Y-71374047D01*
X132744819Y-71374047D02*
X132697200Y-71469285D01*
X132697200Y-71469285D02*
X132649580Y-71516904D01*
X136739523Y-69034819D02*
X136263333Y-69034819D01*
X136263333Y-69034819D02*
X136263333Y-68034819D01*
X137072857Y-69034819D02*
X137072857Y-68034819D01*
X137072857Y-68034819D02*
X137406190Y-68749104D01*
X137406190Y-68749104D02*
X137739523Y-68034819D01*
X137739523Y-68034819D02*
X137739523Y-69034819D01*
X138120476Y-68034819D02*
X138739523Y-68034819D01*
X138739523Y-68034819D02*
X138406190Y-68415771D01*
X138406190Y-68415771D02*
X138549047Y-68415771D01*
X138549047Y-68415771D02*
X138644285Y-68463390D01*
X138644285Y-68463390D02*
X138691904Y-68511009D01*
X138691904Y-68511009D02*
X138739523Y-68606247D01*
X138739523Y-68606247D02*
X138739523Y-68844342D01*
X138739523Y-68844342D02*
X138691904Y-68939580D01*
X138691904Y-68939580D02*
X138644285Y-68987200D01*
X138644285Y-68987200D02*
X138549047Y-69034819D01*
X138549047Y-69034819D02*
X138263333Y-69034819D01*
X138263333Y-69034819D02*
X138168095Y-68987200D01*
X138168095Y-68987200D02*
X138120476Y-68939580D01*
X139644285Y-68034819D02*
X139168095Y-68034819D01*
X139168095Y-68034819D02*
X139120476Y-68511009D01*
X139120476Y-68511009D02*
X139168095Y-68463390D01*
X139168095Y-68463390D02*
X139263333Y-68415771D01*
X139263333Y-68415771D02*
X139501428Y-68415771D01*
X139501428Y-68415771D02*
X139596666Y-68463390D01*
X139596666Y-68463390D02*
X139644285Y-68511009D01*
X139644285Y-68511009D02*
X139691904Y-68606247D01*
X139691904Y-68606247D02*
X139691904Y-68844342D01*
X139691904Y-68844342D02*
X139644285Y-68939580D01*
X139644285Y-68939580D02*
X139596666Y-68987200D01*
X139596666Y-68987200D02*
X139501428Y-69034819D01*
X139501428Y-69034819D02*
X139263333Y-69034819D01*
X139263333Y-69034819D02*
X139168095Y-68987200D01*
X139168095Y-68987200D02*
X139120476Y-68939580D01*
X140263333Y-68463390D02*
X140168095Y-68415771D01*
X140168095Y-68415771D02*
X140120476Y-68368152D01*
X140120476Y-68368152D02*
X140072857Y-68272914D01*
X140072857Y-68272914D02*
X140072857Y-68225295D01*
X140072857Y-68225295D02*
X140120476Y-68130057D01*
X140120476Y-68130057D02*
X140168095Y-68082438D01*
X140168095Y-68082438D02*
X140263333Y-68034819D01*
X140263333Y-68034819D02*
X140453809Y-68034819D01*
X140453809Y-68034819D02*
X140549047Y-68082438D01*
X140549047Y-68082438D02*
X140596666Y-68130057D01*
X140596666Y-68130057D02*
X140644285Y-68225295D01*
X140644285Y-68225295D02*
X140644285Y-68272914D01*
X140644285Y-68272914D02*
X140596666Y-68368152D01*
X140596666Y-68368152D02*
X140549047Y-68415771D01*
X140549047Y-68415771D02*
X140453809Y-68463390D01*
X140453809Y-68463390D02*
X140263333Y-68463390D01*
X140263333Y-68463390D02*
X140168095Y-68511009D01*
X140168095Y-68511009D02*
X140120476Y-68558628D01*
X140120476Y-68558628D02*
X140072857Y-68653866D01*
X140072857Y-68653866D02*
X140072857Y-68844342D01*
X140072857Y-68844342D02*
X140120476Y-68939580D01*
X140120476Y-68939580D02*
X140168095Y-68987200D01*
X140168095Y-68987200D02*
X140263333Y-69034819D01*
X140263333Y-69034819D02*
X140453809Y-69034819D01*
X140453809Y-69034819D02*
X140549047Y-68987200D01*
X140549047Y-68987200D02*
X140596666Y-68939580D01*
X140596666Y-68939580D02*
X140644285Y-68844342D01*
X140644285Y-68844342D02*
X140644285Y-68653866D01*
X140644285Y-68653866D02*
X140596666Y-68558628D01*
X140596666Y-68558628D02*
X140549047Y-68511009D01*
X140549047Y-68511009D02*
X140453809Y-68463390D01*
X114659580Y-122086666D02*
X114707200Y-122134285D01*
X114707200Y-122134285D02*
X114754819Y-122277142D01*
X114754819Y-122277142D02*
X114754819Y-122372380D01*
X114754819Y-122372380D02*
X114707200Y-122515237D01*
X114707200Y-122515237D02*
X114611961Y-122610475D01*
X114611961Y-122610475D02*
X114516723Y-122658094D01*
X114516723Y-122658094D02*
X114326247Y-122705713D01*
X114326247Y-122705713D02*
X114183390Y-122705713D01*
X114183390Y-122705713D02*
X113992914Y-122658094D01*
X113992914Y-122658094D02*
X113897676Y-122610475D01*
X113897676Y-122610475D02*
X113802438Y-122515237D01*
X113802438Y-122515237D02*
X113754819Y-122372380D01*
X113754819Y-122372380D02*
X113754819Y-122277142D01*
X113754819Y-122277142D02*
X113802438Y-122134285D01*
X113802438Y-122134285D02*
X113850057Y-122086666D01*
X114183390Y-121515237D02*
X114135771Y-121610475D01*
X114135771Y-121610475D02*
X114088152Y-121658094D01*
X114088152Y-121658094D02*
X113992914Y-121705713D01*
X113992914Y-121705713D02*
X113945295Y-121705713D01*
X113945295Y-121705713D02*
X113850057Y-121658094D01*
X113850057Y-121658094D02*
X113802438Y-121610475D01*
X113802438Y-121610475D02*
X113754819Y-121515237D01*
X113754819Y-121515237D02*
X113754819Y-121324761D01*
X113754819Y-121324761D02*
X113802438Y-121229523D01*
X113802438Y-121229523D02*
X113850057Y-121181904D01*
X113850057Y-121181904D02*
X113945295Y-121134285D01*
X113945295Y-121134285D02*
X113992914Y-121134285D01*
X113992914Y-121134285D02*
X114088152Y-121181904D01*
X114088152Y-121181904D02*
X114135771Y-121229523D01*
X114135771Y-121229523D02*
X114183390Y-121324761D01*
X114183390Y-121324761D02*
X114183390Y-121515237D01*
X114183390Y-121515237D02*
X114231009Y-121610475D01*
X114231009Y-121610475D02*
X114278628Y-121658094D01*
X114278628Y-121658094D02*
X114373866Y-121705713D01*
X114373866Y-121705713D02*
X114564342Y-121705713D01*
X114564342Y-121705713D02*
X114659580Y-121658094D01*
X114659580Y-121658094D02*
X114707200Y-121610475D01*
X114707200Y-121610475D02*
X114754819Y-121515237D01*
X114754819Y-121515237D02*
X114754819Y-121324761D01*
X114754819Y-121324761D02*
X114707200Y-121229523D01*
X114707200Y-121229523D02*
X114659580Y-121181904D01*
X114659580Y-121181904D02*
X114564342Y-121134285D01*
X114564342Y-121134285D02*
X114373866Y-121134285D01*
X114373866Y-121134285D02*
X114278628Y-121181904D01*
X114278628Y-121181904D02*
X114231009Y-121229523D01*
X114231009Y-121229523D02*
X114183390Y-121324761D01*
X106672142Y-63859580D02*
X106624523Y-63907200D01*
X106624523Y-63907200D02*
X106481666Y-63954819D01*
X106481666Y-63954819D02*
X106386428Y-63954819D01*
X106386428Y-63954819D02*
X106243571Y-63907200D01*
X106243571Y-63907200D02*
X106148333Y-63811961D01*
X106148333Y-63811961D02*
X106100714Y-63716723D01*
X106100714Y-63716723D02*
X106053095Y-63526247D01*
X106053095Y-63526247D02*
X106053095Y-63383390D01*
X106053095Y-63383390D02*
X106100714Y-63192914D01*
X106100714Y-63192914D02*
X106148333Y-63097676D01*
X106148333Y-63097676D02*
X106243571Y-63002438D01*
X106243571Y-63002438D02*
X106386428Y-62954819D01*
X106386428Y-62954819D02*
X106481666Y-62954819D01*
X106481666Y-62954819D02*
X106624523Y-63002438D01*
X106624523Y-63002438D02*
X106672142Y-63050057D01*
X107624523Y-63954819D02*
X107053095Y-63954819D01*
X107338809Y-63954819D02*
X107338809Y-62954819D01*
X107338809Y-62954819D02*
X107243571Y-63097676D01*
X107243571Y-63097676D02*
X107148333Y-63192914D01*
X107148333Y-63192914D02*
X107053095Y-63240533D01*
X108481666Y-63288152D02*
X108481666Y-63954819D01*
X108243571Y-62907200D02*
X108005476Y-63621485D01*
X108005476Y-63621485D02*
X108624523Y-63621485D01*
X144504580Y-134786666D02*
X144552200Y-134834285D01*
X144552200Y-134834285D02*
X144599819Y-134977142D01*
X144599819Y-134977142D02*
X144599819Y-135072380D01*
X144599819Y-135072380D02*
X144552200Y-135215237D01*
X144552200Y-135215237D02*
X144456961Y-135310475D01*
X144456961Y-135310475D02*
X144361723Y-135358094D01*
X144361723Y-135358094D02*
X144171247Y-135405713D01*
X144171247Y-135405713D02*
X144028390Y-135405713D01*
X144028390Y-135405713D02*
X143837914Y-135358094D01*
X143837914Y-135358094D02*
X143742676Y-135310475D01*
X143742676Y-135310475D02*
X143647438Y-135215237D01*
X143647438Y-135215237D02*
X143599819Y-135072380D01*
X143599819Y-135072380D02*
X143599819Y-134977142D01*
X143599819Y-134977142D02*
X143647438Y-134834285D01*
X143647438Y-134834285D02*
X143695057Y-134786666D01*
X143695057Y-134405713D02*
X143647438Y-134358094D01*
X143647438Y-134358094D02*
X143599819Y-134262856D01*
X143599819Y-134262856D02*
X143599819Y-134024761D01*
X143599819Y-134024761D02*
X143647438Y-133929523D01*
X143647438Y-133929523D02*
X143695057Y-133881904D01*
X143695057Y-133881904D02*
X143790295Y-133834285D01*
X143790295Y-133834285D02*
X143885533Y-133834285D01*
X143885533Y-133834285D02*
X144028390Y-133881904D01*
X144028390Y-133881904D02*
X144599819Y-134453332D01*
X144599819Y-134453332D02*
X144599819Y-133834285D01*
X124279819Y-54776666D02*
X123803628Y-55109999D01*
X124279819Y-55348094D02*
X123279819Y-55348094D01*
X123279819Y-55348094D02*
X123279819Y-54967142D01*
X123279819Y-54967142D02*
X123327438Y-54871904D01*
X123327438Y-54871904D02*
X123375057Y-54824285D01*
X123375057Y-54824285D02*
X123470295Y-54776666D01*
X123470295Y-54776666D02*
X123613152Y-54776666D01*
X123613152Y-54776666D02*
X123708390Y-54824285D01*
X123708390Y-54824285D02*
X123756009Y-54871904D01*
X123756009Y-54871904D02*
X123803628Y-54967142D01*
X123803628Y-54967142D02*
X123803628Y-55348094D01*
X123279819Y-53871904D02*
X123279819Y-54348094D01*
X123279819Y-54348094D02*
X123756009Y-54395713D01*
X123756009Y-54395713D02*
X123708390Y-54348094D01*
X123708390Y-54348094D02*
X123660771Y-54252856D01*
X123660771Y-54252856D02*
X123660771Y-54014761D01*
X123660771Y-54014761D02*
X123708390Y-53919523D01*
X123708390Y-53919523D02*
X123756009Y-53871904D01*
X123756009Y-53871904D02*
X123851247Y-53824285D01*
X123851247Y-53824285D02*
X124089342Y-53824285D01*
X124089342Y-53824285D02*
X124184580Y-53871904D01*
X124184580Y-53871904D02*
X124232200Y-53919523D01*
X124232200Y-53919523D02*
X124279819Y-54014761D01*
X124279819Y-54014761D02*
X124279819Y-54252856D01*
X124279819Y-54252856D02*
X124232200Y-54348094D01*
X124232200Y-54348094D02*
X124184580Y-54395713D01*
X114292142Y-47349580D02*
X114244523Y-47397200D01*
X114244523Y-47397200D02*
X114101666Y-47444819D01*
X114101666Y-47444819D02*
X114006428Y-47444819D01*
X114006428Y-47444819D02*
X113863571Y-47397200D01*
X113863571Y-47397200D02*
X113768333Y-47301961D01*
X113768333Y-47301961D02*
X113720714Y-47206723D01*
X113720714Y-47206723D02*
X113673095Y-47016247D01*
X113673095Y-47016247D02*
X113673095Y-46873390D01*
X113673095Y-46873390D02*
X113720714Y-46682914D01*
X113720714Y-46682914D02*
X113768333Y-46587676D01*
X113768333Y-46587676D02*
X113863571Y-46492438D01*
X113863571Y-46492438D02*
X114006428Y-46444819D01*
X114006428Y-46444819D02*
X114101666Y-46444819D01*
X114101666Y-46444819D02*
X114244523Y-46492438D01*
X114244523Y-46492438D02*
X114292142Y-46540057D01*
X115244523Y-47444819D02*
X114673095Y-47444819D01*
X114958809Y-47444819D02*
X114958809Y-46444819D01*
X114958809Y-46444819D02*
X114863571Y-46587676D01*
X114863571Y-46587676D02*
X114768333Y-46682914D01*
X114768333Y-46682914D02*
X114673095Y-46730533D01*
X115577857Y-46444819D02*
X116196904Y-46444819D01*
X116196904Y-46444819D02*
X115863571Y-46825771D01*
X115863571Y-46825771D02*
X116006428Y-46825771D01*
X116006428Y-46825771D02*
X116101666Y-46873390D01*
X116101666Y-46873390D02*
X116149285Y-46921009D01*
X116149285Y-46921009D02*
X116196904Y-47016247D01*
X116196904Y-47016247D02*
X116196904Y-47254342D01*
X116196904Y-47254342D02*
X116149285Y-47349580D01*
X116149285Y-47349580D02*
X116101666Y-47397200D01*
X116101666Y-47397200D02*
X116006428Y-47444819D01*
X116006428Y-47444819D02*
X115720714Y-47444819D01*
X115720714Y-47444819D02*
X115625476Y-47397200D01*
X115625476Y-47397200D02*
X115577857Y-47349580D01*
X182064819Y-63666666D02*
X181588628Y-63999999D01*
X182064819Y-64238094D02*
X181064819Y-64238094D01*
X181064819Y-64238094D02*
X181064819Y-63857142D01*
X181064819Y-63857142D02*
X181112438Y-63761904D01*
X181112438Y-63761904D02*
X181160057Y-63714285D01*
X181160057Y-63714285D02*
X181255295Y-63666666D01*
X181255295Y-63666666D02*
X181398152Y-63666666D01*
X181398152Y-63666666D02*
X181493390Y-63714285D01*
X181493390Y-63714285D02*
X181541009Y-63761904D01*
X181541009Y-63761904D02*
X181588628Y-63857142D01*
X181588628Y-63857142D02*
X181588628Y-64238094D01*
X182064819Y-62714285D02*
X182064819Y-63285713D01*
X182064819Y-62999999D02*
X181064819Y-62999999D01*
X181064819Y-62999999D02*
X181207676Y-63095237D01*
X181207676Y-63095237D02*
X181302914Y-63190475D01*
X181302914Y-63190475D02*
X181350533Y-63285713D01*
X115609819Y-60979160D02*
X116324104Y-60979160D01*
X116324104Y-60979160D02*
X116466961Y-61026779D01*
X116466961Y-61026779D02*
X116562200Y-61122017D01*
X116562200Y-61122017D02*
X116609819Y-61264874D01*
X116609819Y-61264874D02*
X116609819Y-61360112D01*
X115705057Y-60550588D02*
X115657438Y-60502969D01*
X115657438Y-60502969D02*
X115609819Y-60407731D01*
X115609819Y-60407731D02*
X115609819Y-60169636D01*
X115609819Y-60169636D02*
X115657438Y-60074398D01*
X115657438Y-60074398D02*
X115705057Y-60026779D01*
X115705057Y-60026779D02*
X115800295Y-59979160D01*
X115800295Y-59979160D02*
X115895533Y-59979160D01*
X115895533Y-59979160D02*
X116038390Y-60026779D01*
X116038390Y-60026779D02*
X116609819Y-60598207D01*
X116609819Y-60598207D02*
X116609819Y-59979160D01*
X121104819Y-54776666D02*
X120628628Y-55109999D01*
X121104819Y-55348094D02*
X120104819Y-55348094D01*
X120104819Y-55348094D02*
X120104819Y-54967142D01*
X120104819Y-54967142D02*
X120152438Y-54871904D01*
X120152438Y-54871904D02*
X120200057Y-54824285D01*
X120200057Y-54824285D02*
X120295295Y-54776666D01*
X120295295Y-54776666D02*
X120438152Y-54776666D01*
X120438152Y-54776666D02*
X120533390Y-54824285D01*
X120533390Y-54824285D02*
X120581009Y-54871904D01*
X120581009Y-54871904D02*
X120628628Y-54967142D01*
X120628628Y-54967142D02*
X120628628Y-55348094D01*
X120438152Y-53919523D02*
X121104819Y-53919523D01*
X120057200Y-54157618D02*
X120771485Y-54395713D01*
X120771485Y-54395713D02*
X120771485Y-53776666D01*
X131169580Y-57316666D02*
X131217200Y-57364285D01*
X131217200Y-57364285D02*
X131264819Y-57507142D01*
X131264819Y-57507142D02*
X131264819Y-57602380D01*
X131264819Y-57602380D02*
X131217200Y-57745237D01*
X131217200Y-57745237D02*
X131121961Y-57840475D01*
X131121961Y-57840475D02*
X131026723Y-57888094D01*
X131026723Y-57888094D02*
X130836247Y-57935713D01*
X130836247Y-57935713D02*
X130693390Y-57935713D01*
X130693390Y-57935713D02*
X130502914Y-57888094D01*
X130502914Y-57888094D02*
X130407676Y-57840475D01*
X130407676Y-57840475D02*
X130312438Y-57745237D01*
X130312438Y-57745237D02*
X130264819Y-57602380D01*
X130264819Y-57602380D02*
X130264819Y-57507142D01*
X130264819Y-57507142D02*
X130312438Y-57364285D01*
X130312438Y-57364285D02*
X130360057Y-57316666D01*
X131264819Y-56840475D02*
X131264819Y-56649999D01*
X131264819Y-56649999D02*
X131217200Y-56554761D01*
X131217200Y-56554761D02*
X131169580Y-56507142D01*
X131169580Y-56507142D02*
X131026723Y-56411904D01*
X131026723Y-56411904D02*
X130836247Y-56364285D01*
X130836247Y-56364285D02*
X130455295Y-56364285D01*
X130455295Y-56364285D02*
X130360057Y-56411904D01*
X130360057Y-56411904D02*
X130312438Y-56459523D01*
X130312438Y-56459523D02*
X130264819Y-56554761D01*
X130264819Y-56554761D02*
X130264819Y-56745237D01*
X130264819Y-56745237D02*
X130312438Y-56840475D01*
X130312438Y-56840475D02*
X130360057Y-56888094D01*
X130360057Y-56888094D02*
X130455295Y-56935713D01*
X130455295Y-56935713D02*
X130693390Y-56935713D01*
X130693390Y-56935713D02*
X130788628Y-56888094D01*
X130788628Y-56888094D02*
X130836247Y-56840475D01*
X130836247Y-56840475D02*
X130883866Y-56745237D01*
X130883866Y-56745237D02*
X130883866Y-56554761D01*
X130883866Y-56554761D02*
X130836247Y-56459523D01*
X130836247Y-56459523D02*
X130788628Y-56411904D01*
X130788628Y-56411904D02*
X130693390Y-56364285D01*
X117929819Y-54776666D02*
X117453628Y-55109999D01*
X117929819Y-55348094D02*
X116929819Y-55348094D01*
X116929819Y-55348094D02*
X116929819Y-54967142D01*
X116929819Y-54967142D02*
X116977438Y-54871904D01*
X116977438Y-54871904D02*
X117025057Y-54824285D01*
X117025057Y-54824285D02*
X117120295Y-54776666D01*
X117120295Y-54776666D02*
X117263152Y-54776666D01*
X117263152Y-54776666D02*
X117358390Y-54824285D01*
X117358390Y-54824285D02*
X117406009Y-54871904D01*
X117406009Y-54871904D02*
X117453628Y-54967142D01*
X117453628Y-54967142D02*
X117453628Y-55348094D01*
X116929819Y-54443332D02*
X116929819Y-53824285D01*
X116929819Y-53824285D02*
X117310771Y-54157618D01*
X117310771Y-54157618D02*
X117310771Y-54014761D01*
X117310771Y-54014761D02*
X117358390Y-53919523D01*
X117358390Y-53919523D02*
X117406009Y-53871904D01*
X117406009Y-53871904D02*
X117501247Y-53824285D01*
X117501247Y-53824285D02*
X117739342Y-53824285D01*
X117739342Y-53824285D02*
X117834580Y-53871904D01*
X117834580Y-53871904D02*
X117882200Y-53919523D01*
X117882200Y-53919523D02*
X117929819Y-54014761D01*
X117929819Y-54014761D02*
X117929819Y-54300475D01*
X117929819Y-54300475D02*
X117882200Y-54395713D01*
X117882200Y-54395713D02*
X117834580Y-54443332D01*
X105499819Y-134743333D02*
X106214104Y-134743333D01*
X106214104Y-134743333D02*
X106356961Y-134790952D01*
X106356961Y-134790952D02*
X106452200Y-134886190D01*
X106452200Y-134886190D02*
X106499819Y-135029047D01*
X106499819Y-135029047D02*
X106499819Y-135124285D01*
X105499819Y-134362380D02*
X105499819Y-133743333D01*
X105499819Y-133743333D02*
X105880771Y-134076666D01*
X105880771Y-134076666D02*
X105880771Y-133933809D01*
X105880771Y-133933809D02*
X105928390Y-133838571D01*
X105928390Y-133838571D02*
X105976009Y-133790952D01*
X105976009Y-133790952D02*
X106071247Y-133743333D01*
X106071247Y-133743333D02*
X106309342Y-133743333D01*
X106309342Y-133743333D02*
X106404580Y-133790952D01*
X106404580Y-133790952D02*
X106452200Y-133838571D01*
X106452200Y-133838571D02*
X106499819Y-133933809D01*
X106499819Y-133933809D02*
X106499819Y-134219523D01*
X106499819Y-134219523D02*
X106452200Y-134314761D01*
X106452200Y-134314761D02*
X106404580Y-134362380D01*
X115929580Y-115101666D02*
X115977200Y-115149285D01*
X115977200Y-115149285D02*
X116024819Y-115292142D01*
X116024819Y-115292142D02*
X116024819Y-115387380D01*
X116024819Y-115387380D02*
X115977200Y-115530237D01*
X115977200Y-115530237D02*
X115881961Y-115625475D01*
X115881961Y-115625475D02*
X115786723Y-115673094D01*
X115786723Y-115673094D02*
X115596247Y-115720713D01*
X115596247Y-115720713D02*
X115453390Y-115720713D01*
X115453390Y-115720713D02*
X115262914Y-115673094D01*
X115262914Y-115673094D02*
X115167676Y-115625475D01*
X115167676Y-115625475D02*
X115072438Y-115530237D01*
X115072438Y-115530237D02*
X115024819Y-115387380D01*
X115024819Y-115387380D02*
X115024819Y-115292142D01*
X115024819Y-115292142D02*
X115072438Y-115149285D01*
X115072438Y-115149285D02*
X115120057Y-115101666D01*
X115358152Y-114244523D02*
X116024819Y-114244523D01*
X114977200Y-114482618D02*
X115691485Y-114720713D01*
X115691485Y-114720713D02*
X115691485Y-114101666D01*
X163020476Y-60414819D02*
X163687142Y-61414819D01*
X163687142Y-60414819D02*
X163020476Y-61414819D01*
X164591904Y-61414819D02*
X164020476Y-61414819D01*
X164306190Y-61414819D02*
X164306190Y-60414819D01*
X164306190Y-60414819D02*
X164210952Y-60557676D01*
X164210952Y-60557676D02*
X164115714Y-60652914D01*
X164115714Y-60652914D02*
X164020476Y-60700533D01*
X126089580Y-74302857D02*
X126137200Y-74350476D01*
X126137200Y-74350476D02*
X126184819Y-74493333D01*
X126184819Y-74493333D02*
X126184819Y-74588571D01*
X126184819Y-74588571D02*
X126137200Y-74731428D01*
X126137200Y-74731428D02*
X126041961Y-74826666D01*
X126041961Y-74826666D02*
X125946723Y-74874285D01*
X125946723Y-74874285D02*
X125756247Y-74921904D01*
X125756247Y-74921904D02*
X125613390Y-74921904D01*
X125613390Y-74921904D02*
X125422914Y-74874285D01*
X125422914Y-74874285D02*
X125327676Y-74826666D01*
X125327676Y-74826666D02*
X125232438Y-74731428D01*
X125232438Y-74731428D02*
X125184819Y-74588571D01*
X125184819Y-74588571D02*
X125184819Y-74493333D01*
X125184819Y-74493333D02*
X125232438Y-74350476D01*
X125232438Y-74350476D02*
X125280057Y-74302857D01*
X126184819Y-73350476D02*
X126184819Y-73921904D01*
X126184819Y-73636190D02*
X125184819Y-73636190D01*
X125184819Y-73636190D02*
X125327676Y-73731428D01*
X125327676Y-73731428D02*
X125422914Y-73826666D01*
X125422914Y-73826666D02*
X125470533Y-73921904D01*
X126184819Y-72398095D02*
X126184819Y-72969523D01*
X126184819Y-72683809D02*
X125184819Y-72683809D01*
X125184819Y-72683809D02*
X125327676Y-72779047D01*
X125327676Y-72779047D02*
X125422914Y-72874285D01*
X125422914Y-72874285D02*
X125470533Y-72969523D01*
X169418095Y-57239819D02*
X169418095Y-58049342D01*
X169418095Y-58049342D02*
X169465714Y-58144580D01*
X169465714Y-58144580D02*
X169513333Y-58192200D01*
X169513333Y-58192200D02*
X169608571Y-58239819D01*
X169608571Y-58239819D02*
X169799047Y-58239819D01*
X169799047Y-58239819D02*
X169894285Y-58192200D01*
X169894285Y-58192200D02*
X169941904Y-58144580D01*
X169941904Y-58144580D02*
X169989523Y-58049342D01*
X169989523Y-58049342D02*
X169989523Y-57239819D01*
X170370476Y-57239819D02*
X170989523Y-57239819D01*
X170989523Y-57239819D02*
X170656190Y-57620771D01*
X170656190Y-57620771D02*
X170799047Y-57620771D01*
X170799047Y-57620771D02*
X170894285Y-57668390D01*
X170894285Y-57668390D02*
X170941904Y-57716009D01*
X170941904Y-57716009D02*
X170989523Y-57811247D01*
X170989523Y-57811247D02*
X170989523Y-58049342D01*
X170989523Y-58049342D02*
X170941904Y-58144580D01*
X170941904Y-58144580D02*
X170894285Y-58192200D01*
X170894285Y-58192200D02*
X170799047Y-58239819D01*
X170799047Y-58239819D02*
X170513333Y-58239819D01*
X170513333Y-58239819D02*
X170418095Y-58192200D01*
X170418095Y-58192200D02*
X170370476Y-58144580D01*
X173434819Y-70424047D02*
X173434819Y-69757381D01*
X173434819Y-69757381D02*
X174434819Y-70185952D01*
X173768152Y-68947857D02*
X174434819Y-68947857D01*
X173387200Y-69185952D02*
X174101485Y-69424047D01*
X174101485Y-69424047D02*
X174101485Y-68805000D01*
X174434819Y-67947857D02*
X174434819Y-68424047D01*
X174434819Y-68424047D02*
X173434819Y-68424047D01*
X174387200Y-67662142D02*
X174434819Y-67519285D01*
X174434819Y-67519285D02*
X174434819Y-67281190D01*
X174434819Y-67281190D02*
X174387200Y-67185952D01*
X174387200Y-67185952D02*
X174339580Y-67138333D01*
X174339580Y-67138333D02*
X174244342Y-67090714D01*
X174244342Y-67090714D02*
X174149104Y-67090714D01*
X174149104Y-67090714D02*
X174053866Y-67138333D01*
X174053866Y-67138333D02*
X174006247Y-67185952D01*
X174006247Y-67185952D02*
X173958628Y-67281190D01*
X173958628Y-67281190D02*
X173911009Y-67471666D01*
X173911009Y-67471666D02*
X173863390Y-67566904D01*
X173863390Y-67566904D02*
X173815771Y-67614523D01*
X173815771Y-67614523D02*
X173720533Y-67662142D01*
X173720533Y-67662142D02*
X173625295Y-67662142D01*
X173625295Y-67662142D02*
X173530057Y-67614523D01*
X173530057Y-67614523D02*
X173482438Y-67566904D01*
X173482438Y-67566904D02*
X173434819Y-67471666D01*
X173434819Y-67471666D02*
X173434819Y-67233571D01*
X173434819Y-67233571D02*
X173482438Y-67090714D01*
X173530057Y-66709761D02*
X173482438Y-66662142D01*
X173482438Y-66662142D02*
X173434819Y-66566904D01*
X173434819Y-66566904D02*
X173434819Y-66328809D01*
X173434819Y-66328809D02*
X173482438Y-66233571D01*
X173482438Y-66233571D02*
X173530057Y-66185952D01*
X173530057Y-66185952D02*
X173625295Y-66138333D01*
X173625295Y-66138333D02*
X173720533Y-66138333D01*
X173720533Y-66138333D02*
X173863390Y-66185952D01*
X173863390Y-66185952D02*
X174434819Y-66757380D01*
X174434819Y-66757380D02*
X174434819Y-66138333D01*
X173434819Y-65281190D02*
X173434819Y-65471666D01*
X173434819Y-65471666D02*
X173482438Y-65566904D01*
X173482438Y-65566904D02*
X173530057Y-65614523D01*
X173530057Y-65614523D02*
X173672914Y-65709761D01*
X173672914Y-65709761D02*
X173863390Y-65757380D01*
X173863390Y-65757380D02*
X174244342Y-65757380D01*
X174244342Y-65757380D02*
X174339580Y-65709761D01*
X174339580Y-65709761D02*
X174387200Y-65662142D01*
X174387200Y-65662142D02*
X174434819Y-65566904D01*
X174434819Y-65566904D02*
X174434819Y-65376428D01*
X174434819Y-65376428D02*
X174387200Y-65281190D01*
X174387200Y-65281190D02*
X174339580Y-65233571D01*
X174339580Y-65233571D02*
X174244342Y-65185952D01*
X174244342Y-65185952D02*
X174006247Y-65185952D01*
X174006247Y-65185952D02*
X173911009Y-65233571D01*
X173911009Y-65233571D02*
X173863390Y-65281190D01*
X173863390Y-65281190D02*
X173815771Y-65376428D01*
X173815771Y-65376428D02*
X173815771Y-65566904D01*
X173815771Y-65566904D02*
X173863390Y-65662142D01*
X173863390Y-65662142D02*
X173911009Y-65709761D01*
X173911009Y-65709761D02*
X174006247Y-65757380D01*
X173434819Y-64328809D02*
X173434819Y-64519285D01*
X173434819Y-64519285D02*
X173482438Y-64614523D01*
X173482438Y-64614523D02*
X173530057Y-64662142D01*
X173530057Y-64662142D02*
X173672914Y-64757380D01*
X173672914Y-64757380D02*
X173863390Y-64804999D01*
X173863390Y-64804999D02*
X174244342Y-64804999D01*
X174244342Y-64804999D02*
X174339580Y-64757380D01*
X174339580Y-64757380D02*
X174387200Y-64709761D01*
X174387200Y-64709761D02*
X174434819Y-64614523D01*
X174434819Y-64614523D02*
X174434819Y-64424047D01*
X174434819Y-64424047D02*
X174387200Y-64328809D01*
X174387200Y-64328809D02*
X174339580Y-64281190D01*
X174339580Y-64281190D02*
X174244342Y-64233571D01*
X174244342Y-64233571D02*
X174006247Y-64233571D01*
X174006247Y-64233571D02*
X173911009Y-64281190D01*
X173911009Y-64281190D02*
X173863390Y-64328809D01*
X173863390Y-64328809D02*
X173815771Y-64424047D01*
X173815771Y-64424047D02*
X173815771Y-64614523D01*
X173815771Y-64614523D02*
X173863390Y-64709761D01*
X173863390Y-64709761D02*
X173911009Y-64757380D01*
X173911009Y-64757380D02*
X174006247Y-64804999D01*
X114332142Y-63849580D02*
X114284523Y-63897200D01*
X114284523Y-63897200D02*
X114141666Y-63944819D01*
X114141666Y-63944819D02*
X114046428Y-63944819D01*
X114046428Y-63944819D02*
X113903571Y-63897200D01*
X113903571Y-63897200D02*
X113808333Y-63801961D01*
X113808333Y-63801961D02*
X113760714Y-63706723D01*
X113760714Y-63706723D02*
X113713095Y-63516247D01*
X113713095Y-63516247D02*
X113713095Y-63373390D01*
X113713095Y-63373390D02*
X113760714Y-63182914D01*
X113760714Y-63182914D02*
X113808333Y-63087676D01*
X113808333Y-63087676D02*
X113903571Y-62992438D01*
X113903571Y-62992438D02*
X114046428Y-62944819D01*
X114046428Y-62944819D02*
X114141666Y-62944819D01*
X114141666Y-62944819D02*
X114284523Y-62992438D01*
X114284523Y-62992438D02*
X114332142Y-63040057D01*
X115284523Y-63944819D02*
X114713095Y-63944819D01*
X114998809Y-63944819D02*
X114998809Y-62944819D01*
X114998809Y-62944819D02*
X114903571Y-63087676D01*
X114903571Y-63087676D02*
X114808333Y-63182914D01*
X114808333Y-63182914D02*
X114713095Y-63230533D01*
X116189285Y-62944819D02*
X115713095Y-62944819D01*
X115713095Y-62944819D02*
X115665476Y-63421009D01*
X115665476Y-63421009D02*
X115713095Y-63373390D01*
X115713095Y-63373390D02*
X115808333Y-63325771D01*
X115808333Y-63325771D02*
X116046428Y-63325771D01*
X116046428Y-63325771D02*
X116141666Y-63373390D01*
X116141666Y-63373390D02*
X116189285Y-63421009D01*
X116189285Y-63421009D02*
X116236904Y-63516247D01*
X116236904Y-63516247D02*
X116236904Y-63754342D01*
X116236904Y-63754342D02*
X116189285Y-63849580D01*
X116189285Y-63849580D02*
X116141666Y-63897200D01*
X116141666Y-63897200D02*
X116046428Y-63944819D01*
X116046428Y-63944819D02*
X115808333Y-63944819D01*
X115808333Y-63944819D02*
X115713095Y-63897200D01*
X115713095Y-63897200D02*
X115665476Y-63849580D01*
X179429580Y-53347857D02*
X179477200Y-53395476D01*
X179477200Y-53395476D02*
X179524819Y-53538333D01*
X179524819Y-53538333D02*
X179524819Y-53633571D01*
X179524819Y-53633571D02*
X179477200Y-53776428D01*
X179477200Y-53776428D02*
X179381961Y-53871666D01*
X179381961Y-53871666D02*
X179286723Y-53919285D01*
X179286723Y-53919285D02*
X179096247Y-53966904D01*
X179096247Y-53966904D02*
X178953390Y-53966904D01*
X178953390Y-53966904D02*
X178762914Y-53919285D01*
X178762914Y-53919285D02*
X178667676Y-53871666D01*
X178667676Y-53871666D02*
X178572438Y-53776428D01*
X178572438Y-53776428D02*
X178524819Y-53633571D01*
X178524819Y-53633571D02*
X178524819Y-53538333D01*
X178524819Y-53538333D02*
X178572438Y-53395476D01*
X178572438Y-53395476D02*
X178620057Y-53347857D01*
X179524819Y-52395476D02*
X179524819Y-52966904D01*
X179524819Y-52681190D02*
X178524819Y-52681190D01*
X178524819Y-52681190D02*
X178667676Y-52776428D01*
X178667676Y-52776428D02*
X178762914Y-52871666D01*
X178762914Y-52871666D02*
X178810533Y-52966904D01*
X178524819Y-51776428D02*
X178524819Y-51681190D01*
X178524819Y-51681190D02*
X178572438Y-51585952D01*
X178572438Y-51585952D02*
X178620057Y-51538333D01*
X178620057Y-51538333D02*
X178715295Y-51490714D01*
X178715295Y-51490714D02*
X178905771Y-51443095D01*
X178905771Y-51443095D02*
X179143866Y-51443095D01*
X179143866Y-51443095D02*
X179334342Y-51490714D01*
X179334342Y-51490714D02*
X179429580Y-51538333D01*
X179429580Y-51538333D02*
X179477200Y-51585952D01*
X179477200Y-51585952D02*
X179524819Y-51681190D01*
X179524819Y-51681190D02*
X179524819Y-51776428D01*
X179524819Y-51776428D02*
X179477200Y-51871666D01*
X179477200Y-51871666D02*
X179429580Y-51919285D01*
X179429580Y-51919285D02*
X179334342Y-51966904D01*
X179334342Y-51966904D02*
X179143866Y-52014523D01*
X179143866Y-52014523D02*
X178905771Y-52014523D01*
X178905771Y-52014523D02*
X178715295Y-51966904D01*
X178715295Y-51966904D02*
X178620057Y-51919285D01*
X178620057Y-51919285D02*
X178572438Y-51871666D01*
X178572438Y-51871666D02*
X178524819Y-51776428D01*
X123658333Y-63954819D02*
X123325000Y-63478628D01*
X123086905Y-63954819D02*
X123086905Y-62954819D01*
X123086905Y-62954819D02*
X123467857Y-62954819D01*
X123467857Y-62954819D02*
X123563095Y-63002438D01*
X123563095Y-63002438D02*
X123610714Y-63050057D01*
X123610714Y-63050057D02*
X123658333Y-63145295D01*
X123658333Y-63145295D02*
X123658333Y-63288152D01*
X123658333Y-63288152D02*
X123610714Y-63383390D01*
X123610714Y-63383390D02*
X123563095Y-63431009D01*
X123563095Y-63431009D02*
X123467857Y-63478628D01*
X123467857Y-63478628D02*
X123086905Y-63478628D01*
X123991667Y-62954819D02*
X124658333Y-62954819D01*
X124658333Y-62954819D02*
X124229762Y-63954819D01*
X106134819Y-76398333D02*
X106849104Y-76398333D01*
X106849104Y-76398333D02*
X106991961Y-76445952D01*
X106991961Y-76445952D02*
X107087200Y-76541190D01*
X107087200Y-76541190D02*
X107134819Y-76684047D01*
X107134819Y-76684047D02*
X107134819Y-76779285D01*
X107134819Y-75922142D02*
X106134819Y-75922142D01*
X106134819Y-75922142D02*
X106134819Y-75541190D01*
X106134819Y-75541190D02*
X106182438Y-75445952D01*
X106182438Y-75445952D02*
X106230057Y-75398333D01*
X106230057Y-75398333D02*
X106325295Y-75350714D01*
X106325295Y-75350714D02*
X106468152Y-75350714D01*
X106468152Y-75350714D02*
X106563390Y-75398333D01*
X106563390Y-75398333D02*
X106611009Y-75445952D01*
X106611009Y-75445952D02*
X106658628Y-75541190D01*
X106658628Y-75541190D02*
X106658628Y-75922142D01*
X107134819Y-74398333D02*
X107134819Y-74969761D01*
X107134819Y-74684047D02*
X106134819Y-74684047D01*
X106134819Y-74684047D02*
X106277676Y-74779285D01*
X106277676Y-74779285D02*
X106372914Y-74874523D01*
X106372914Y-74874523D02*
X106420533Y-74969761D01*
X147447095Y-57493819D02*
X147447095Y-58303342D01*
X147447095Y-58303342D02*
X147494714Y-58398580D01*
X147494714Y-58398580D02*
X147542333Y-58446200D01*
X147542333Y-58446200D02*
X147637571Y-58493819D01*
X147637571Y-58493819D02*
X147828047Y-58493819D01*
X147828047Y-58493819D02*
X147923285Y-58446200D01*
X147923285Y-58446200D02*
X147970904Y-58398580D01*
X147970904Y-58398580D02*
X148018523Y-58303342D01*
X148018523Y-58303342D02*
X148018523Y-57493819D01*
X149018523Y-58493819D02*
X148447095Y-58493819D01*
X148732809Y-58493819D02*
X148732809Y-57493819D01*
X148732809Y-57493819D02*
X148637571Y-57636676D01*
X148637571Y-57636676D02*
X148542333Y-57731914D01*
X148542333Y-57731914D02*
X148447095Y-57779533D01*
X151400095Y-57620819D02*
X152066761Y-57620819D01*
X152066761Y-57620819D02*
X151638190Y-58620819D01*
X152590571Y-58049390D02*
X152495333Y-58001771D01*
X152495333Y-58001771D02*
X152447714Y-57954152D01*
X152447714Y-57954152D02*
X152400095Y-57858914D01*
X152400095Y-57858914D02*
X152400095Y-57811295D01*
X152400095Y-57811295D02*
X152447714Y-57716057D01*
X152447714Y-57716057D02*
X152495333Y-57668438D01*
X152495333Y-57668438D02*
X152590571Y-57620819D01*
X152590571Y-57620819D02*
X152781047Y-57620819D01*
X152781047Y-57620819D02*
X152876285Y-57668438D01*
X152876285Y-57668438D02*
X152923904Y-57716057D01*
X152923904Y-57716057D02*
X152971523Y-57811295D01*
X152971523Y-57811295D02*
X152971523Y-57858914D01*
X152971523Y-57858914D02*
X152923904Y-57954152D01*
X152923904Y-57954152D02*
X152876285Y-58001771D01*
X152876285Y-58001771D02*
X152781047Y-58049390D01*
X152781047Y-58049390D02*
X152590571Y-58049390D01*
X152590571Y-58049390D02*
X152495333Y-58097009D01*
X152495333Y-58097009D02*
X152447714Y-58144628D01*
X152447714Y-58144628D02*
X152400095Y-58239866D01*
X152400095Y-58239866D02*
X152400095Y-58430342D01*
X152400095Y-58430342D02*
X152447714Y-58525580D01*
X152447714Y-58525580D02*
X152495333Y-58573200D01*
X152495333Y-58573200D02*
X152590571Y-58620819D01*
X152590571Y-58620819D02*
X152781047Y-58620819D01*
X152781047Y-58620819D02*
X152876285Y-58573200D01*
X152876285Y-58573200D02*
X152923904Y-58525580D01*
X152923904Y-58525580D02*
X152971523Y-58430342D01*
X152971523Y-58430342D02*
X152971523Y-58239866D01*
X152971523Y-58239866D02*
X152923904Y-58144628D01*
X152923904Y-58144628D02*
X152876285Y-58097009D01*
X152876285Y-58097009D02*
X152781047Y-58049390D01*
X153590571Y-57620819D02*
X153685809Y-57620819D01*
X153685809Y-57620819D02*
X153781047Y-57668438D01*
X153781047Y-57668438D02*
X153828666Y-57716057D01*
X153828666Y-57716057D02*
X153876285Y-57811295D01*
X153876285Y-57811295D02*
X153923904Y-58001771D01*
X153923904Y-58001771D02*
X153923904Y-58239866D01*
X153923904Y-58239866D02*
X153876285Y-58430342D01*
X153876285Y-58430342D02*
X153828666Y-58525580D01*
X153828666Y-58525580D02*
X153781047Y-58573200D01*
X153781047Y-58573200D02*
X153685809Y-58620819D01*
X153685809Y-58620819D02*
X153590571Y-58620819D01*
X153590571Y-58620819D02*
X153495333Y-58573200D01*
X153495333Y-58573200D02*
X153447714Y-58525580D01*
X153447714Y-58525580D02*
X153400095Y-58430342D01*
X153400095Y-58430342D02*
X153352476Y-58239866D01*
X153352476Y-58239866D02*
X153352476Y-58001771D01*
X153352476Y-58001771D02*
X153400095Y-57811295D01*
X153400095Y-57811295D02*
X153447714Y-57716057D01*
X153447714Y-57716057D02*
X153495333Y-57668438D01*
X153495333Y-57668438D02*
X153590571Y-57620819D01*
X154828666Y-57620819D02*
X154352476Y-57620819D01*
X154352476Y-57620819D02*
X154304857Y-58097009D01*
X154304857Y-58097009D02*
X154352476Y-58049390D01*
X154352476Y-58049390D02*
X154447714Y-58001771D01*
X154447714Y-58001771D02*
X154685809Y-58001771D01*
X154685809Y-58001771D02*
X154781047Y-58049390D01*
X154781047Y-58049390D02*
X154828666Y-58097009D01*
X154828666Y-58097009D02*
X154876285Y-58192247D01*
X154876285Y-58192247D02*
X154876285Y-58430342D01*
X154876285Y-58430342D02*
X154828666Y-58525580D01*
X154828666Y-58525580D02*
X154781047Y-58573200D01*
X154781047Y-58573200D02*
X154685809Y-58620819D01*
X154685809Y-58620819D02*
X154447714Y-58620819D01*
X154447714Y-58620819D02*
X154352476Y-58573200D01*
X154352476Y-58573200D02*
X154304857Y-58525580D01*
X106809442Y-47359580D02*
X106761823Y-47407200D01*
X106761823Y-47407200D02*
X106618966Y-47454819D01*
X106618966Y-47454819D02*
X106523728Y-47454819D01*
X106523728Y-47454819D02*
X106380871Y-47407200D01*
X106380871Y-47407200D02*
X106285633Y-47311961D01*
X106285633Y-47311961D02*
X106238014Y-47216723D01*
X106238014Y-47216723D02*
X106190395Y-47026247D01*
X106190395Y-47026247D02*
X106190395Y-46883390D01*
X106190395Y-46883390D02*
X106238014Y-46692914D01*
X106238014Y-46692914D02*
X106285633Y-46597676D01*
X106285633Y-46597676D02*
X106380871Y-46502438D01*
X106380871Y-46502438D02*
X106523728Y-46454819D01*
X106523728Y-46454819D02*
X106618966Y-46454819D01*
X106618966Y-46454819D02*
X106761823Y-46502438D01*
X106761823Y-46502438D02*
X106809442Y-46550057D01*
X107761823Y-47454819D02*
X107190395Y-47454819D01*
X107476109Y-47454819D02*
X107476109Y-46454819D01*
X107476109Y-46454819D02*
X107380871Y-46597676D01*
X107380871Y-46597676D02*
X107285633Y-46692914D01*
X107285633Y-46692914D02*
X107190395Y-46740533D01*
X108142776Y-46550057D02*
X108190395Y-46502438D01*
X108190395Y-46502438D02*
X108285633Y-46454819D01*
X108285633Y-46454819D02*
X108523728Y-46454819D01*
X108523728Y-46454819D02*
X108618966Y-46502438D01*
X108618966Y-46502438D02*
X108666585Y-46550057D01*
X108666585Y-46550057D02*
X108714204Y-46645295D01*
X108714204Y-46645295D02*
X108714204Y-46740533D01*
X108714204Y-46740533D02*
X108666585Y-46883390D01*
X108666585Y-46883390D02*
X108095157Y-47454819D01*
X108095157Y-47454819D02*
X108714204Y-47454819D01*
X179538333Y-56874580D02*
X179490714Y-56922200D01*
X179490714Y-56922200D02*
X179347857Y-56969819D01*
X179347857Y-56969819D02*
X179252619Y-56969819D01*
X179252619Y-56969819D02*
X179109762Y-56922200D01*
X179109762Y-56922200D02*
X179014524Y-56826961D01*
X179014524Y-56826961D02*
X178966905Y-56731723D01*
X178966905Y-56731723D02*
X178919286Y-56541247D01*
X178919286Y-56541247D02*
X178919286Y-56398390D01*
X178919286Y-56398390D02*
X178966905Y-56207914D01*
X178966905Y-56207914D02*
X179014524Y-56112676D01*
X179014524Y-56112676D02*
X179109762Y-56017438D01*
X179109762Y-56017438D02*
X179252619Y-55969819D01*
X179252619Y-55969819D02*
X179347857Y-55969819D01*
X179347857Y-55969819D02*
X179490714Y-56017438D01*
X179490714Y-56017438D02*
X179538333Y-56065057D01*
X179871667Y-55969819D02*
X180490714Y-55969819D01*
X180490714Y-55969819D02*
X180157381Y-56350771D01*
X180157381Y-56350771D02*
X180300238Y-56350771D01*
X180300238Y-56350771D02*
X180395476Y-56398390D01*
X180395476Y-56398390D02*
X180443095Y-56446009D01*
X180443095Y-56446009D02*
X180490714Y-56541247D01*
X180490714Y-56541247D02*
X180490714Y-56779342D01*
X180490714Y-56779342D02*
X180443095Y-56874580D01*
X180443095Y-56874580D02*
X180395476Y-56922200D01*
X180395476Y-56922200D02*
X180300238Y-56969819D01*
X180300238Y-56969819D02*
X180014524Y-56969819D01*
X180014524Y-56969819D02*
X179919286Y-56922200D01*
X179919286Y-56922200D02*
X179871667Y-56874580D01*
X175768095Y-114814819D02*
X175768095Y-115624342D01*
X175768095Y-115624342D02*
X175815714Y-115719580D01*
X175815714Y-115719580D02*
X175863333Y-115767200D01*
X175863333Y-115767200D02*
X175958571Y-115814819D01*
X175958571Y-115814819D02*
X176149047Y-115814819D01*
X176149047Y-115814819D02*
X176244285Y-115767200D01*
X176244285Y-115767200D02*
X176291904Y-115719580D01*
X176291904Y-115719580D02*
X176339523Y-115624342D01*
X176339523Y-115624342D02*
X176339523Y-114814819D01*
X177244285Y-114814819D02*
X177053809Y-114814819D01*
X177053809Y-114814819D02*
X176958571Y-114862438D01*
X176958571Y-114862438D02*
X176910952Y-114910057D01*
X176910952Y-114910057D02*
X176815714Y-115052914D01*
X176815714Y-115052914D02*
X176768095Y-115243390D01*
X176768095Y-115243390D02*
X176768095Y-115624342D01*
X176768095Y-115624342D02*
X176815714Y-115719580D01*
X176815714Y-115719580D02*
X176863333Y-115767200D01*
X176863333Y-115767200D02*
X176958571Y-115814819D01*
X176958571Y-115814819D02*
X177149047Y-115814819D01*
X177149047Y-115814819D02*
X177244285Y-115767200D01*
X177244285Y-115767200D02*
X177291904Y-115719580D01*
X177291904Y-115719580D02*
X177339523Y-115624342D01*
X177339523Y-115624342D02*
X177339523Y-115386247D01*
X177339523Y-115386247D02*
X177291904Y-115291009D01*
X177291904Y-115291009D02*
X177244285Y-115243390D01*
X177244285Y-115243390D02*
X177149047Y-115195771D01*
X177149047Y-115195771D02*
X176958571Y-115195771D01*
X176958571Y-115195771D02*
X176863333Y-115243390D01*
X176863333Y-115243390D02*
X176815714Y-115291009D01*
X176815714Y-115291009D02*
X176768095Y-115386247D01*
X176032438Y-101964762D02*
X175984819Y-102060000D01*
X175984819Y-102060000D02*
X175984819Y-102202857D01*
X175984819Y-102202857D02*
X176032438Y-102345714D01*
X176032438Y-102345714D02*
X176127676Y-102440952D01*
X176127676Y-102440952D02*
X176222914Y-102488571D01*
X176222914Y-102488571D02*
X176413390Y-102536190D01*
X176413390Y-102536190D02*
X176556247Y-102536190D01*
X176556247Y-102536190D02*
X176746723Y-102488571D01*
X176746723Y-102488571D02*
X176841961Y-102440952D01*
X176841961Y-102440952D02*
X176937200Y-102345714D01*
X176937200Y-102345714D02*
X176984819Y-102202857D01*
X176984819Y-102202857D02*
X176984819Y-102107619D01*
X176984819Y-102107619D02*
X176937200Y-101964762D01*
X176937200Y-101964762D02*
X176889580Y-101917143D01*
X176889580Y-101917143D02*
X176556247Y-101917143D01*
X176556247Y-101917143D02*
X176556247Y-102107619D01*
X176699104Y-101536190D02*
X176699104Y-101060000D01*
X176984819Y-101631428D02*
X175984819Y-101298095D01*
X175984819Y-101298095D02*
X176984819Y-100964762D01*
X176984819Y-100155238D02*
X176984819Y-100631428D01*
X176984819Y-100631428D02*
X175984819Y-100631428D01*
X176080057Y-99869523D02*
X176032438Y-99821904D01*
X176032438Y-99821904D02*
X175984819Y-99726666D01*
X175984819Y-99726666D02*
X175984819Y-99488571D01*
X175984819Y-99488571D02*
X176032438Y-99393333D01*
X176032438Y-99393333D02*
X176080057Y-99345714D01*
X176080057Y-99345714D02*
X176175295Y-99298095D01*
X176175295Y-99298095D02*
X176270533Y-99298095D01*
X176270533Y-99298095D02*
X176413390Y-99345714D01*
X176413390Y-99345714D02*
X176984819Y-99917142D01*
X176984819Y-99917142D02*
X176984819Y-99298095D01*
X176080057Y-98917142D02*
X176032438Y-98869523D01*
X176032438Y-98869523D02*
X175984819Y-98774285D01*
X175984819Y-98774285D02*
X175984819Y-98536190D01*
X175984819Y-98536190D02*
X176032438Y-98440952D01*
X176032438Y-98440952D02*
X176080057Y-98393333D01*
X176080057Y-98393333D02*
X176175295Y-98345714D01*
X176175295Y-98345714D02*
X176270533Y-98345714D01*
X176270533Y-98345714D02*
X176413390Y-98393333D01*
X176413390Y-98393333D02*
X176984819Y-98964761D01*
X176984819Y-98964761D02*
X176984819Y-98345714D01*
X175984819Y-98059999D02*
X176984819Y-97726666D01*
X176984819Y-97726666D02*
X175984819Y-97393333D01*
X176984819Y-96536190D02*
X176984819Y-97107618D01*
X176984819Y-96821904D02*
X175984819Y-96821904D01*
X175984819Y-96821904D02*
X176127676Y-96917142D01*
X176127676Y-96917142D02*
X176222914Y-97012380D01*
X176222914Y-97012380D02*
X176270533Y-97107618D01*
X175984819Y-95917142D02*
X175984819Y-95821904D01*
X175984819Y-95821904D02*
X176032438Y-95726666D01*
X176032438Y-95726666D02*
X176080057Y-95679047D01*
X176080057Y-95679047D02*
X176175295Y-95631428D01*
X176175295Y-95631428D02*
X176365771Y-95583809D01*
X176365771Y-95583809D02*
X176603866Y-95583809D01*
X176603866Y-95583809D02*
X176794342Y-95631428D01*
X176794342Y-95631428D02*
X176889580Y-95679047D01*
X176889580Y-95679047D02*
X176937200Y-95726666D01*
X176937200Y-95726666D02*
X176984819Y-95821904D01*
X176984819Y-95821904D02*
X176984819Y-95917142D01*
X176984819Y-95917142D02*
X176937200Y-96012380D01*
X176937200Y-96012380D02*
X176889580Y-96059999D01*
X176889580Y-96059999D02*
X176794342Y-96107618D01*
X176794342Y-96107618D02*
X176603866Y-96155237D01*
X176603866Y-96155237D02*
X176365771Y-96155237D01*
X176365771Y-96155237D02*
X176175295Y-96107618D01*
X176175295Y-96107618D02*
X176080057Y-96059999D01*
X176080057Y-96059999D02*
X176032438Y-96012380D01*
X176032438Y-96012380D02*
X175984819Y-95917142D01*
X188896666Y-47714819D02*
X188896666Y-48429104D01*
X188896666Y-48429104D02*
X188849047Y-48571961D01*
X188849047Y-48571961D02*
X188753809Y-48667200D01*
X188753809Y-48667200D02*
X188610952Y-48714819D01*
X188610952Y-48714819D02*
X188515714Y-48714819D01*
X189896666Y-48714819D02*
X189325238Y-48714819D01*
X189610952Y-48714819D02*
X189610952Y-47714819D01*
X189610952Y-47714819D02*
X189515714Y-47857676D01*
X189515714Y-47857676D02*
X189420476Y-47952914D01*
X189420476Y-47952914D02*
X189325238Y-48000533D01*
X158234286Y-72229819D02*
X158900952Y-73229819D01*
X158900952Y-72229819D02*
X158234286Y-73229819D01*
X159805714Y-73229819D02*
X159234286Y-73229819D01*
X159520000Y-73229819D02*
X159520000Y-72229819D01*
X159520000Y-72229819D02*
X159424762Y-72372676D01*
X159424762Y-72372676D02*
X159329524Y-72467914D01*
X159329524Y-72467914D02*
X159234286Y-72515533D01*
X160567619Y-72706009D02*
X160710476Y-72753628D01*
X160710476Y-72753628D02*
X160758095Y-72801247D01*
X160758095Y-72801247D02*
X160805714Y-72896485D01*
X160805714Y-72896485D02*
X160805714Y-73039342D01*
X160805714Y-73039342D02*
X160758095Y-73134580D01*
X160758095Y-73134580D02*
X160710476Y-73182200D01*
X160710476Y-73182200D02*
X160615238Y-73229819D01*
X160615238Y-73229819D02*
X160234286Y-73229819D01*
X160234286Y-73229819D02*
X160234286Y-72229819D01*
X160234286Y-72229819D02*
X160567619Y-72229819D01*
X160567619Y-72229819D02*
X160662857Y-72277438D01*
X160662857Y-72277438D02*
X160710476Y-72325057D01*
X160710476Y-72325057D02*
X160758095Y-72420295D01*
X160758095Y-72420295D02*
X160758095Y-72515533D01*
X160758095Y-72515533D02*
X160710476Y-72610771D01*
X160710476Y-72610771D02*
X160662857Y-72658390D01*
X160662857Y-72658390D02*
X160567619Y-72706009D01*
X160567619Y-72706009D02*
X160234286Y-72706009D01*
X161758095Y-73229819D02*
X161186667Y-73229819D01*
X161472381Y-73229819D02*
X161472381Y-72229819D01*
X161472381Y-72229819D02*
X161377143Y-72372676D01*
X161377143Y-72372676D02*
X161281905Y-72467914D01*
X161281905Y-72467914D02*
X161186667Y-72515533D01*
X146984819Y-129031904D02*
X147794342Y-129031904D01*
X147794342Y-129031904D02*
X147889580Y-128984285D01*
X147889580Y-128984285D02*
X147937200Y-128936666D01*
X147937200Y-128936666D02*
X147984819Y-128841428D01*
X147984819Y-128841428D02*
X147984819Y-128650952D01*
X147984819Y-128650952D02*
X147937200Y-128555714D01*
X147937200Y-128555714D02*
X147889580Y-128508095D01*
X147889580Y-128508095D02*
X147794342Y-128460476D01*
X147794342Y-128460476D02*
X146984819Y-128460476D01*
X147080057Y-128031904D02*
X147032438Y-127984285D01*
X147032438Y-127984285D02*
X146984819Y-127889047D01*
X146984819Y-127889047D02*
X146984819Y-127650952D01*
X146984819Y-127650952D02*
X147032438Y-127555714D01*
X147032438Y-127555714D02*
X147080057Y-127508095D01*
X147080057Y-127508095D02*
X147175295Y-127460476D01*
X147175295Y-127460476D02*
X147270533Y-127460476D01*
X147270533Y-127460476D02*
X147413390Y-127508095D01*
X147413390Y-127508095D02*
X147984819Y-128079523D01*
X147984819Y-128079523D02*
X147984819Y-127460476D01*
X163060476Y-127724819D02*
X163298571Y-128724819D01*
X163298571Y-128724819D02*
X163489047Y-128010533D01*
X163489047Y-128010533D02*
X163679523Y-128724819D01*
X163679523Y-128724819D02*
X163917619Y-127724819D01*
X164250952Y-127820057D02*
X164298571Y-127772438D01*
X164298571Y-127772438D02*
X164393809Y-127724819D01*
X164393809Y-127724819D02*
X164631904Y-127724819D01*
X164631904Y-127724819D02*
X164727142Y-127772438D01*
X164727142Y-127772438D02*
X164774761Y-127820057D01*
X164774761Y-127820057D02*
X164822380Y-127915295D01*
X164822380Y-127915295D02*
X164822380Y-128010533D01*
X164822380Y-128010533D02*
X164774761Y-128153390D01*
X164774761Y-128153390D02*
X164203333Y-128724819D01*
X164203333Y-128724819D02*
X164822380Y-128724819D01*
X165155714Y-127724819D02*
X165822380Y-127724819D01*
X165822380Y-127724819D02*
X165393809Y-128724819D01*
X166774761Y-128629580D02*
X166727142Y-128677200D01*
X166727142Y-128677200D02*
X166584285Y-128724819D01*
X166584285Y-128724819D02*
X166489047Y-128724819D01*
X166489047Y-128724819D02*
X166346190Y-128677200D01*
X166346190Y-128677200D02*
X166250952Y-128581961D01*
X166250952Y-128581961D02*
X166203333Y-128486723D01*
X166203333Y-128486723D02*
X166155714Y-128296247D01*
X166155714Y-128296247D02*
X166155714Y-128153390D01*
X166155714Y-128153390D02*
X166203333Y-127962914D01*
X166203333Y-127962914D02*
X166250952Y-127867676D01*
X166250952Y-127867676D02*
X166346190Y-127772438D01*
X166346190Y-127772438D02*
X166489047Y-127724819D01*
X166489047Y-127724819D02*
X166584285Y-127724819D01*
X166584285Y-127724819D02*
X166727142Y-127772438D01*
X166727142Y-127772438D02*
X166774761Y-127820057D01*
X167679523Y-127724819D02*
X167203333Y-127724819D01*
X167203333Y-127724819D02*
X167155714Y-128201009D01*
X167155714Y-128201009D02*
X167203333Y-128153390D01*
X167203333Y-128153390D02*
X167298571Y-128105771D01*
X167298571Y-128105771D02*
X167536666Y-128105771D01*
X167536666Y-128105771D02*
X167631904Y-128153390D01*
X167631904Y-128153390D02*
X167679523Y-128201009D01*
X167679523Y-128201009D02*
X167727142Y-128296247D01*
X167727142Y-128296247D02*
X167727142Y-128534342D01*
X167727142Y-128534342D02*
X167679523Y-128629580D01*
X167679523Y-128629580D02*
X167631904Y-128677200D01*
X167631904Y-128677200D02*
X167536666Y-128724819D01*
X167536666Y-128724819D02*
X167298571Y-128724819D01*
X167298571Y-128724819D02*
X167203333Y-128677200D01*
X167203333Y-128677200D02*
X167155714Y-128629580D01*
X168679523Y-128724819D02*
X168108095Y-128724819D01*
X168393809Y-128724819D02*
X168393809Y-127724819D01*
X168393809Y-127724819D02*
X168298571Y-127867676D01*
X168298571Y-127867676D02*
X168203333Y-127962914D01*
X168203333Y-127962914D02*
X168108095Y-128010533D01*
X169060476Y-127820057D02*
X169108095Y-127772438D01*
X169108095Y-127772438D02*
X169203333Y-127724819D01*
X169203333Y-127724819D02*
X169441428Y-127724819D01*
X169441428Y-127724819D02*
X169536666Y-127772438D01*
X169536666Y-127772438D02*
X169584285Y-127820057D01*
X169584285Y-127820057D02*
X169631904Y-127915295D01*
X169631904Y-127915295D02*
X169631904Y-128010533D01*
X169631904Y-128010533D02*
X169584285Y-128153390D01*
X169584285Y-128153390D02*
X169012857Y-128724819D01*
X169012857Y-128724819D02*
X169631904Y-128724819D01*
X131169580Y-67476666D02*
X131217200Y-67524285D01*
X131217200Y-67524285D02*
X131264819Y-67667142D01*
X131264819Y-67667142D02*
X131264819Y-67762380D01*
X131264819Y-67762380D02*
X131217200Y-67905237D01*
X131217200Y-67905237D02*
X131121961Y-68000475D01*
X131121961Y-68000475D02*
X131026723Y-68048094D01*
X131026723Y-68048094D02*
X130836247Y-68095713D01*
X130836247Y-68095713D02*
X130693390Y-68095713D01*
X130693390Y-68095713D02*
X130502914Y-68048094D01*
X130502914Y-68048094D02*
X130407676Y-68000475D01*
X130407676Y-68000475D02*
X130312438Y-67905237D01*
X130312438Y-67905237D02*
X130264819Y-67762380D01*
X130264819Y-67762380D02*
X130264819Y-67667142D01*
X130264819Y-67667142D02*
X130312438Y-67524285D01*
X130312438Y-67524285D02*
X130360057Y-67476666D01*
X130264819Y-66571904D02*
X130264819Y-67048094D01*
X130264819Y-67048094D02*
X130741009Y-67095713D01*
X130741009Y-67095713D02*
X130693390Y-67048094D01*
X130693390Y-67048094D02*
X130645771Y-66952856D01*
X130645771Y-66952856D02*
X130645771Y-66714761D01*
X130645771Y-66714761D02*
X130693390Y-66619523D01*
X130693390Y-66619523D02*
X130741009Y-66571904D01*
X130741009Y-66571904D02*
X130836247Y-66524285D01*
X130836247Y-66524285D02*
X131074342Y-66524285D01*
X131074342Y-66524285D02*
X131169580Y-66571904D01*
X131169580Y-66571904D02*
X131217200Y-66619523D01*
X131217200Y-66619523D02*
X131264819Y-66714761D01*
X131264819Y-66714761D02*
X131264819Y-66952856D01*
X131264819Y-66952856D02*
X131217200Y-67048094D01*
X131217200Y-67048094D02*
X131169580Y-67095713D01*
X116509819Y-106151904D02*
X117319342Y-106151904D01*
X117319342Y-106151904D02*
X117414580Y-106104285D01*
X117414580Y-106104285D02*
X117462200Y-106056666D01*
X117462200Y-106056666D02*
X117509819Y-105961428D01*
X117509819Y-105961428D02*
X117509819Y-105770952D01*
X117509819Y-105770952D02*
X117462200Y-105675714D01*
X117462200Y-105675714D02*
X117414580Y-105628095D01*
X117414580Y-105628095D02*
X117319342Y-105580476D01*
X117319342Y-105580476D02*
X116509819Y-105580476D01*
X116843152Y-104675714D02*
X117509819Y-104675714D01*
X116462200Y-104913809D02*
X117176485Y-105151904D01*
X117176485Y-105151904D02*
X117176485Y-104532857D01*
X142271904Y-104844819D02*
X142081428Y-104844819D01*
X142081428Y-104844819D02*
X141986190Y-104892438D01*
X141986190Y-104892438D02*
X141938571Y-104940057D01*
X141938571Y-104940057D02*
X141843333Y-105082914D01*
X141843333Y-105082914D02*
X141795714Y-105273390D01*
X141795714Y-105273390D02*
X141795714Y-105654342D01*
X141795714Y-105654342D02*
X141843333Y-105749580D01*
X141843333Y-105749580D02*
X141890952Y-105797200D01*
X141890952Y-105797200D02*
X141986190Y-105844819D01*
X141986190Y-105844819D02*
X142176666Y-105844819D01*
X142176666Y-105844819D02*
X142271904Y-105797200D01*
X142271904Y-105797200D02*
X142319523Y-105749580D01*
X142319523Y-105749580D02*
X142367142Y-105654342D01*
X142367142Y-105654342D02*
X142367142Y-105416247D01*
X142367142Y-105416247D02*
X142319523Y-105321009D01*
X142319523Y-105321009D02*
X142271904Y-105273390D01*
X142271904Y-105273390D02*
X142176666Y-105225771D01*
X142176666Y-105225771D02*
X141986190Y-105225771D01*
X141986190Y-105225771D02*
X141890952Y-105273390D01*
X141890952Y-105273390D02*
X141843333Y-105321009D01*
X141843333Y-105321009D02*
X141795714Y-105416247D01*
X142938571Y-105273390D02*
X142843333Y-105225771D01*
X142843333Y-105225771D02*
X142795714Y-105178152D01*
X142795714Y-105178152D02*
X142748095Y-105082914D01*
X142748095Y-105082914D02*
X142748095Y-105035295D01*
X142748095Y-105035295D02*
X142795714Y-104940057D01*
X142795714Y-104940057D02*
X142843333Y-104892438D01*
X142843333Y-104892438D02*
X142938571Y-104844819D01*
X142938571Y-104844819D02*
X143129047Y-104844819D01*
X143129047Y-104844819D02*
X143224285Y-104892438D01*
X143224285Y-104892438D02*
X143271904Y-104940057D01*
X143271904Y-104940057D02*
X143319523Y-105035295D01*
X143319523Y-105035295D02*
X143319523Y-105082914D01*
X143319523Y-105082914D02*
X143271904Y-105178152D01*
X143271904Y-105178152D02*
X143224285Y-105225771D01*
X143224285Y-105225771D02*
X143129047Y-105273390D01*
X143129047Y-105273390D02*
X142938571Y-105273390D01*
X142938571Y-105273390D02*
X142843333Y-105321009D01*
X142843333Y-105321009D02*
X142795714Y-105368628D01*
X142795714Y-105368628D02*
X142748095Y-105463866D01*
X142748095Y-105463866D02*
X142748095Y-105654342D01*
X142748095Y-105654342D02*
X142795714Y-105749580D01*
X142795714Y-105749580D02*
X142843333Y-105797200D01*
X142843333Y-105797200D02*
X142938571Y-105844819D01*
X142938571Y-105844819D02*
X143129047Y-105844819D01*
X143129047Y-105844819D02*
X143224285Y-105797200D01*
X143224285Y-105797200D02*
X143271904Y-105749580D01*
X143271904Y-105749580D02*
X143319523Y-105654342D01*
X143319523Y-105654342D02*
X143319523Y-105463866D01*
X143319523Y-105463866D02*
X143271904Y-105368628D01*
X143271904Y-105368628D02*
X143224285Y-105321009D01*
X143224285Y-105321009D02*
X143129047Y-105273390D01*
X143700476Y-104940057D02*
X143748095Y-104892438D01*
X143748095Y-104892438D02*
X143843333Y-104844819D01*
X143843333Y-104844819D02*
X144081428Y-104844819D01*
X144081428Y-104844819D02*
X144176666Y-104892438D01*
X144176666Y-104892438D02*
X144224285Y-104940057D01*
X144224285Y-104940057D02*
X144271904Y-105035295D01*
X144271904Y-105035295D02*
X144271904Y-105130533D01*
X144271904Y-105130533D02*
X144224285Y-105273390D01*
X144224285Y-105273390D02*
X143652857Y-105844819D01*
X143652857Y-105844819D02*
X144271904Y-105844819D01*
X145224285Y-105844819D02*
X144652857Y-105844819D01*
X144938571Y-105844819D02*
X144938571Y-104844819D01*
X144938571Y-104844819D02*
X144843333Y-104987676D01*
X144843333Y-104987676D02*
X144748095Y-105082914D01*
X144748095Y-105082914D02*
X144652857Y-105130533D01*
D12*
%TO.C,U9*%
X133300000Y-53645000D02*
X133300000Y-54895000D01*
X133300000Y-56895000D02*
X133300000Y-58145000D01*
X133300000Y-58145000D02*
X143580000Y-58145000D01*
X143580000Y-53645000D02*
X133300000Y-53645000D01*
X143580000Y-58145000D02*
X143580000Y-53645000D01*
X133300000Y-54895000D02*
G75*
G02*
X133300000Y-56895000I0J-1000000D01*
G01*
%TO.C,U7*%
X109160000Y-79030000D02*
X109160000Y-84090000D01*
X109160000Y-86090000D02*
X109160000Y-91150000D01*
X109160000Y-91150000D02*
X160080000Y-91150000D01*
X160080000Y-79030000D02*
X109160000Y-79030000D01*
X160080000Y-91150000D02*
X160080000Y-79030000D01*
X109160000Y-84090000D02*
G75*
G02*
X109160000Y-86090000I0J-1000000D01*
G01*
%TO.C,C1*%
X183080000Y-48530000D02*
X183095000Y-48530000D01*
X183080000Y-53070000D02*
X183080000Y-48530000D01*
X183080000Y-53070000D02*
X183095000Y-53070000D01*
X185205000Y-48530000D02*
X185220000Y-48530000D01*
X185205000Y-53070000D02*
X185220000Y-53070000D01*
X185220000Y-53070000D02*
X185220000Y-48530000D01*
%TO.C,C6*%
X175490000Y-80225000D02*
X175490000Y-80210000D01*
X175490000Y-82350000D02*
X175490000Y-82335000D01*
X180030000Y-80210000D02*
X175490000Y-80210000D01*
X180030000Y-80225000D02*
X180030000Y-80210000D01*
X180030000Y-82350000D02*
X175490000Y-82350000D01*
X180030000Y-82350000D02*
X180030000Y-82335000D01*
%TO.C,C7*%
X105610000Y-87940000D02*
X105610000Y-92480000D01*
X105625000Y-87940000D02*
X105610000Y-87940000D01*
X105625000Y-92480000D02*
X105610000Y-92480000D01*
X107750000Y-87940000D02*
X107735000Y-87940000D01*
X107750000Y-87940000D02*
X107750000Y-92480000D01*
X107750000Y-92480000D02*
X107735000Y-92480000D01*
%TO.C,Q1*%
X184730000Y-75460000D02*
X184730000Y-71860000D01*
X180280000Y-73660000D02*
G75*
G02*
X184718478Y-71821522I2600000J0D01*
G01*
X184718478Y-75498478D02*
G75*
G02*
X180279999Y-73660000I-1838478J1838478D01*
G01*
%TO.C,R2*%
X120555000Y-45620000D02*
X120555000Y-45950000D01*
X120555000Y-48360000D02*
X120555000Y-48030000D01*
X127095000Y-45620000D02*
X120555000Y-45620000D01*
X127095000Y-45950000D02*
X127095000Y-45620000D01*
X127095000Y-48030000D02*
X127095000Y-48360000D01*
X127095000Y-48360000D02*
X120555000Y-48360000D01*
%TO.C,R6*%
X125630000Y-51340000D02*
X125960000Y-51340000D01*
X125630000Y-57880000D02*
X125630000Y-51340000D01*
X125960000Y-57880000D02*
X125630000Y-57880000D01*
X128040000Y-57880000D02*
X128370000Y-57880000D01*
X128370000Y-51340000D02*
X128040000Y-51340000D01*
X128370000Y-57880000D02*
X128370000Y-51340000D01*
%TO.C,U8*%
X116780000Y-126020000D02*
X116780000Y-127270000D01*
X116780000Y-129270000D02*
X116780000Y-130520000D01*
X116780000Y-130520000D02*
X142300000Y-130520000D01*
X142300000Y-126020000D02*
X116780000Y-126020000D01*
X142300000Y-130520000D02*
X142300000Y-126020000D01*
X116780000Y-127270000D02*
G75*
G02*
X116780000Y-129270000I0J-1000000D01*
G01*
%TO.C,JP2*%
X109160000Y-67255000D02*
X114360000Y-67255000D01*
X109160000Y-69855000D02*
X109160000Y-67255000D01*
X109160000Y-72455000D02*
X109160000Y-71125000D01*
X110490000Y-72455000D02*
X109160000Y-72455000D01*
X111760000Y-69855000D02*
X109160000Y-69855000D01*
X111760000Y-72455000D02*
X111760000Y-69855000D01*
X111760000Y-72455000D02*
X114360000Y-72455000D01*
X114360000Y-72455000D02*
X114360000Y-67255000D01*
%TO.C,U5*%
X133290000Y-66330000D02*
X133290000Y-67580000D01*
X133290000Y-69580000D02*
X133290000Y-70830000D01*
X133290000Y-70830000D02*
X143570000Y-70830000D01*
X143570000Y-66330000D02*
X133290000Y-66330000D01*
X143570000Y-70830000D02*
X143570000Y-66330000D01*
X133290000Y-67580000D02*
G75*
G02*
X133290000Y-69580000I0J-1000000D01*
G01*
%TO.C,C8*%
X113230000Y-124730000D02*
X113230000Y-129270000D01*
X113245000Y-124730000D02*
X113230000Y-124730000D01*
X113245000Y-129270000D02*
X113230000Y-129270000D01*
X115370000Y-124730000D02*
X115355000Y-124730000D01*
X115370000Y-124730000D02*
X115370000Y-129270000D01*
X115370000Y-129270000D02*
X115355000Y-129270000D01*
%TO.C,C14*%
X105045000Y-62445000D02*
X105045000Y-62430000D01*
X105045000Y-64570000D02*
X105045000Y-64555000D01*
X109585000Y-62430000D02*
X105045000Y-62430000D01*
X109585000Y-62445000D02*
X109585000Y-62430000D01*
X109585000Y-64570000D02*
X105045000Y-64570000D01*
X109585000Y-64570000D02*
X109585000Y-64555000D01*
%TO.C,C2*%
X144980000Y-131120000D02*
X144995000Y-131120000D01*
X144980000Y-135660000D02*
X144980000Y-131120000D01*
X144980000Y-135660000D02*
X144995000Y-135660000D01*
X147105000Y-131120000D02*
X147120000Y-131120000D01*
X147105000Y-135660000D02*
X147120000Y-135660000D01*
X147120000Y-135660000D02*
X147120000Y-131120000D01*
%TO.C,R5*%
X122455000Y-51340000D02*
X122785000Y-51340000D01*
X122455000Y-57880000D02*
X122455000Y-51340000D01*
X122785000Y-57880000D02*
X122455000Y-57880000D01*
X124865000Y-57880000D02*
X125195000Y-57880000D01*
X125195000Y-51340000D02*
X124865000Y-51340000D01*
X125195000Y-57880000D02*
X125195000Y-51340000D01*
%TO.C,C13*%
X112665000Y-45935000D02*
X112665000Y-45920000D01*
X112665000Y-48060000D02*
X112665000Y-48045000D01*
X117205000Y-45920000D02*
X112665000Y-45920000D01*
X117205000Y-45935000D02*
X117205000Y-45920000D01*
X117205000Y-48060000D02*
X112665000Y-48060000D01*
X117205000Y-48060000D02*
X117205000Y-48045000D01*
%TO.C,R1*%
X180240000Y-60230000D02*
X180240000Y-66770000D01*
X180240000Y-66770000D02*
X180570000Y-66770000D01*
X180570000Y-60230000D02*
X180240000Y-60230000D01*
X182650000Y-60230000D02*
X182980000Y-60230000D01*
X182980000Y-60230000D02*
X182980000Y-66770000D01*
X182980000Y-66770000D02*
X182650000Y-66770000D01*
D13*
%TO.C,J2*%
X103815000Y-49245000D02*
X103815000Y-61245000D01*
X103815000Y-49245000D02*
X110815000Y-49245000D01*
X103815000Y-61245000D02*
X110815000Y-61245000D01*
X114815000Y-49245000D02*
X113815000Y-49245000D01*
X114815000Y-49245000D02*
X114815000Y-61245000D01*
X114815000Y-61245000D02*
X113815000Y-61245000D01*
D12*
%TO.C,R4*%
X119280000Y-51340000D02*
X119610000Y-51340000D01*
X119280000Y-57880000D02*
X119280000Y-51340000D01*
X119610000Y-57880000D02*
X119280000Y-57880000D01*
X121690000Y-57880000D02*
X122020000Y-57880000D01*
X122020000Y-51340000D02*
X121690000Y-51340000D01*
X122020000Y-57880000D02*
X122020000Y-51340000D01*
%TO.C,C9*%
X129740000Y-54880000D02*
X129755000Y-54880000D01*
X129740000Y-59420000D02*
X129740000Y-54880000D01*
X129740000Y-59420000D02*
X129755000Y-59420000D01*
X131865000Y-54880000D02*
X131880000Y-54880000D01*
X131865000Y-59420000D02*
X131880000Y-59420000D01*
X131880000Y-59420000D02*
X131880000Y-54880000D01*
%TO.C,R3*%
X116105000Y-51340000D02*
X116435000Y-51340000D01*
X116105000Y-57880000D02*
X116105000Y-51340000D01*
X116435000Y-57880000D02*
X116105000Y-57880000D01*
X118515000Y-57880000D02*
X118845000Y-57880000D01*
X118845000Y-51340000D02*
X118515000Y-51340000D01*
X118845000Y-57880000D02*
X118845000Y-51340000D01*
%TO.C,J3*%
X106620000Y-133410000D02*
X106620000Y-100270000D01*
X109220000Y-130810000D02*
X109220000Y-133410000D01*
X109220000Y-133410000D02*
X106620000Y-133410000D01*
X111820000Y-100270000D02*
X106620000Y-100270000D01*
X111820000Y-130810000D02*
X109220000Y-130810000D01*
X111820000Y-130810000D02*
X111820000Y-100270000D01*
X111820000Y-132080000D02*
X111820000Y-133410000D01*
X111820000Y-133410000D02*
X110490000Y-133410000D01*
%TO.C,C4*%
X114500000Y-108180000D02*
X114500000Y-112720000D01*
X114515000Y-108180000D02*
X114500000Y-108180000D01*
X114515000Y-112720000D02*
X114500000Y-112720000D01*
X116640000Y-108180000D02*
X116625000Y-108180000D01*
X116640000Y-108180000D02*
X116640000Y-112720000D01*
X116640000Y-112720000D02*
X116625000Y-112720000D01*
%TO.C,X1*%
X153570000Y-62880000D02*
X153570000Y-74280000D01*
X154320000Y-75030000D02*
X165720000Y-75030000D01*
X166470000Y-62130000D02*
X154320000Y-62130000D01*
X166470000Y-74280000D02*
X166470000Y-62130000D01*
X153570000Y-62880000D02*
G75*
G02*
X154320000Y-62130000I750000J0D01*
G01*
X154320000Y-75030000D02*
G75*
G02*
X153570000Y-74280000I0J750000D01*
G01*
X166470000Y-74280000D02*
G75*
G02*
X165720000Y-75030000I-750000J0D01*
G01*
%TO.C,C11*%
X119610000Y-72698349D02*
X116845000Y-72698349D01*
X119610000Y-72738349D02*
X116860000Y-72738349D01*
X119610000Y-72778349D02*
X116876000Y-72778349D01*
X119610000Y-72818349D02*
X116893000Y-72818349D01*
X119610000Y-72858349D02*
X116910000Y-72858349D01*
X119610000Y-72898349D02*
X116928000Y-72898349D01*
X119610000Y-72938349D02*
X116946000Y-72938349D01*
X119610000Y-72978349D02*
X116964000Y-72978349D01*
X119610000Y-73018349D02*
X116984000Y-73018349D01*
X119610000Y-73058349D02*
X117003000Y-73058349D01*
X119610000Y-73098349D02*
X117023000Y-73098349D01*
X119610000Y-73138349D02*
X117044000Y-73138349D01*
X119610000Y-73178349D02*
X117066000Y-73178349D01*
X119610000Y-73218349D02*
X117088000Y-73218349D01*
X119610000Y-73258349D02*
X117110000Y-73258349D01*
X119610000Y-73298349D02*
X117133000Y-73298349D01*
X119610000Y-73338349D02*
X117157000Y-73338349D01*
X119610000Y-73378349D02*
X117181000Y-73378349D01*
X119610000Y-73418349D02*
X117206000Y-73418349D01*
X119610000Y-73458349D02*
X117232000Y-73458349D01*
X119610000Y-73498349D02*
X117258000Y-73498349D01*
X119610000Y-73538349D02*
X117285000Y-73538349D01*
X119610000Y-73578349D02*
X117312000Y-73578349D01*
X119610000Y-73618349D02*
X117341000Y-73618349D01*
X119610000Y-73658349D02*
X117370000Y-73658349D01*
X119610000Y-73698349D02*
X117400000Y-73698349D01*
X119610000Y-73738349D02*
X117430000Y-73738349D01*
X119610000Y-73778349D02*
X117461000Y-73778349D01*
X119610000Y-73818349D02*
X117494000Y-73818349D01*
X119610000Y-73858349D02*
X117526000Y-73858349D01*
X119610000Y-73898349D02*
X117560000Y-73898349D01*
X119610000Y-73938349D02*
X117595000Y-73938349D01*
X119610000Y-73978349D02*
X117631000Y-73978349D01*
X119610000Y-74018349D02*
X117667000Y-74018349D01*
X119610000Y-74058349D02*
X117705000Y-74058349D01*
X119610000Y-74098349D02*
X117743000Y-74098349D01*
X119610000Y-74138349D02*
X117783000Y-74138349D01*
X119610000Y-74178349D02*
X117824000Y-74178349D01*
X119610000Y-74218349D02*
X117866000Y-74218349D01*
X119610000Y-74258349D02*
X117909000Y-74258349D01*
X119610000Y-74298349D02*
X117953000Y-74298349D01*
X119610000Y-74338349D02*
X117999000Y-74338349D01*
X119610000Y-74378349D02*
X118046000Y-74378349D01*
X119610000Y-74418349D02*
X118094000Y-74418349D01*
X119610000Y-74458349D02*
X118145000Y-74458349D01*
X119610000Y-74498349D02*
X118196000Y-74498349D01*
X119610000Y-74538349D02*
X118250000Y-74538349D01*
X119610000Y-74578349D02*
X118305000Y-74578349D01*
X119610000Y-74618349D02*
X118363000Y-74618349D01*
X119610000Y-74658349D02*
X118422000Y-74658349D01*
X119610000Y-74698349D02*
X118484000Y-74698349D01*
X119610000Y-74738349D02*
X118548000Y-74738349D01*
X121183000Y-75298349D02*
X120117000Y-75298349D01*
X121418000Y-75258349D02*
X119882000Y-75258349D01*
X121598000Y-75218349D02*
X119702000Y-75218349D01*
X121748000Y-75178349D02*
X119552000Y-75178349D01*
X121879000Y-75138349D02*
X119421000Y-75138349D01*
X121996000Y-75098349D02*
X119304000Y-75098349D01*
X122103000Y-75058349D02*
X119197000Y-75058349D01*
X122202000Y-75018349D02*
X119098000Y-75018349D01*
X122295000Y-74978349D02*
X119005000Y-74978349D01*
X122381000Y-74938349D02*
X118919000Y-74938349D01*
X122463000Y-74898349D02*
X118837000Y-74898349D01*
X122540000Y-74858349D02*
X118760000Y-74858349D01*
X122614000Y-74818349D02*
X118686000Y-74818349D01*
X122684000Y-74778349D02*
X118616000Y-74778349D01*
X122752000Y-74738349D02*
X121690000Y-74738349D01*
X122816000Y-74698349D02*
X121690000Y-74698349D01*
X122878000Y-74658349D02*
X121690000Y-74658349D01*
X122937000Y-74618349D02*
X121690000Y-74618349D01*
X122965000Y-66807651D02*
X122965000Y-67607651D01*
X122995000Y-74578349D02*
X121690000Y-74578349D01*
X123050000Y-74538349D02*
X121690000Y-74538349D01*
X123104000Y-74498349D02*
X121690000Y-74498349D01*
X123155000Y-74458349D02*
X121690000Y-74458349D01*
X123206000Y-74418349D02*
X121690000Y-74418349D01*
X123254000Y-74378349D02*
X121690000Y-74378349D01*
X123301000Y-74338349D02*
X121690000Y-74338349D01*
X123347000Y-74298349D02*
X121690000Y-74298349D01*
X123365000Y-67207651D02*
X122565000Y-67207651D01*
X123391000Y-74258349D02*
X121690000Y-74258349D01*
X123434000Y-74218349D02*
X121690000Y-74218349D01*
X123476000Y-74178349D02*
X121690000Y-74178349D01*
X123517000Y-74138349D02*
X121690000Y-74138349D01*
X123557000Y-74098349D02*
X121690000Y-74098349D01*
X123595000Y-74058349D02*
X121690000Y-74058349D01*
X123633000Y-74018349D02*
X121690000Y-74018349D01*
X123669000Y-73978349D02*
X121690000Y-73978349D01*
X123705000Y-73938349D02*
X121690000Y-73938349D01*
X123740000Y-73898349D02*
X121690000Y-73898349D01*
X123774000Y-73858349D02*
X121690000Y-73858349D01*
X123806000Y-73818349D02*
X121690000Y-73818349D01*
X123839000Y-73778349D02*
X121690000Y-73778349D01*
X123870000Y-73738349D02*
X121690000Y-73738349D01*
X123900000Y-73698349D02*
X121690000Y-73698349D01*
X123930000Y-73658349D02*
X121690000Y-73658349D01*
X123959000Y-73618349D02*
X121690000Y-73618349D01*
X123988000Y-73578349D02*
X121690000Y-73578349D01*
X124015000Y-73538349D02*
X121690000Y-73538349D01*
X124042000Y-73498349D02*
X121690000Y-73498349D01*
X124068000Y-73458349D02*
X121690000Y-73458349D01*
X124094000Y-73418349D02*
X121690000Y-73418349D01*
X124119000Y-73378349D02*
X121690000Y-73378349D01*
X124143000Y-73338349D02*
X121690000Y-73338349D01*
X124167000Y-73298349D02*
X121690000Y-73298349D01*
X124190000Y-73258349D02*
X121690000Y-73258349D01*
X124212000Y-73218349D02*
X121690000Y-73218349D01*
X124234000Y-73178349D02*
X121690000Y-73178349D01*
X124256000Y-73138349D02*
X121690000Y-73138349D01*
X124277000Y-73098349D02*
X121690000Y-73098349D01*
X124297000Y-73058349D02*
X121690000Y-73058349D01*
X124316000Y-73018349D02*
X121690000Y-73018349D01*
X124336000Y-72978349D02*
X121690000Y-72978349D01*
X124354000Y-72938349D02*
X121690000Y-72938349D01*
X124372000Y-72898349D02*
X121690000Y-72898349D01*
X124390000Y-72858349D02*
X121690000Y-72858349D01*
X124407000Y-72818349D02*
X121690000Y-72818349D01*
X124424000Y-72778349D02*
X121690000Y-72778349D01*
X124440000Y-72738349D02*
X121690000Y-72738349D01*
X124455000Y-72698349D02*
X121690000Y-72698349D01*
X124471000Y-72658349D02*
X116829000Y-72658349D01*
X124485000Y-72618349D02*
X116815000Y-72618349D01*
X124500000Y-72578349D02*
X116800000Y-72578349D01*
X124513000Y-72538349D02*
X116787000Y-72538349D01*
X124527000Y-72498349D02*
X116773000Y-72498349D01*
X124539000Y-72458349D02*
X116761000Y-72458349D01*
X124552000Y-72418349D02*
X116748000Y-72418349D01*
X124564000Y-72378349D02*
X116736000Y-72378349D01*
X124575000Y-72338349D02*
X116725000Y-72338349D01*
X124586000Y-72298349D02*
X116714000Y-72298349D01*
X124597000Y-72258349D02*
X116703000Y-72258349D01*
X124607000Y-72218349D02*
X116693000Y-72218349D01*
X124617000Y-72178349D02*
X116683000Y-72178349D01*
X124626000Y-72138349D02*
X116674000Y-72138349D01*
X124635000Y-72098349D02*
X116665000Y-72098349D01*
X124644000Y-72058349D02*
X116656000Y-72058349D01*
X124652000Y-72018349D02*
X116648000Y-72018349D01*
X124660000Y-71978349D02*
X116640000Y-71978349D01*
X124667000Y-71938349D02*
X116633000Y-71938349D01*
X124674000Y-71897349D02*
X116626000Y-71897349D01*
X124680000Y-71857349D02*
X116620000Y-71857349D01*
X124687000Y-71817349D02*
X116613000Y-71817349D01*
X124692000Y-71777349D02*
X116608000Y-71777349D01*
X124698000Y-71737349D02*
X116602000Y-71737349D01*
X124702000Y-71697349D02*
X116598000Y-71697349D01*
X124707000Y-71657349D02*
X116593000Y-71657349D01*
X124711000Y-71617349D02*
X116589000Y-71617349D01*
X124715000Y-71577349D02*
X116585000Y-71577349D01*
X124718000Y-71537349D02*
X116582000Y-71537349D01*
X124721000Y-71497349D02*
X116579000Y-71497349D01*
X124724000Y-71457349D02*
X116576000Y-71457349D01*
X124726000Y-71417349D02*
X116574000Y-71417349D01*
X124727000Y-71377349D02*
X116573000Y-71377349D01*
X124729000Y-71337349D02*
X116571000Y-71337349D01*
X124730000Y-71217349D02*
X116570000Y-71217349D01*
X124730000Y-71257349D02*
X116570000Y-71257349D01*
X124730000Y-71297349D02*
X116570000Y-71297349D01*
X124770000Y-71217349D02*
G75*
G02*
X116530000Y-71217349I-4120000J0D01*
G01*
X116530000Y-71217349D02*
G75*
G02*
X124770000Y-71217349I4120000J0D01*
G01*
%TO.C,U3*%
X171730000Y-58355000D02*
X171730000Y-76255000D01*
X171730000Y-76255000D02*
X176230000Y-76255000D01*
X172980000Y-58355000D02*
X171730000Y-58355000D01*
X176230000Y-58355000D02*
X174980000Y-58355000D01*
X176230000Y-76255000D02*
X176230000Y-58355000D01*
X174980000Y-58355000D02*
G75*
G02*
X172980000Y-58355000I-1000000J0D01*
G01*
%TO.C,C15*%
X112705000Y-62445000D02*
X112705000Y-62430000D01*
X112705000Y-64570000D02*
X112705000Y-64555000D01*
X117245000Y-62430000D02*
X112705000Y-62430000D01*
X117245000Y-62445000D02*
X117245000Y-62430000D01*
X117245000Y-64570000D02*
X112705000Y-64570000D01*
X117245000Y-64570000D02*
X117245000Y-64555000D01*
%TO.C,C10*%
X172950000Y-51108349D02*
X170185000Y-51108349D01*
X172950000Y-51148349D02*
X170200000Y-51148349D01*
X172950000Y-51188349D02*
X170216000Y-51188349D01*
X172950000Y-51228349D02*
X170233000Y-51228349D01*
X172950000Y-51268349D02*
X170250000Y-51268349D01*
X172950000Y-51308349D02*
X170268000Y-51308349D01*
X172950000Y-51348349D02*
X170286000Y-51348349D01*
X172950000Y-51388349D02*
X170304000Y-51388349D01*
X172950000Y-51428349D02*
X170324000Y-51428349D01*
X172950000Y-51468349D02*
X170343000Y-51468349D01*
X172950000Y-51508349D02*
X170363000Y-51508349D01*
X172950000Y-51548349D02*
X170384000Y-51548349D01*
X172950000Y-51588349D02*
X170406000Y-51588349D01*
X172950000Y-51628349D02*
X170428000Y-51628349D01*
X172950000Y-51668349D02*
X170450000Y-51668349D01*
X172950000Y-51708349D02*
X170473000Y-51708349D01*
X172950000Y-51748349D02*
X170497000Y-51748349D01*
X172950000Y-51788349D02*
X170521000Y-51788349D01*
X172950000Y-51828349D02*
X170546000Y-51828349D01*
X172950000Y-51868349D02*
X170572000Y-51868349D01*
X172950000Y-51908349D02*
X170598000Y-51908349D01*
X172950000Y-51948349D02*
X170625000Y-51948349D01*
X172950000Y-51988349D02*
X170652000Y-51988349D01*
X172950000Y-52028349D02*
X170681000Y-52028349D01*
X172950000Y-52068349D02*
X170710000Y-52068349D01*
X172950000Y-52108349D02*
X170740000Y-52108349D01*
X172950000Y-52148349D02*
X170770000Y-52148349D01*
X172950000Y-52188349D02*
X170801000Y-52188349D01*
X172950000Y-52228349D02*
X170834000Y-52228349D01*
X172950000Y-52268349D02*
X170866000Y-52268349D01*
X172950000Y-52308349D02*
X170900000Y-52308349D01*
X172950000Y-52348349D02*
X170935000Y-52348349D01*
X172950000Y-52388349D02*
X170971000Y-52388349D01*
X172950000Y-52428349D02*
X171007000Y-52428349D01*
X172950000Y-52468349D02*
X171045000Y-52468349D01*
X172950000Y-52508349D02*
X171083000Y-52508349D01*
X172950000Y-52548349D02*
X171123000Y-52548349D01*
X172950000Y-52588349D02*
X171164000Y-52588349D01*
X172950000Y-52628349D02*
X171206000Y-52628349D01*
X172950000Y-52668349D02*
X171249000Y-52668349D01*
X172950000Y-52708349D02*
X171293000Y-52708349D01*
X172950000Y-52748349D02*
X171339000Y-52748349D01*
X172950000Y-52788349D02*
X171386000Y-52788349D01*
X172950000Y-52828349D02*
X171434000Y-52828349D01*
X172950000Y-52868349D02*
X171485000Y-52868349D01*
X172950000Y-52908349D02*
X171536000Y-52908349D01*
X172950000Y-52948349D02*
X171590000Y-52948349D01*
X172950000Y-52988349D02*
X171645000Y-52988349D01*
X172950000Y-53028349D02*
X171703000Y-53028349D01*
X172950000Y-53068349D02*
X171762000Y-53068349D01*
X172950000Y-53108349D02*
X171824000Y-53108349D01*
X172950000Y-53148349D02*
X171888000Y-53148349D01*
X174523000Y-53708349D02*
X173457000Y-53708349D01*
X174758000Y-53668349D02*
X173222000Y-53668349D01*
X174938000Y-53628349D02*
X173042000Y-53628349D01*
X175088000Y-53588349D02*
X172892000Y-53588349D01*
X175219000Y-53548349D02*
X172761000Y-53548349D01*
X175336000Y-53508349D02*
X172644000Y-53508349D01*
X175443000Y-53468349D02*
X172537000Y-53468349D01*
X175542000Y-53428349D02*
X172438000Y-53428349D01*
X175635000Y-53388349D02*
X172345000Y-53388349D01*
X175721000Y-53348349D02*
X172259000Y-53348349D01*
X175803000Y-53308349D02*
X172177000Y-53308349D01*
X175880000Y-53268349D02*
X172100000Y-53268349D01*
X175954000Y-53228349D02*
X172026000Y-53228349D01*
X176024000Y-53188349D02*
X171956000Y-53188349D01*
X176092000Y-53148349D02*
X175030000Y-53148349D01*
X176156000Y-53108349D02*
X175030000Y-53108349D01*
X176218000Y-53068349D02*
X175030000Y-53068349D01*
X176277000Y-53028349D02*
X175030000Y-53028349D01*
X176305000Y-45217651D02*
X176305000Y-46017651D01*
X176335000Y-52988349D02*
X175030000Y-52988349D01*
X176390000Y-52948349D02*
X175030000Y-52948349D01*
X176444000Y-52908349D02*
X175030000Y-52908349D01*
X176495000Y-52868349D02*
X175030000Y-52868349D01*
X176546000Y-52828349D02*
X175030000Y-52828349D01*
X176594000Y-52788349D02*
X175030000Y-52788349D01*
X176641000Y-52748349D02*
X175030000Y-52748349D01*
X176687000Y-52708349D02*
X175030000Y-52708349D01*
X176705000Y-45617651D02*
X175905000Y-45617651D01*
X176731000Y-52668349D02*
X175030000Y-52668349D01*
X176774000Y-52628349D02*
X175030000Y-52628349D01*
X176816000Y-52588349D02*
X175030000Y-52588349D01*
X176857000Y-52548349D02*
X175030000Y-52548349D01*
X176897000Y-52508349D02*
X175030000Y-52508349D01*
X176935000Y-52468349D02*
X175030000Y-52468349D01*
X176973000Y-52428349D02*
X175030000Y-52428349D01*
X177009000Y-52388349D02*
X175030000Y-52388349D01*
X177045000Y-52348349D02*
X175030000Y-52348349D01*
X177080000Y-52308349D02*
X175030000Y-52308349D01*
X177114000Y-52268349D02*
X175030000Y-52268349D01*
X177146000Y-52228349D02*
X175030000Y-52228349D01*
X177179000Y-52188349D02*
X175030000Y-52188349D01*
X177210000Y-52148349D02*
X175030000Y-52148349D01*
X177240000Y-52108349D02*
X175030000Y-52108349D01*
X177270000Y-52068349D02*
X175030000Y-52068349D01*
X177299000Y-52028349D02*
X175030000Y-52028349D01*
X177328000Y-51988349D02*
X175030000Y-51988349D01*
X177355000Y-51948349D02*
X175030000Y-51948349D01*
X177382000Y-51908349D02*
X175030000Y-51908349D01*
X177408000Y-51868349D02*
X175030000Y-51868349D01*
X177434000Y-51828349D02*
X175030000Y-51828349D01*
X177459000Y-51788349D02*
X175030000Y-51788349D01*
X177483000Y-51748349D02*
X175030000Y-51748349D01*
X177507000Y-51708349D02*
X175030000Y-51708349D01*
X177530000Y-51668349D02*
X175030000Y-51668349D01*
X177552000Y-51628349D02*
X175030000Y-51628349D01*
X177574000Y-51588349D02*
X175030000Y-51588349D01*
X177596000Y-51548349D02*
X175030000Y-51548349D01*
X177617000Y-51508349D02*
X175030000Y-51508349D01*
X177637000Y-51468349D02*
X175030000Y-51468349D01*
X177656000Y-51428349D02*
X175030000Y-51428349D01*
X177676000Y-51388349D02*
X175030000Y-51388349D01*
X177694000Y-51348349D02*
X175030000Y-51348349D01*
X177712000Y-51308349D02*
X175030000Y-51308349D01*
X177730000Y-51268349D02*
X175030000Y-51268349D01*
X177747000Y-51228349D02*
X175030000Y-51228349D01*
X177764000Y-51188349D02*
X175030000Y-51188349D01*
X177780000Y-51148349D02*
X175030000Y-51148349D01*
X177795000Y-51108349D02*
X175030000Y-51108349D01*
X177811000Y-51068349D02*
X170169000Y-51068349D01*
X177825000Y-51028349D02*
X170155000Y-51028349D01*
X177840000Y-50988349D02*
X170140000Y-50988349D01*
X177853000Y-50948349D02*
X170127000Y-50948349D01*
X177867000Y-50908349D02*
X170113000Y-50908349D01*
X177879000Y-50868349D02*
X170101000Y-50868349D01*
X177892000Y-50828349D02*
X170088000Y-50828349D01*
X177904000Y-50788349D02*
X170076000Y-50788349D01*
X177915000Y-50748349D02*
X170065000Y-50748349D01*
X177926000Y-50708349D02*
X170054000Y-50708349D01*
X177937000Y-50668349D02*
X170043000Y-50668349D01*
X177947000Y-50628349D02*
X170033000Y-50628349D01*
X177957000Y-50588349D02*
X170023000Y-50588349D01*
X177966000Y-50548349D02*
X170014000Y-50548349D01*
X177975000Y-50508349D02*
X170005000Y-50508349D01*
X177984000Y-50468349D02*
X169996000Y-50468349D01*
X177992000Y-50428349D02*
X169988000Y-50428349D01*
X178000000Y-50388349D02*
X169980000Y-50388349D01*
X178007000Y-50348349D02*
X169973000Y-50348349D01*
X178014000Y-50307349D02*
X169966000Y-50307349D01*
X178020000Y-50267349D02*
X169960000Y-50267349D01*
X178027000Y-50227349D02*
X169953000Y-50227349D01*
X178032000Y-50187349D02*
X169948000Y-50187349D01*
X178038000Y-50147349D02*
X169942000Y-50147349D01*
X178042000Y-50107349D02*
X169938000Y-50107349D01*
X178047000Y-50067349D02*
X169933000Y-50067349D01*
X178051000Y-50027349D02*
X169929000Y-50027349D01*
X178055000Y-49987349D02*
X169925000Y-49987349D01*
X178058000Y-49947349D02*
X169922000Y-49947349D01*
X178061000Y-49907349D02*
X169919000Y-49907349D01*
X178064000Y-49867349D02*
X169916000Y-49867349D01*
X178066000Y-49827349D02*
X169914000Y-49827349D01*
X178067000Y-49787349D02*
X169913000Y-49787349D01*
X178069000Y-49747349D02*
X169911000Y-49747349D01*
X178070000Y-49627349D02*
X169910000Y-49627349D01*
X178070000Y-49667349D02*
X169910000Y-49667349D01*
X178070000Y-49707349D02*
X169910000Y-49707349D01*
X178110000Y-49627349D02*
G75*
G02*
X169870000Y-49627349I-4120000J0D01*
G01*
X169870000Y-49627349D02*
G75*
G02*
X178110000Y-49627349I4120000J0D01*
G01*
%TO.C,R7*%
X120555000Y-62130000D02*
X120555000Y-62460000D01*
X120555000Y-64870000D02*
X120555000Y-64540000D01*
X127095000Y-62130000D02*
X120555000Y-62130000D01*
X127095000Y-62460000D02*
X127095000Y-62130000D01*
X127095000Y-64540000D02*
X127095000Y-64870000D01*
X127095000Y-64870000D02*
X120555000Y-64870000D01*
%TO.C,JP1*%
X105350000Y-82535000D02*
X105350000Y-77395000D01*
X108010000Y-77395000D02*
X105350000Y-77395000D01*
X108010000Y-82535000D02*
X105350000Y-82535000D01*
X108010000Y-82535000D02*
X108010000Y-77395000D01*
X108010000Y-83805000D02*
X108010000Y-85135000D01*
X108010000Y-85135000D02*
X106680000Y-85135000D01*
%TO.C,U1*%
X146495000Y-46950000D02*
X162385000Y-46950000D01*
X146495000Y-57190000D02*
X146495000Y-46950000D01*
X146495000Y-57190000D02*
X162385000Y-57190000D01*
X162385000Y-49530000D02*
X164925000Y-49530000D01*
X162385000Y-52070000D02*
X164925000Y-52070000D01*
X162385000Y-54610000D02*
X164925000Y-54610000D01*
X162385000Y-57190000D02*
X162385000Y-46950000D01*
%TO.C,C12*%
X105085000Y-45935000D02*
X105085000Y-45920000D01*
X105085000Y-48060000D02*
X105085000Y-48045000D01*
X109625000Y-45920000D02*
X105085000Y-45920000D01*
X109625000Y-45935000D02*
X109625000Y-45920000D01*
X109625000Y-48060000D02*
X105085000Y-48060000D01*
X109625000Y-48060000D02*
X109625000Y-48045000D01*
%TO.C,C3*%
X172990000Y-54825000D02*
X172990000Y-54810000D01*
X172990000Y-56950000D02*
X172990000Y-56935000D01*
X177530000Y-54810000D02*
X172990000Y-54810000D01*
X177530000Y-54825000D02*
X177530000Y-54810000D01*
X177530000Y-56950000D02*
X172990000Y-56950000D01*
X177530000Y-56950000D02*
X177530000Y-56935000D01*
%TO.C,U6*%
X174280000Y-83760000D02*
X174280000Y-114360000D01*
X174280000Y-114360000D02*
X175530000Y-114360000D01*
X177530000Y-114360000D02*
X178780000Y-114360000D01*
X178780000Y-83760000D02*
X174280000Y-83760000D01*
X178780000Y-114360000D02*
X178780000Y-83760000D01*
X175530000Y-114360000D02*
G75*
G02*
X177530000Y-114360000I1000000J0D01*
G01*
%TO.C,J1*%
X190200000Y-133950000D02*
X190500000Y-133350000D01*
X190240000Y-45450000D02*
X190240000Y-50970000D01*
X190240000Y-50970000D02*
X191240000Y-50970000D01*
X190240000Y-134450000D02*
X191240000Y-134450000D01*
X190240000Y-139970000D02*
X190240000Y-134450000D01*
X190500000Y-133350000D02*
X190800000Y-133950000D01*
X190800000Y-133950000D02*
X190200000Y-133950000D01*
X191240000Y-50969000D02*
X191240000Y-52245000D01*
X191240000Y-54435000D02*
X191240000Y-55011000D01*
X191240000Y-56750000D02*
X191240000Y-57551000D01*
X191240000Y-59290000D02*
X191240000Y-60091000D01*
X191240000Y-61830000D02*
X191240000Y-62631000D01*
X191240000Y-65170000D02*
X191240000Y-64369000D01*
X191240000Y-67710000D02*
X191240000Y-66909000D01*
X191240000Y-70250000D02*
X191240000Y-69449000D01*
X191240000Y-72790000D02*
X191240000Y-71989000D01*
X191240000Y-75330000D02*
X191240000Y-74529000D01*
X191240000Y-77870000D02*
X191240000Y-77069000D01*
X191240000Y-80410000D02*
X191240000Y-79609000D01*
X191240000Y-82950000D02*
X191240000Y-82149000D01*
X191240000Y-85490000D02*
X191240000Y-84689000D01*
X191240000Y-88030000D02*
X191240000Y-87229000D01*
X191240000Y-90570000D02*
X191240000Y-89769000D01*
X191240000Y-93110000D02*
X191240000Y-92309000D01*
X191240000Y-95650000D02*
X191240000Y-94849000D01*
X191240000Y-98190000D02*
X191240000Y-97389000D01*
X191240000Y-100730000D02*
X191240000Y-99929000D01*
X191240000Y-103270000D02*
X191240000Y-102469000D01*
X191240000Y-105810000D02*
X191240000Y-105009000D01*
X191240000Y-108350000D02*
X191240000Y-107549000D01*
X191240000Y-110890000D02*
X191240000Y-110089000D01*
X191240000Y-113430000D02*
X191240000Y-112629000D01*
X191240000Y-115970000D02*
X191240000Y-115169000D01*
X191240000Y-118510000D02*
X191240000Y-117709000D01*
X191240000Y-121050000D02*
X191240000Y-120249000D01*
X191240000Y-122790000D02*
X191240000Y-123591000D01*
X191240000Y-125330000D02*
X191240000Y-126131000D01*
X191240000Y-127870000D02*
X191240000Y-128671000D01*
X191240000Y-130410000D02*
X191240000Y-131211000D01*
X191240000Y-132950000D02*
X191240000Y-134450000D01*
X195800000Y-45450000D02*
X190240000Y-45450000D01*
X195800000Y-139970000D02*
X190240000Y-139970000D01*
%TO.C,X1B1*%
X162570000Y-67725000D02*
X157470000Y-67725000D01*
X162570000Y-71975000D02*
X162570000Y-67725000D01*
%TO.C,U2*%
X148530000Y-122210000D02*
X148530000Y-127270000D01*
X148530000Y-129270000D02*
X148530000Y-134330000D01*
X148530000Y-134330000D02*
X184210000Y-134330000D01*
X184210000Y-122210000D02*
X148530000Y-122210000D01*
X184210000Y-134330000D02*
X184210000Y-122210000D01*
X148530000Y-127270000D02*
G75*
G02*
X148530000Y-129270000I0J-1000000D01*
G01*
%TO.C,C5*%
X129740000Y-65040000D02*
X129740000Y-69580000D01*
X129755000Y-65040000D02*
X129740000Y-65040000D01*
X129755000Y-69580000D02*
X129740000Y-69580000D01*
X131880000Y-65040000D02*
X131865000Y-65040000D01*
X131880000Y-65040000D02*
X131880000Y-69580000D01*
X131880000Y-69580000D02*
X131865000Y-69580000D01*
%TO.C,U4*%
X118055000Y-99330000D02*
X118055000Y-104390000D01*
X118055000Y-106390000D02*
X118055000Y-111450000D01*
X118055000Y-111450000D02*
X168975000Y-111450000D01*
X168975000Y-99330000D02*
X118055000Y-99330000D01*
X168975000Y-111450000D02*
X168975000Y-99330000D01*
X118055000Y-104390000D02*
G75*
G02*
X118055000Y-106390000I0J-1000000D01*
G01*
%TD*%
D14*
X134630000Y-59705000D03*
X137170000Y-59705000D03*
X139710000Y-59705000D03*
X142250000Y-59705000D03*
X142250000Y-52085000D03*
X139710000Y-52085000D03*
X137170000Y-52085000D03*
X134630000Y-52085000D03*
X110490000Y-92710000D03*
X113030000Y-92710000D03*
X115570000Y-92710000D03*
X118110000Y-92710000D03*
X120650000Y-92710000D03*
X123190000Y-92710000D03*
X125730000Y-92710000D03*
X128270000Y-92710000D03*
X130810000Y-92710000D03*
X133350000Y-92710000D03*
X135890000Y-92710000D03*
X138430000Y-92710000D03*
X140970000Y-92710000D03*
X143510000Y-92710000D03*
X146050000Y-92710000D03*
X148590000Y-92710000D03*
X151130000Y-92710000D03*
X153670000Y-92710000D03*
X156210000Y-92710000D03*
X158750000Y-92710000D03*
X158750000Y-77470000D03*
X156210000Y-77470000D03*
X153670000Y-77470000D03*
X151130000Y-77470000D03*
X148590000Y-77470000D03*
X146050000Y-77470000D03*
X143510000Y-77470000D03*
X140970000Y-77470000D03*
X138430000Y-77470000D03*
X135890000Y-77470000D03*
X133350000Y-77470000D03*
X130810000Y-77470000D03*
X128270000Y-77470000D03*
X125730000Y-77470000D03*
X123190000Y-77470000D03*
X120650000Y-77470000D03*
X118110000Y-77470000D03*
X115570000Y-77470000D03*
X113030000Y-77470000D03*
X110490000Y-77470000D03*
X184150000Y-53300000D03*
X184150000Y-48300000D03*
X180260000Y-81280000D03*
X175260000Y-81280000D03*
X106680000Y-87710000D03*
X106680000Y-92710000D03*
X182880000Y-74930000D03*
X182880000Y-73660000D03*
X182880000Y-72390000D03*
X127635000Y-46990000D03*
X120015000Y-46990000D03*
X127000000Y-58420000D03*
X127000000Y-50800000D03*
X118110000Y-132080000D03*
X120650000Y-132080000D03*
X123190000Y-132080000D03*
X125730000Y-132080000D03*
X128270000Y-132080000D03*
X130810000Y-132080000D03*
X133350000Y-132080000D03*
X135890000Y-132080000D03*
X138430000Y-132080000D03*
X140970000Y-132080000D03*
X140970000Y-124460000D03*
X138430000Y-124460000D03*
X135890000Y-124460000D03*
X133350000Y-124460000D03*
X130810000Y-124460000D03*
X128270000Y-124460000D03*
X125730000Y-124460000D03*
X123190000Y-124460000D03*
X120650000Y-124460000D03*
X118110000Y-124460000D03*
X110490000Y-71125000D03*
X110490000Y-68585000D03*
X113030000Y-71125000D03*
X113030000Y-68585000D03*
X134620000Y-72390000D03*
X137160000Y-72390000D03*
X139700000Y-72390000D03*
X142240000Y-72390000D03*
X142240000Y-64770000D03*
X139700000Y-64770000D03*
X137160000Y-64770000D03*
X134620000Y-64770000D03*
X114300000Y-124500000D03*
X114300000Y-129500000D03*
X109815000Y-63500000D03*
X104815000Y-63500000D03*
X146050000Y-135890000D03*
X146050000Y-130890000D03*
X123825000Y-58420000D03*
X123825000Y-50800000D03*
X117435000Y-46990000D03*
X112435000Y-46990000D03*
X181610000Y-59690000D03*
X181610000Y-67310000D03*
X104815000Y-50245000D03*
X104815000Y-60245000D03*
X107315000Y-50245000D03*
X107315000Y-60245000D03*
X112315000Y-55245000D03*
X107315000Y-55245000D03*
X112315000Y-50245000D03*
X112315000Y-52745000D03*
X112315000Y-60245000D03*
X112315000Y-57745000D03*
X120650000Y-58420000D03*
X120650000Y-50800000D03*
X130810000Y-59650000D03*
X130810000Y-54650000D03*
X117475000Y-58420000D03*
X117475000Y-50800000D03*
X110490000Y-132080000D03*
X107950000Y-132080000D03*
X110490000Y-129540000D03*
X107950000Y-129540000D03*
X110490000Y-127000000D03*
X107950000Y-127000000D03*
X110490000Y-124460000D03*
X107950000Y-124460000D03*
X110490000Y-121920000D03*
X107950000Y-121920000D03*
X110490000Y-119380000D03*
X107950000Y-119380000D03*
X110490000Y-116840000D03*
X107950000Y-116840000D03*
X110490000Y-114300000D03*
X107950000Y-114300000D03*
X110490000Y-111760000D03*
X107950000Y-111760000D03*
X110490000Y-109220000D03*
X107950000Y-109220000D03*
X110490000Y-106680000D03*
X107950000Y-106680000D03*
X110490000Y-104140000D03*
X107950000Y-104140000D03*
X110490000Y-101600000D03*
X107950000Y-101600000D03*
X115570000Y-107950000D03*
X115570000Y-112950000D03*
X163830000Y-64770000D03*
X156210000Y-64770000D03*
X156210000Y-72390000D03*
X163830000Y-72390000D03*
X120650000Y-68717349D03*
X120650000Y-73717349D03*
X170170000Y-59685000D03*
X170170000Y-62225000D03*
X170170000Y-64765000D03*
X170170000Y-67305000D03*
X170170000Y-69845000D03*
X170170000Y-72385000D03*
X170170000Y-74925000D03*
X177790000Y-74925000D03*
X177790000Y-72385000D03*
X177790000Y-69845000D03*
X177790000Y-67305000D03*
X177790000Y-64765000D03*
X177790000Y-62225000D03*
X177790000Y-59685000D03*
X117475000Y-63500000D03*
X112475000Y-63500000D03*
X173990000Y-47127349D03*
X173990000Y-52127349D03*
X127635000Y-63500000D03*
X120015000Y-63500000D03*
X106680000Y-83805000D03*
X106680000Y-81265000D03*
X106680000Y-78725000D03*
X149415000Y-52070000D03*
X166075000Y-54610000D03*
X166075000Y-52070000D03*
X166075000Y-49530000D03*
X109855000Y-46990000D03*
X104855000Y-46990000D03*
X177760000Y-55880000D03*
X172760000Y-55880000D03*
X180340000Y-113030000D03*
X180340000Y-110490000D03*
X180340000Y-107950000D03*
X180340000Y-105410000D03*
X180340000Y-102870000D03*
X180340000Y-100330000D03*
X180340000Y-97790000D03*
X180340000Y-95250000D03*
X180340000Y-92710000D03*
X180340000Y-90170000D03*
X180340000Y-87630000D03*
X180340000Y-85090000D03*
X172720000Y-85090000D03*
X172720000Y-87630000D03*
X172720000Y-90170000D03*
X172720000Y-92710000D03*
X172720000Y-95250000D03*
X172720000Y-97790000D03*
X172720000Y-100330000D03*
X172720000Y-102870000D03*
X172720000Y-105410000D03*
X172720000Y-107950000D03*
X172720000Y-110490000D03*
X172720000Y-113030000D03*
X193040000Y-48260000D03*
X193040000Y-137160000D03*
X190500000Y-132080000D03*
X190500000Y-129540000D03*
X190500000Y-127000000D03*
X190500000Y-124460000D03*
X190500000Y-121920000D03*
X190500000Y-119380000D03*
X190500000Y-116840000D03*
X190500000Y-114300000D03*
X190500000Y-111760000D03*
X190500000Y-109220000D03*
X190500000Y-106680000D03*
X190500000Y-104140000D03*
X190500000Y-101600000D03*
X190500000Y-99060000D03*
X190500000Y-96520000D03*
X190500000Y-93980000D03*
X190500000Y-91440000D03*
X190500000Y-88900000D03*
X190500000Y-86360000D03*
X190500000Y-83820000D03*
X190500000Y-81280000D03*
X190500000Y-78740000D03*
X190500000Y-76200000D03*
X190500000Y-73660000D03*
X190500000Y-71120000D03*
X190500000Y-68580000D03*
X190500000Y-66040000D03*
X190500000Y-63500000D03*
X190500000Y-60960000D03*
X190500000Y-58420000D03*
X190500000Y-55880000D03*
X190500000Y-53340000D03*
X187960000Y-132080000D03*
X187960000Y-129540000D03*
X187960000Y-127000000D03*
X187960000Y-124460000D03*
X187960000Y-121920000D03*
X187960000Y-119380000D03*
X187960000Y-116840000D03*
X187960000Y-114300000D03*
X187960000Y-111760000D03*
X187960000Y-109220000D03*
X187960000Y-106680000D03*
X187960000Y-104140000D03*
X187960000Y-101600000D03*
X187960000Y-99060000D03*
X187960000Y-96520000D03*
X187960000Y-93980000D03*
X187960000Y-91440000D03*
X187960000Y-88900000D03*
X187960000Y-86360000D03*
X187960000Y-83820000D03*
X187960000Y-81280000D03*
X187960000Y-78740000D03*
X187960000Y-76200000D03*
X187960000Y-73660000D03*
X187960000Y-71120000D03*
X187960000Y-68580000D03*
X187960000Y-66040000D03*
X187960000Y-63500000D03*
X187960000Y-60960000D03*
X187960000Y-58420000D03*
X187960000Y-55880000D03*
X187960000Y-53340000D03*
X149860000Y-135890000D03*
X152400000Y-135890000D03*
X154940000Y-135890000D03*
X157480000Y-135890000D03*
X160020000Y-135890000D03*
X162560000Y-135890000D03*
X165100000Y-135890000D03*
X167640000Y-135890000D03*
X170180000Y-135890000D03*
X172720000Y-135890000D03*
X175260000Y-135890000D03*
X177800000Y-135890000D03*
X180340000Y-135890000D03*
X182880000Y-135890000D03*
X182880000Y-120650000D03*
X180340000Y-120650000D03*
X177800000Y-120650000D03*
X175260000Y-120650000D03*
X172720000Y-120650000D03*
X170180000Y-120650000D03*
X167640000Y-120650000D03*
X165100000Y-120650000D03*
X162560000Y-120650000D03*
X160020000Y-120650000D03*
X157480000Y-120650000D03*
X154940000Y-120650000D03*
X152400000Y-120650000D03*
X149860000Y-120650000D03*
X130810000Y-64810000D03*
X130810000Y-69810000D03*
X119385000Y-113010000D03*
X121925000Y-113010000D03*
X124465000Y-113010000D03*
X127005000Y-113010000D03*
X129545000Y-113010000D03*
X132085000Y-113010000D03*
X134625000Y-113010000D03*
X137165000Y-113010000D03*
X139705000Y-113010000D03*
X142245000Y-113010000D03*
X144785000Y-113010000D03*
X147325000Y-113010000D03*
X149865000Y-113010000D03*
X152405000Y-113010000D03*
X154945000Y-113010000D03*
X157485000Y-113010000D03*
X160025000Y-113010000D03*
X162565000Y-113010000D03*
X165105000Y-113010000D03*
X167645000Y-113010000D03*
X167645000Y-97770000D03*
X165105000Y-97770000D03*
X162565000Y-97770000D03*
X160025000Y-97770000D03*
X157485000Y-97770000D03*
X154945000Y-97770000D03*
X152405000Y-97770000D03*
X149865000Y-97770000D03*
X147325000Y-97770000D03*
X144785000Y-97770000D03*
X142245000Y-97770000D03*
X139705000Y-97770000D03*
X137165000Y-97770000D03*
X134625000Y-97770000D03*
X132085000Y-97770000D03*
X129545000Y-97770000D03*
X127005000Y-97770000D03*
X124465000Y-97770000D03*
X121925000Y-97770000D03*
X119385000Y-97770000D03*
M02*
